<svg width="14" height="16" viewBox="0 0 14 16" fill="none" xmlns="http://www.w3.org/2000/svg">
<path d="M14 6.55969C12.6242 6.56298 11.2822 6.13392 10.1634 5.33312V10.9181C10.1631 11.9525 9.84689 12.9622 9.25721 13.812C8.66753 14.6619 7.83245 15.3115 6.86362 15.6739C5.89479 16.0364 4.83841 16.0944 3.83571 15.8402C2.83301 15.5861 1.9318 15.0319 1.25258 14.2517C0.573363 13.4716 0.14851 12.5026 0.0348314 11.4745C-0.0788471 10.4464 0.124068 9.40803 0.616444 8.49833C1.10882 7.58863 1.86719 6.85093 2.79014 6.38387C3.7131 5.91681 4.75665 5.74265 5.78125 5.88469V8.69375C5.31239 8.54627 4.80892 8.55071 4.34273 8.70644C3.87655 8.86217 3.47149 9.16123 3.1854 9.56089C2.89932 9.96056 2.74683 10.4404 2.74973 10.9319C2.75262 11.4234 2.91075 11.9014 3.20152 12.2977C3.4923 12.694 3.90085 12.9882 4.36884 13.1385C4.83682 13.2887 5.34031 13.2872 5.8074 13.1342C6.2745 12.9812 6.6813 12.6845 6.96973 12.2866C7.25815 11.8886 7.41345 11.4096 7.41344 10.9181V0H10.1634C10.1615 0.232231 10.181 0.464146 10.2216 0.692812C10.3171 1.20328 10.5158 1.68888 10.8055 2.11992C11.0952 2.55096 11.4697 2.91837 11.9062 3.19969C12.5273 3.61034 13.2555 3.82922 14 3.82906V6.55969Z" fill="white"/>
</svg>
