<svg width="18" height="15" viewBox="0 0 18 15" fill="none" xmlns="http://www.w3.org/2000/svg">
<path d="M17.7167 1.99992C17.075 2.29159 16.3833 2.48325 15.6667 2.57492C16.4 2.13325 16.9667 1.43325 17.2333 0.591585C16.5417 1.00825 15.775 1.29992 14.9667 1.46659C14.3083 0.749919 13.3833 0.333252 12.3333 0.333252C10.375 0.333252 8.77499 1.93325 8.77499 3.90825C8.77499 4.19159 8.80833 4.46659 8.86666 4.72492C5.89999 4.57492 3.25833 3.14992 1.49999 0.991585C1.19166 1.51659 1.01666 2.13325 1.01666 2.78325C1.01666 4.02492 1.64166 5.12492 2.60833 5.74992C2.01666 5.74992 1.46666 5.58325 0.983325 5.33325V5.35825C0.983325 7.09159 2.21666 8.54159 3.84999 8.86659C3.3256 9.01009 2.77507 9.03006 2.24166 8.92492C2.468 9.63532 2.91127 10.2569 3.50917 10.7024C4.10707 11.1478 4.82953 11.3947 5.57499 11.4083C4.31135 12.4086 2.74499 12.9493 1.13333 12.9416C0.849992 12.9416 0.566659 12.9249 0.283325 12.8916C1.86666 13.9083 3.74999 14.4999 5.76666 14.4999C12.3333 14.4999 15.9417 9.04992 15.9417 4.32492C15.9417 4.16659 15.9417 4.01659 15.9333 3.85825C16.6333 3.35825 17.2333 2.72492 17.7167 1.99992Z" fill="white"/>
</svg>
