<svg width="13" height="16" viewBox="0 0 13 16" fill="none" xmlns="http://www.w3.org/2000/svg">
<path d="M1.97421 5.32224C1.97421 7.90868 4.09039 10.0249 6.67683 10.0249C9.26326 10.0249 11.3794 7.90868 11.3794 5.32224C11.3794 2.7358 9.26326 0.619629 6.67683 0.619629C4.09039 0.619629 1.97421 2.7358 1.97421 5.32224ZM10.2729 5.32224C10.2729 7.30011 8.65469 8.91836 6.67683 8.91836C4.69896 8.91836 3.08071 7.30011 3.08071 5.32224C3.08071 3.34438 4.69896 1.72613 6.67683 1.72613C8.65469 1.72613 10.2729 3.34438 10.2729 5.32224Z" fill="white"/>
<path d="M1.19963 15.0594C2.66574 13.5933 4.60211 12.7911 6.67679 12.7911C8.75148 12.7911 10.6878 13.5933 12.154 15.0594L12.9423 14.271C11.2688 12.6113 9.04193 11.6846 6.67679 11.6846C4.31166 11.6846 2.08483 12.6113 0.411255 14.271L1.19963 15.0594Z" fill="white"/>
</svg>
