<svg width="28" height="15" viewBox="0 0 28 15" fill="none" xmlns="http://www.w3.org/2000/svg">
<g clip-path="url(#clip0_1_22)">
<path d="M28 8.08551C28 8.47121 28 8.86391 28 9.24961C27.9795 9.26363 27.959 9.26363 27.9384 9.27064C27.9111 9.27064 27.8769 9.27064 27.8495 9.27064C18.6234 9.27064 9.39033 9.27064 0.164146 9.27064C0.0136819 9.27064 0.0273604 9.25662 0.0273604 9.4109C0.0273604 9.70543 0.0273604 9.99294 0.0273604 10.2875C0.0273604 10.3927 0.0273605 10.3927 0.136789 10.3927C0.157307 10.3927 0.170985 10.3927 0.191503 10.3927C9.41769 10.3927 18.6439 10.3927 27.8701 10.3927C27.9111 10.3927 27.959 10.3786 28 10.4137C28 10.7994 28 11.1921 28 11.5778C27.9795 11.5918 27.959 11.5918 27.9384 11.5988C27.9111 11.5988 27.8769 11.5988 27.8495 11.5988C18.6234 11.5988 9.39033 11.5988 0.164146 11.5988C0.0136819 11.5988 0.0273604 11.5848 0.0273604 11.7391C0.0273604 12.0336 0.0273604 12.3281 0.0273604 12.6227C0.0273604 12.7279 0.0273605 12.7279 0.136789 12.7279C0.157307 12.7279 0.170985 12.7279 0.191503 12.7279C9.41769 12.7279 18.6439 12.7279 27.8701 12.7279C27.9111 12.7279 27.959 12.7138 28 12.7489C28 13.1346 28 13.5203 28 13.906C27.9795 13.92 27.959 13.92 27.9384 13.927C27.9111 13.927 27.8769 13.927 27.8495 13.927C18.6234 13.927 9.39033 13.927 0.164146 13.927C0.00684261 13.927 0.0273604 13.913 0.0273604 14.0673C0.0273604 14.3688 0.0273604 14.6774 0.0273604 14.9789C0.0273604 15.007 0.0341997 15.042 0.00684262 15.0701C0.00684262 15.0701 -0.00683594 15.0771 -0.00683594 15.0631C-0.00683594 15.049 -0.00683594 15.035 -0.00683594 15.021C3.3395e-06 9.99996 3.3395e-06 4.99996 3.3395e-06 -4.29042e-05C3.3395e-06 -0.0421186 0.00684262 -0.0491313 0.0478783 -0.0491313C9.3493 -0.0491313 18.6507 -0.0491313 27.9453 -0.0491313C27.959 -0.0491313 27.9795 -0.0631565 27.9932 -0.0421186C27.9795 -0.0280934 27.959 -0.0280934 27.9384 -0.0210808C27.9179 -0.0210808 27.8974 -0.0210808 27.8701 -0.0210808C22.3302 -0.0210808 16.7973 -0.0210808 11.2575 -0.0210808C11.2369 -0.0210808 11.2164 -0.0210808 11.1959 -0.0210808C11.1617 -0.0210808 11.1275 -0.0210808 11.1001 -0.0210808C7.44114 -0.0210808 3.78896 -0.0210808 0.12995 -0.0210808C0.0136819 -0.0210808 0.0205212 -0.0280934 0.0205212 0.0911212C0.0205212 2.71384 0.0205212 5.32955 0.0205212 7.95227C0.0205212 8.07149 0.0136819 8.06447 0.136789 8.06447C3.80264 8.06447 7.47533 8.06447 11.1412 8.06447C11.1617 8.06447 11.1822 8.06447 11.2027 8.06447C11.2438 8.06447 11.2848 8.06447 11.3258 8.06447C16.8383 8.06447 22.3576 8.06447 27.8701 8.06447C27.9179 8.06447 27.9658 8.05746 28 8.08551Z" fill="#FFFEFE"/>
<path d="M0.0136871 15.0491C0.0136871 14.6774 0.0136871 14.3128 0.0136871 13.9411C0.0136871 13.899 0.0205264 13.885 0.0615621 13.892C0.0752406 13.892 0.0957585 13.892 0.109437 13.892C9.3835 13.892 18.6507 13.892 27.9248 13.892C27.9521 13.892 27.9727 13.892 28 13.885C28 14.2567 28 14.6283 28 15C28 15.0421 27.9932 15.0491 27.9521 15.0491C23.6639 15.0491 19.3825 15.0491 15.0943 15.0491C10.0674 15.0491 5.04056 15.0491 0.0136871 15.0491Z" fill="#B22435"/>
<path d="M28 12.735C27.9727 12.735 27.9521 12.735 27.9248 12.735C18.6439 12.735 9.36982 12.735 0.0889192 12.735C0.0136871 12.735 0.0136871 12.735 0.0136871 12.6578C0.0136871 12.3142 0.0136871 11.9706 0.0136871 11.627C0.0136871 11.5849 0.0205264 11.5709 0.0615621 11.5779C0.0752406 11.5779 0.0889192 11.5779 0.102598 11.5779C9.37666 11.5779 18.6507 11.5779 27.9179 11.5779C27.9453 11.5779 27.9658 11.5779 27.9932 11.5779C28 11.9566 28 12.3423 28 12.735Z" fill="#B22435"/>
<path d="M28 10.3996C27.9795 10.3996 27.959 10.4066 27.9385 10.4066C18.6507 10.4066 9.36298 10.4066 0.0752406 10.4066C0.0273657 10.4066 0.0136871 10.3996 0.0136871 10.3435C0.0136871 9.99286 0.0136871 9.64223 0.0136871 9.29861C0.0136871 9.25654 0.0273657 9.24251 0.0684013 9.24952C0.0752406 9.24952 0.0820799 9.24952 0.0820799 9.24952C9.36982 9.24952 18.6644 9.24952 27.9521 9.24952C27.9658 9.24952 27.9863 9.24952 28 9.24952C28 9.63522 28 10.0209 28 10.3996Z" fill="#B22435"/>
<path d="M11.2096 -0.0351562C11.2301 -0.0351562 11.2575 -0.0351562 11.278 -0.0351562C16.852 -0.0351562 22.426 -0.0351562 28 -0.0351562C28 0.350538 28 0.743245 28 1.12894C27.9863 1.14296 27.9658 1.14296 27.9453 1.14998C27.9248 1.14998 27.9043 1.14998 27.8769 1.14998C22.3576 1.14998 16.8383 1.14998 11.319 1.14998C11.278 1.14998 11.2369 1.15699 11.2027 1.13595C11.1822 1.11491 11.1891 1.07985 11.1891 1.05881C11.1891 0.722207 11.1891 0.385601 11.1891 0.0489952C11.1891 0.0139321 11.1891 -0.0141184 11.2096 -0.0351562Z" fill="#B22435"/>
<path d="M28 3.44307C28 3.82876 28 4.22147 28 4.60716C27.9863 4.6282 27.9658 4.6282 27.9453 4.6282C27.9248 4.6282 27.9043 4.6282 27.8837 4.6282C22.3644 4.6282 16.8383 4.6282 11.319 4.6282C11.278 4.6282 11.2438 4.63521 11.2096 4.61418C11.1959 4.59314 11.1959 4.5721 11.1959 4.55106C11.1959 4.20043 11.1959 3.85681 11.1959 3.50618C11.1959 3.48514 11.1959 3.46411 11.2096 3.44307C11.2233 3.42904 11.2438 3.42904 11.2643 3.42904C11.2848 3.42904 11.3053 3.42904 11.3327 3.42904C16.852 3.42904 22.3644 3.42904 27.8837 3.42904C27.9179 3.42904 27.9658 3.41502 28 3.44307Z" fill="white"/>
<path d="M28 3.4431C27.9795 3.4431 27.9521 3.4431 27.9316 3.4431C22.3576 3.4431 16.7836 3.4431 11.2096 3.4431C11.1891 3.42206 11.1891 3.39401 11.1891 3.37297C11.1891 3.02935 11.1891 2.69275 11.1891 2.34913C11.1891 2.32809 11.1891 2.30004 11.2027 2.279C11.2164 2.26498 11.2369 2.26498 11.2574 2.26498C11.278 2.26498 11.2985 2.26498 11.3258 2.26498C16.8451 2.26498 22.3576 2.26498 27.8769 2.26498C27.9179 2.26498 27.959 2.25095 28 2.28602C28 2.67171 28 3.0574 28 3.4431Z" fill="#B22435"/>
<path d="M28 5.76444C28 6.15013 28 6.54284 28 6.92853C27.9863 6.94256 27.9658 6.94256 27.9453 6.94957C27.9248 6.94957 27.9111 6.94957 27.8906 6.94957C22.3644 6.94957 16.8383 6.94957 11.3122 6.94957C11.278 6.94957 11.2369 6.95658 11.2027 6.93555C11.1891 6.91451 11.1891 6.89347 11.1891 6.87243C11.1891 6.5218 11.1891 6.17818 11.1891 5.82755C11.1891 5.80651 11.1891 5.78548 11.2027 5.76444C11.2164 5.75041 11.2369 5.75041 11.2574 5.75041C11.278 5.75041 11.2985 5.75041 11.3258 5.75041C16.8451 5.75041 22.3576 5.75041 27.8769 5.75041C27.9179 5.7434 27.9658 5.73639 28 5.76444Z" fill="white"/>
<path d="M28 2.27915C27.9726 2.27915 27.9521 2.27915 27.9248 2.27915C22.3508 2.27915 16.7836 2.27915 11.2096 2.27915C11.1891 2.25812 11.1891 2.23006 11.1891 2.20903C11.1891 1.87242 11.1891 1.5288 11.1891 1.1922C11.1891 1.16415 11.1891 1.1361 11.2096 1.12207C16.7836 1.12207 22.3508 1.12207 27.9248 1.12207C27.9521 1.12207 27.9726 1.12207 28 1.12908C28 1.50776 28 1.89346 28 2.27915Z" fill="white"/>
<path d="M11.2096 6.92847C16.7904 6.92847 22.3713 6.92847 27.959 6.92847C27.9726 6.92847 27.9863 6.92847 28 6.92847C28 7.31416 28 7.69986 28 8.08555C27.9795 8.08555 27.959 8.08555 27.9316 8.08555C22.3781 8.08555 16.8246 8.08555 11.2711 8.08555C11.2506 8.08555 11.2301 8.08555 11.2027 8.08555C11.1822 8.06451 11.1822 8.03646 11.1822 8.00841C11.1822 7.6718 11.1822 7.3352 11.1822 6.99859C11.1891 6.97755 11.1891 6.9495 11.2096 6.92847Z" fill="#B22435"/>
<path d="M28 5.76437C26.9604 5.76437 25.914 5.76437 24.8744 5.76437C20.3195 5.76437 15.7645 5.76437 11.2096 5.76437C11.1891 5.74333 11.1891 5.71528 11.1891 5.69425C11.1891 5.35764 11.1891 5.02103 11.1891 4.68443C11.1891 4.65638 11.1891 4.62833 11.2096 4.6143C11.2301 4.6143 11.2506 4.6143 11.2711 4.6143C16.8246 4.6143 22.3713 4.6143 27.9248 4.6143C27.9521 4.6143 27.9726 4.60729 28 4.62131C28 4.99298 28 5.37868 28 5.76437Z" fill="#B22435"/>
<path d="M11.2096 4.60727C11.2096 4.88076 11.2096 5.15425 11.2096 5.42774C11.2096 5.53995 11.2096 5.65215 11.2096 5.77136C11.2096 6.15706 11.2096 6.54976 11.2096 6.93546C11.2096 7.32115 11.2096 7.70685 11.2096 8.09254C11.1891 8.09254 11.1685 8.09955 11.148 8.09955C7.45482 8.09955 3.76845 8.09955 0.0752406 8.09955C0.0273657 8.09955 0.0136871 8.09254 0.0136871 8.03644C0.0136871 5.37164 0.0136871 2.69983 0.0136871 0.0350374C0.0136871 -0.0210635 0.0273657 -0.0280762 0.0752406 -0.0280762C3.76845 -0.0280762 7.46166 -0.0280762 11.1549 -0.0280762C11.1754 -0.0280762 11.1891 -0.0280762 11.2096 -0.0280762C11.2096 0.357618 11.2096 0.743312 11.2096 1.12901C11.2096 1.5147 11.2096 1.9004 11.2096 2.28609C11.2096 2.67178 11.2096 3.05748 11.2096 3.45018C11.2096 3.82887 11.2096 4.22157 11.2096 4.60727Z" fill="#3D3C6E"/>
<path d="M7.23596 0.792484C7.1744 0.841572 7.10601 0.890661 7.04446 0.932736C6.99658 0.960787 6.9829 0.988837 7.00342 1.05195C7.03762 1.12909 7.0513 1.20623 7.08549 1.30441C7.00342 1.24129 6.92819 1.18519 6.85296 1.12909C6.8256 1.10805 6.81192 1.10805 6.78457 1.12909C6.71617 1.18519 6.64094 1.23428 6.55887 1.29739C6.56571 1.24129 6.58623 1.1922 6.5999 1.14312C6.61358 1.08701 6.65462 1.03091 6.64094 0.981825C6.6341 0.939749 6.55887 0.918711 6.51783 0.883648C6.48364 0.855597 6.4426 0.827547 6.40157 0.785471C6.46996 0.785471 6.54519 0.785471 6.61358 0.785471C6.71617 0.785471 6.71617 0.785471 6.74353 0.687295C6.76405 0.617168 6.78457 0.547042 6.81192 0.462891C6.83928 0.561067 6.87348 0.645219 6.89399 0.72937C6.90767 0.771446 6.92135 0.792484 6.96923 0.785471C7.0513 0.778459 7.14021 0.785471 7.22228 0.785471C7.23596 0.785471 7.23596 0.792484 7.23596 0.792484Z" fill="#FEFEFF"/>
<path d="M5.87494 1.30441C5.79287 1.24129 5.71763 1.18519 5.6424 1.12909C5.61504 1.10805 5.60137 1.10805 5.57401 1.12909C5.50562 1.18519 5.43038 1.24129 5.34147 1.30441C5.37567 1.20623 5.40303 1.11506 5.43038 1.03091C5.44406 0.99585 5.43722 0.974812 5.40303 0.953774C5.33463 0.904686 5.2594 0.848585 5.19101 0.785471C5.27992 0.785471 5.36199 0.785471 5.4509 0.785471C5.49194 0.785471 5.51246 0.778459 5.52613 0.736383C5.54665 0.645219 5.58085 0.561067 5.60821 0.462891C5.6424 0.561067 5.66976 0.645219 5.69712 0.736383C5.70396 0.771446 5.72447 0.785471 5.75867 0.785471C5.84758 0.785471 5.93649 0.785471 6.0254 0.792484C5.95701 0.848585 5.88862 0.904686 5.81338 0.953774C5.77919 0.974812 5.77919 0.99585 5.79287 1.03091C5.82022 1.11506 5.84758 1.20623 5.87494 1.30441Z" fill="#FEFEFF"/>
<path d="M8.02932 0.462891C8.06351 0.56808 8.09087 0.652231 8.11823 0.743395C8.12507 0.778459 8.14558 0.785471 8.17294 0.785471C8.26185 0.785471 8.35076 0.785471 8.44651 0.792484C8.37128 0.848585 8.30289 0.904686 8.22766 0.953774C8.2003 0.974812 8.19346 0.99585 8.20714 1.0239C8.2345 1.10805 8.26185 1.19922 8.29605 1.29739C8.22082 1.24129 8.15242 1.19922 8.09771 1.14312C8.04984 1.10104 8.01564 1.09403 7.96776 1.14312C7.91989 1.1922 7.86517 1.22727 7.8173 1.26233C7.80362 1.26934 7.78994 1.29038 7.76259 1.28337C7.78994 1.19922 7.8173 1.11506 7.84466 1.03091C7.85834 0.99585 7.85834 0.974812 7.82414 0.953774C7.74891 0.904686 7.68051 0.848585 7.61212 0.785471C7.68735 0.785471 7.76259 0.785471 7.83782 0.785471C7.91989 0.785471 7.91989 0.785471 7.94725 0.70132C7.9746 0.624181 8.00196 0.554055 8.02932 0.462891Z" fill="#FEFEFF"/>
<path d="M4.66439 1.30441C4.58232 1.24129 4.51393 1.1922 4.44554 1.14312C4.41134 1.11506 4.38398 1.11506 4.34979 1.14312C4.28139 1.19922 4.213 1.2483 4.13093 1.30441C4.16513 1.20623 4.18564 1.12208 4.21984 1.04494C4.23352 1.00286 4.23352 0.974812 4.19248 0.946762C4.12409 0.897673 4.0557 0.848585 3.9873 0.785471C4.07622 0.785471 4.16513 0.785471 4.25404 0.785471C4.29507 0.785471 4.30875 0.771446 4.31559 0.736383C4.34295 0.645219 4.3703 0.561067 4.39766 0.462891C4.43186 0.561067 4.45921 0.645219 4.48657 0.736383C4.49341 0.771446 4.51393 0.785471 4.54813 0.785471C4.63704 0.778459 4.72595 0.785471 4.81486 0.792484C4.7533 0.841572 4.69175 0.890661 4.6302 0.932736C4.58232 0.967799 4.5618 0.99585 4.58916 1.05896C4.61652 1.12909 4.63704 1.21324 4.66439 1.30441Z" fill="#FFFEFF"/>
<path d="M0.362491 0.785471C0.451402 0.785471 0.540312 0.785471 0.629223 0.785471C0.663419 0.785471 0.677098 0.778459 0.683937 0.743395C0.711294 0.652231 0.738651 0.56808 0.772848 0.462891C0.807044 0.561067 0.834401 0.645219 0.861758 0.736383C0.875437 0.778459 0.889115 0.785471 0.930151 0.785471C1.01906 0.785471 1.10113 0.785471 1.19688 0.799496C1.12849 0.855597 1.0601 0.911698 0.984865 0.960787C0.94383 0.974812 0.94383 0.99585 0.957508 1.03091C0.984865 1.11506 1.00538 1.1922 1.03274 1.27635C1.00538 1.29038 0.991705 1.26934 0.978026 1.25532C0.923312 1.22025 0.868598 1.17818 0.813883 1.1361C0.786526 1.11506 0.766009 1.11506 0.738651 1.1361C0.670259 1.1922 0.595027 1.24129 0.506116 1.30441C0.533473 1.22727 0.553991 1.15714 0.574509 1.09403C0.608705 0.981825 0.608705 0.981825 0.519795 0.911698C0.46508 0.876635 0.410366 0.83456 0.355652 0.792484C0.355652 0.792484 0.355652 0.785471 0.362491 0.785471Z" fill="#FFFEFF"/>
<path d="M2.92721 1.30441C2.96141 1.19922 2.98877 1.11506 3.01612 1.0239C3.0298 0.99585 3.02296 0.974812 2.99561 0.953774C2.92037 0.904686 2.84514 0.848585 2.77675 0.785471C2.86566 0.785471 2.95457 0.785471 3.04348 0.785471C3.08452 0.785471 3.09819 0.771446 3.11187 0.736383C3.13239 0.645219 3.15975 0.561067 3.19394 0.462891C3.2213 0.561067 3.2555 0.645219 3.27602 0.72937C3.28969 0.771446 3.30337 0.785471 3.35125 0.785471C3.43332 0.778459 3.52223 0.785471 3.62482 0.785471C3.5701 0.827547 3.52223 0.86261 3.47435 0.897673C3.44016 0.925724 3.37861 0.946762 3.36493 0.988837C3.35125 1.0239 3.38544 1.08 3.39912 1.12208C3.4128 1.16415 3.42648 1.20623 3.44016 1.2483C3.44016 1.25532 3.447 1.26934 3.44016 1.27635C3.43332 1.29038 3.41964 1.27635 3.4128 1.26934C3.35125 1.22727 3.28969 1.18519 3.23498 1.1361C3.20078 1.10805 3.18027 1.11506 3.15291 1.1361C3.08452 1.1922 3.00928 1.24129 2.92721 1.30441Z" fill="#FEFEFF"/>
<path d="M10.8608 0.792416C10.7924 0.841505 10.724 0.897606 10.6556 0.946694C10.6146 0.974745 10.6077 0.995783 10.6282 1.04487C10.6556 1.12902 10.683 1.20616 10.7103 1.30434C10.6214 1.24122 10.553 1.18512 10.4778 1.12902C10.4504 1.10798 10.4299 1.10798 10.4094 1.12902C10.3547 1.1711 10.2931 1.21317 10.2384 1.25525C10.2247 1.26927 10.211 1.2833 10.1837 1.27629C10.211 1.18512 10.2384 1.09396 10.2726 1.00981C10.2794 0.981757 10.2726 0.974745 10.2521 0.960719C10.1768 0.904618 10.1016 0.848517 10.0264 0.778391C10.0948 0.778391 10.1632 0.778391 10.2316 0.778391C10.341 0.778391 10.341 0.778391 10.3752 0.666189C10.3957 0.603076 10.4162 0.532949 10.4436 0.455811C10.4778 0.561 10.5051 0.645151 10.5325 0.729303C10.5393 0.764366 10.5598 0.778391 10.594 0.778391C10.683 0.778391 10.7719 0.778391 10.8608 0.778391C10.8608 0.785404 10.8608 0.792416 10.8608 0.792416Z" fill="#FEFEFF"/>
<path d="M2.40058 0.792484C2.33219 0.848585 2.2638 0.904686 2.18857 0.953774C2.16121 0.974812 2.14753 0.99585 2.16121 1.03091C2.18857 1.11506 2.21592 1.20623 2.25012 1.30441C2.16805 1.24129 2.09966 1.19922 2.0381 1.14312C1.99707 1.10805 1.96971 1.11506 1.93551 1.14312C1.86712 1.19922 1.79873 1.24129 1.7235 1.30441C1.75085 1.20623 1.77821 1.11506 1.80557 1.03091C1.81925 0.99585 1.81241 0.981825 1.78505 0.960787C1.70982 0.904686 1.64142 0.848585 1.56619 0.785471C1.64142 0.785471 1.71666 0.785471 1.79189 0.785471C1.8808 0.785471 1.8808 0.785471 1.90816 0.694307C1.92867 0.624181 1.95603 0.547042 1.98339 0.462891C2.01075 0.561067 2.04494 0.638206 2.06546 0.722358C2.07914 0.778459 2.1065 0.785471 2.15437 0.785471C2.23644 0.778459 2.31851 0.785471 2.40058 0.785471V0.792484Z" fill="#FEFEFF"/>
<path d="M8.97314 1.29038C9.0005 1.20623 9.02786 1.11506 9.05521 1.03091C9.06889 0.99585 9.06205 0.974812 9.0347 0.953774C8.95946 0.904686 8.89107 0.848585 8.82268 0.785471C8.89107 0.785471 8.95262 0.785471 9.02102 0.785471C9.13728 0.785471 9.13728 0.785471 9.17832 0.673269C9.19884 0.610156 9.21936 0.547042 9.24671 0.462891C9.28091 0.561067 9.30827 0.645219 9.33562 0.736383C9.3493 0.771446 9.36298 0.785471 9.39718 0.785471C9.48609 0.785471 9.575 0.785471 9.66391 0.792484C9.59552 0.848585 9.52028 0.897673 9.45189 0.953774C9.41769 0.974812 9.41086 0.99585 9.42453 1.03091C9.45189 1.11506 9.47925 1.19922 9.49293 1.29038C9.42453 1.24129 9.35614 1.1922 9.28775 1.1361C9.26039 1.11506 9.23987 1.10805 9.20568 1.1361C9.13728 1.1922 9.06889 1.24129 8.99366 1.29739C8.97998 1.29038 8.97998 1.29038 8.97314 1.29038Z" fill="#FEFEFF"/>
<path d="M7.80362 6.98449C7.72838 7.04059 7.65999 7.09669 7.58476 7.14578C7.5574 7.16682 7.5574 7.18084 7.56424 7.20889C7.5916 7.29304 7.61895 7.38421 7.65315 7.4894C7.56424 7.42628 7.48901 7.37018 7.42062 7.31408C7.39326 7.29304 7.37958 7.29304 7.35222 7.31408C7.27699 7.37018 7.20176 7.42628 7.11969 7.4894C7.14704 7.39122 7.1744 7.30707 7.20176 7.22993C7.22228 7.18084 7.2086 7.15279 7.16756 7.12474C7.09917 7.07565 7.03078 7.02656 6.96922 6.96345C7.05813 6.96345 7.14021 6.96345 7.22912 6.96345C7.27015 6.96345 7.29067 6.94942 7.29751 6.90735C7.32487 6.8232 7.35222 6.73905 7.37958 6.64087C7.41378 6.73905 7.44113 6.83021 7.46849 6.92137C7.47533 6.95644 7.48901 6.96345 7.5232 6.96345C7.61212 6.96345 7.70103 6.96345 7.79678 6.96345C7.80361 6.97748 7.80362 6.98449 7.80362 6.98449Z" fill="white"/>
<path d="M4.19249 6.97761C4.10358 7.04072 4.02834 7.09682 3.95311 7.15293C3.92575 7.17396 3.92575 7.18799 3.93259 7.21604C3.95995 7.3072 3.98731 7.39837 4.0215 7.49654C3.93943 7.43343 3.8642 7.37733 3.78897 7.32123C3.76161 7.30019 3.74793 7.30019 3.72058 7.32123C3.64534 7.37733 3.57695 7.43343 3.48804 7.49654C3.52224 7.39837 3.54276 7.3072 3.57695 7.22305C3.59063 7.18799 3.58379 7.16695 3.54959 7.1389C3.47436 7.08981 3.40597 7.03371 3.3239 6.9706C3.40597 6.9706 3.47436 6.9706 3.54959 6.9706C3.65902 6.9706 3.65902 6.9706 3.69322 6.86541C3.71374 6.79528 3.73425 6.73217 3.76161 6.65503C3.78897 6.74619 3.82317 6.81632 3.83684 6.90047C3.85052 6.96358 3.87788 6.98462 3.93943 6.97761C4.01467 6.9706 4.09674 6.97761 4.19249 6.97761Z" fill="white"/>
<path d="M8.3234 7.49654C8.3576 7.39135 8.38496 7.3072 8.41231 7.21604C8.42599 7.18098 8.41915 7.15994 8.38496 7.14591C8.30972 7.09682 8.24133 7.04072 8.15242 6.97761C8.25501 6.97761 8.34392 6.97761 8.43283 6.97761C8.47387 6.97761 8.49438 6.96358 8.50122 6.92151C8.52174 6.83736 8.55594 6.75321 8.58329 6.65503C8.61749 6.76022 8.64485 6.84437 8.67221 6.93553C8.67904 6.96359 8.69272 6.97761 8.72692 6.97761C8.81583 6.97761 8.91158 6.97761 9.01417 6.97761C8.9321 7.04072 8.85687 7.09682 8.78163 7.14591C8.74744 7.16695 8.74744 7.18799 8.76112 7.22305C8.78847 7.3072 8.81583 7.39837 8.85003 7.49654C8.76795 7.43343 8.69956 7.39135 8.63117 7.33525C8.59013 7.30019 8.56962 7.3072 8.52858 7.33525C8.47387 7.39135 8.40547 7.44044 8.3234 7.49654Z" fill="white"/>
<path d="M1.7577 6.98456C1.68247 7.04066 1.61408 7.09676 1.53885 7.14585C1.51149 7.16688 1.50465 7.18091 1.51833 7.21597C1.54569 7.30012 1.57304 7.38428 1.59356 7.48245C1.52517 7.42635 1.44994 7.37726 1.38154 7.32116C1.35419 7.30012 1.34051 7.30012 1.31315 7.32116C1.23792 7.37726 1.16953 7.43336 1.08062 7.49648C1.10797 7.3983 1.13533 7.32116 1.16269 7.23701C1.18321 7.18792 1.16953 7.15987 1.12849 7.13182C1.0601 7.08273 0.991705 7.03364 0.916473 6.97053C1.01222 6.97053 1.09429 6.96352 1.17637 6.97053C1.23108 6.97053 1.25844 6.96352 1.27212 6.9004C1.29263 6.81625 1.31999 6.73911 1.35419 6.64795C1.38838 6.74613 1.41574 6.83729 1.4431 6.92845C1.44994 6.95651 1.46362 6.97053 1.49781 6.97053C1.57304 6.97053 1.65512 6.97053 1.73035 6.97053C1.73035 6.97754 1.75087 6.97053 1.7577 6.98456Z" fill="white"/>
<path d="M4.19249 4.50202C4.10358 4.56514 4.03518 4.62124 3.95995 4.67033C3.93259 4.69136 3.92575 4.70539 3.93943 4.74045C3.97363 4.83162 3.99415 4.92278 4.02834 5.02096C3.93943 4.95784 3.8642 4.90174 3.78897 4.83863C3.76845 4.8246 3.75477 4.8246 3.73425 4.83863C3.65902 4.90174 3.58379 4.95083 3.49488 5.02096C3.52224 4.93681 3.54276 4.87369 3.56327 4.80357C3.59063 4.69838 3.59063 4.69838 3.50856 4.63526C3.44701 4.59319 3.39229 4.55111 3.3239 4.50202C3.42649 4.50202 3.5154 4.50202 3.60431 4.50202C3.6385 4.50202 3.65902 4.49501 3.6727 4.45294C3.70006 4.36878 3.72742 4.27762 3.75477 4.17944C3.78213 4.26359 3.80265 4.32671 3.82317 4.39683C3.85736 4.50202 3.85736 4.50202 3.95995 4.50202C4.03518 4.50202 4.10358 4.50202 4.19249 4.50202Z" fill="white"/>
<path d="M4.96531 6.65503C4.99951 6.75321 5.02687 6.83736 5.04738 6.92852C5.06106 6.96358 5.08158 6.97761 5.12262 6.97761C5.21153 6.9706 5.2936 6.97761 5.39619 6.97761C5.30728 7.04072 5.23888 7.09682 5.16365 7.15293C5.1363 7.17396 5.12946 7.195 5.14313 7.22305C5.17049 7.3072 5.19785 7.39837 5.23205 7.49654C5.14997 7.44044 5.08158 7.39135 5.02003 7.33525C4.97899 7.30019 4.95163 7.30019 4.91744 7.33525C4.85589 7.39135 4.78065 7.43343 4.70542 7.49654C4.73278 7.39837 4.76014 7.3072 4.78749 7.22305C4.80117 7.18799 4.79433 7.16695 4.76014 7.1389C4.6849 7.08981 4.61651 7.03371 4.53444 6.9706C4.64387 6.9706 4.73278 6.9706 4.82853 6.9706C4.86272 6.9706 4.86956 6.96358 4.88324 6.92852C4.90376 6.84437 4.93796 6.75321 4.96531 6.65503Z" fill="white"/>
<path d="M7.80362 4.50915C7.72839 4.56525 7.66 4.62135 7.58476 4.67044C7.55741 4.69147 7.55057 4.7055 7.56425 4.73355C7.5916 4.82471 7.61896 4.91588 7.65316 5.01405C7.56425 4.95094 7.48901 4.89484 7.42062 4.83874C7.4001 4.8177 7.37959 4.8177 7.35907 4.83874C7.28384 4.89484 7.21544 4.95094 7.12653 5.00704C7.14021 4.9299 7.16073 4.8738 7.18125 4.81069C7.22228 4.69147 7.22228 4.69147 7.11969 4.61434C7.07182 4.57927 7.0171 4.5372 6.95555 4.48811C7.06498 4.48811 7.15389 4.48811 7.2428 4.48811C7.277 4.48811 7.29068 4.4811 7.29752 4.44603C7.32487 4.35487 7.35223 4.27072 7.38643 4.16553C7.42062 4.2637 7.44798 4.34786 7.4685 4.43201C7.48218 4.47408 7.50269 4.48811 7.54373 4.48811C7.6258 4.4811 7.71471 4.48811 7.79678 4.48811C7.80362 4.50213 7.80362 4.50915 7.80362 4.50915Z" fill="white"/>
<path d="M5.23205 5.02096C5.14997 4.95784 5.08158 4.91577 5.02003 4.85967C4.97899 4.8246 4.95163 4.83162 4.9106 4.85967C4.84905 4.91577 4.77381 4.95784 4.69858 5.02096C4.73278 4.91577 4.76014 4.8246 4.78749 4.74045C4.80117 4.70539 4.79433 4.69136 4.76697 4.67033C4.69174 4.62124 4.62335 4.56514 4.53444 4.50202C4.64387 4.50202 4.73278 4.50202 4.82169 4.50202C4.85589 4.50202 4.86272 4.49501 4.8764 4.45995C4.90376 4.36878 4.93112 4.27762 4.96531 4.17944C4.99951 4.27762 5.02687 4.36177 5.05422 4.44592C5.06106 4.488 5.08158 4.50202 5.12262 4.50202C5.21153 4.49501 5.2936 4.50202 5.39619 4.50202C5.31412 4.56514 5.23888 4.62124 5.17049 4.67033C5.14313 4.69136 5.1363 4.70539 5.14997 4.74045C5.17733 4.8246 5.20469 4.91577 5.23205 5.02096Z" fill="white"/>
<path d="M3.76161 1.7041C3.79581 1.80228 3.82317 1.88643 3.85052 1.97759C3.8642 2.01967 3.87788 2.02668 3.91892 2.02668C4.00783 2.02668 4.09674 2.02668 4.19933 2.02668C4.11042 2.08278 4.03518 2.13888 3.95995 2.19499C3.93259 2.21602 3.92575 2.23005 3.93943 2.27212C3.96679 2.35628 3.99415 2.44043 4.02834 2.54562C3.93943 2.4825 3.8642 2.4264 3.79581 2.3703C3.76845 2.34926 3.74793 2.34926 3.72058 2.3703C3.65218 2.4264 3.57695 2.47549 3.49488 2.5386C3.52224 2.45445 3.53592 2.3703 3.57011 2.30017C3.59747 2.23706 3.58379 2.202 3.52908 2.16693C3.46068 2.13187 3.40597 2.08278 3.3239 2.01967C3.40597 2.01967 3.47436 2.01967 3.54275 2.01967C3.65218 2.01967 3.65218 2.01967 3.68638 1.91448C3.7069 1.85137 3.72742 1.78825 3.74793 1.73215C3.74793 1.72514 3.75477 1.71813 3.76161 1.7041Z" fill="white"/>
<path d="M8.59698 4.1936C8.62433 4.27775 8.65169 4.36191 8.67905 4.45307C8.69273 4.48813 8.7064 4.50216 8.7406 4.50216C8.82951 4.50216 8.91842 4.50216 9.02101 4.50216C8.9321 4.56527 8.86371 4.62137 8.78848 4.67747C8.76112 4.69851 8.76112 4.71254 8.76796 4.74059C8.79532 4.83175 8.82267 4.92292 8.85687 5.02109C8.76796 4.95798 8.69273 4.90188 8.61749 4.84578C8.59698 4.82474 8.5833 4.83175 8.55594 4.84578C8.48071 4.90188 8.40548 4.95798 8.31657 5.02109C8.34392 4.92292 8.37128 4.83876 8.39864 4.75461C8.41232 4.71254 8.41232 4.6915 8.37128 4.67046C8.29605 4.62137 8.22766 4.56527 8.14558 4.50216C8.25501 4.50216 8.34392 4.50216 8.43283 4.50216C8.46703 4.50216 8.48071 4.49515 8.48755 4.46008C8.51491 4.36892 8.54226 4.28477 8.56962 4.1936C8.59014 4.1936 8.59698 4.1936 8.59698 4.1936Z" fill="white"/>
<path d="M1.07376 5.02089C1.10796 4.92271 1.12848 4.83856 1.15584 4.75441C1.16951 4.71234 1.16951 4.68428 1.12848 4.65623C1.06009 4.60715 0.991694 4.55806 0.909622 4.49494C1.01221 4.49494 1.10112 4.49494 1.18319 4.49494C1.23107 4.49494 1.24475 4.48092 1.25843 4.43884C1.27894 4.35469 1.31314 4.27054 1.3405 4.17236C1.37469 4.27755 1.40205 4.3617 1.42941 4.44586C1.43625 4.48793 1.44993 4.50196 1.49096 4.50196C1.57987 4.49494 1.66194 4.50196 1.75769 4.50897C1.69614 4.55806 1.62775 4.60715 1.55935 4.65623C1.51832 4.68428 1.50464 4.71234 1.52516 4.76142C1.55251 4.83856 1.57303 4.9157 1.59355 5.00687C1.52516 4.95076 1.44993 4.90168 1.38153 4.84558C1.35418 4.82454 1.33366 4.82454 1.3063 4.84558C1.23107 4.90168 1.16268 4.95778 1.07376 5.02089Z" fill="white"/>
<path d="M2.96825 6.98449C2.89302 7.04059 2.82462 7.09669 2.74939 7.14578C2.72203 7.16682 2.72203 7.18084 2.72887 7.20889C2.75623 7.30006 2.78359 7.39122 2.81778 7.4894C2.73571 7.42628 2.66048 7.37018 2.58525 7.31408C2.55789 7.29304 2.54421 7.29304 2.51686 7.31408C2.44162 7.37018 2.36639 7.42628 2.28432 7.4894C2.31852 7.39122 2.34587 7.30006 2.37323 7.20889C2.38691 7.17383 2.38007 7.1598 2.35271 7.13877C2.27748 7.08266 2.20909 7.03358 2.12018 6.96345C2.22277 6.96345 2.30484 6.95644 2.38691 6.96345C2.44162 6.97046 2.46214 6.94241 2.46898 6.90034C2.4895 6.81618 2.51686 6.73905 2.55105 6.64087C2.58525 6.74606 2.61261 6.83021 2.63996 6.91436C2.65364 6.94942 2.66732 6.96345 2.70152 6.96345C2.79043 6.96345 2.87934 6.96345 2.96825 6.96345C2.96825 6.97748 2.96825 6.98449 2.96825 6.98449Z" fill="white"/>
<path d="M5.90914 7.49637C5.9365 7.4052 5.95701 7.32806 5.99121 7.25093C6.01857 7.18781 5.99805 7.15976 5.95017 7.1247C5.88178 7.08262 5.82023 7.03353 5.745 6.97743C5.84074 6.97743 5.92282 6.97743 6.00489 6.97743C6.05276 6.97743 6.08012 6.97042 6.0938 6.91432C6.11432 6.83017 6.14167 6.75303 6.17587 6.66187C6.21007 6.76004 6.23742 6.84419 6.25794 6.92834C6.27162 6.97042 6.2853 6.98445 6.32633 6.97743C6.41524 6.97743 6.49732 6.97743 6.5999 6.97743C6.51783 7.04055 6.44944 7.09665 6.37421 7.14574C6.34001 7.16677 6.33317 7.19482 6.34685 7.22989C6.37421 7.293 6.38789 7.36313 6.40841 7.43325C6.41524 7.44728 6.42208 7.4613 6.40841 7.48234C6.33317 7.42624 6.26478 7.37715 6.18955 7.32105C6.16219 7.30001 6.14851 7.30001 6.12116 7.32105C6.07328 7.37715 5.99805 7.43325 5.90914 7.49637Z" fill="white"/>
<path d="M10.2179 6.98462C10.1427 7.04072 10.0743 7.09682 9.99903 7.14591C9.97167 7.16695 9.96483 7.18098 9.97851 7.20903C10.0127 7.30019 10.0332 7.39136 10.0674 7.48953C9.97851 7.42642 9.90328 7.37032 9.83488 7.31422C9.80753 7.29318 9.79385 7.29318 9.76649 7.31422C9.69126 7.37032 9.61603 7.42642 9.53395 7.48953C9.56815 7.38434 9.59551 7.29318 9.62287 7.20903C9.63654 7.18098 9.6297 7.15994 9.60235 7.14591C9.52712 7.08981 9.45188 7.03371 9.36981 6.9706C9.45872 6.9706 9.53395 6.9706 9.60235 6.9706C9.6981 6.9706 9.6981 6.9706 9.73229 6.87242C9.75281 6.80931 9.77333 6.73918 9.79385 6.67607C9.79385 6.66906 9.80069 6.66905 9.80753 6.65503C9.83488 6.73918 9.86908 6.81632 9.88276 6.90047C9.89644 6.96358 9.92379 6.97761 9.97851 6.9706C10.0606 6.96358 10.1358 6.9706 10.2179 6.9706C10.2179 6.97761 10.2179 6.98462 10.2179 6.98462Z" fill="white"/>
<path d="M7.65316 2.54548C7.56425 2.48237 7.49585 2.42627 7.42062 2.37017C7.39327 2.34913 7.37959 2.34913 7.35223 2.37017C7.28384 2.42627 7.2086 2.47536 7.12653 2.52444C7.15389 2.4473 7.16757 2.36315 7.20176 2.28601C7.22228 2.22991 7.2086 2.20186 7.16757 2.17381C7.09918 2.13174 7.03762 2.07564 6.95555 2.01953C7.05814 2.01953 7.14021 2.01953 7.22912 2.01953C7.277 2.01953 7.29752 2.00551 7.30435 1.95642C7.32487 1.87227 7.35907 1.78812 7.38643 1.68994C7.42062 1.78812 7.44798 1.87227 7.4685 1.95642C7.48218 1.9985 7.49585 2.01252 7.53689 2.01252C7.6258 2.00551 7.70787 2.01252 7.81046 2.01252C7.72839 2.07564 7.65316 2.13174 7.57793 2.18082C7.55057 2.20186 7.54373 2.21589 7.55741 2.25095C7.5916 2.34913 7.61896 2.44029 7.65316 2.54548Z" fill="white"/>
<path d="M2.12018 4.50202C2.22277 4.50202 2.31852 4.50202 2.40743 4.50202C2.44162 4.50202 2.4553 4.488 2.46898 4.45294C2.4895 4.36878 2.51686 4.27762 2.55105 4.17944C2.58525 4.28463 2.61261 4.36878 2.63996 4.45995C2.6468 4.488 2.66048 4.50202 2.69468 4.50202C2.78359 4.50202 2.87934 4.50202 2.98193 4.50202C2.92037 4.5441 2.8725 4.57916 2.82462 4.61423C2.7152 4.69838 2.7152 4.69838 2.75623 4.83162C2.77675 4.88772 2.79043 4.95083 2.81778 5.02096C2.73571 4.95784 2.66048 4.90174 2.58525 4.84564C2.55789 4.8246 2.53737 4.8246 2.51002 4.84564C2.4553 4.89473 2.39375 4.93681 2.3322 4.9859C2.31852 4.99291 2.31168 5.00693 2.29116 4.99992C2.31852 4.91577 2.34587 4.83162 2.37323 4.74747C2.38691 4.7124 2.38007 4.69136 2.34587 4.66331C2.27064 4.61423 2.20225 4.55813 2.12018 4.50202Z" fill="white"/>
<path d="M9.02786 2.01956C8.94578 2.08267 8.87739 2.13877 8.80216 2.18786C8.76796 2.2089 8.76112 2.22994 8.7748 2.27201C8.809 2.35617 8.82952 2.44733 8.86371 2.53849C8.78164 2.47538 8.70641 2.42629 8.63802 2.37019C8.61066 2.34915 8.59014 2.34915 8.56279 2.37019C8.49439 2.42629 8.41916 2.48239 8.33025 2.54551C8.36445 2.44733 8.38496 2.35617 8.41916 2.27201C8.43284 2.23695 8.426 2.21591 8.3918 2.19488C8.31657 2.14579 8.24818 2.08969 8.16611 2.02657C8.27554 2.02657 8.36445 2.02657 8.45336 2.02657C8.48755 2.02657 8.49439 2.01956 8.50807 1.9845C8.53543 1.89333 8.56279 1.80918 8.59014 1.71802C8.61066 1.73204 8.61066 1.75308 8.6175 1.77412C8.63802 1.84424 8.66537 1.91437 8.68589 1.9845C8.69273 2.01255 8.70641 2.02657 8.74061 2.02657C8.82952 2.01956 8.91843 2.01956 9.02786 2.01956Z" fill="white"/>
<path d="M10.0674 5.02096C9.97851 4.95784 9.90328 4.90174 9.82805 4.84564C9.80753 4.8246 9.78701 4.83162 9.76649 4.84564C9.69126 4.90174 9.61603 4.95784 9.52712 5.02096C9.56132 4.92278 9.58183 4.83162 9.61603 4.74747C9.62971 4.7124 9.62287 4.69136 9.58867 4.67033C9.51344 4.62124 9.44505 4.56514 9.36298 4.50202C9.4724 4.50202 9.56132 4.50202 9.65023 4.50202C9.68442 4.50202 9.6981 4.488 9.70494 4.45995C9.7323 4.36878 9.75965 4.28463 9.79385 4.17944C9.82805 4.27762 9.8554 4.36878 9.88276 4.45294C9.8896 4.488 9.91012 4.49501 9.94431 4.49501C10.0332 4.49501 10.1221 4.49501 10.2179 4.50202C10.1495 4.55813 10.0743 4.60721 10.0059 4.66331C9.97167 4.68435 9.96483 4.70539 9.97851 4.74747C10.0127 4.83162 10.0401 4.91577 10.0674 5.02096Z" fill="white"/>
<path d="M4.53444 2.0196C4.63703 2.0196 4.72594 2.0196 4.81485 2.0196C4.84905 2.0196 4.86956 2.01259 4.8764 1.97051C4.90376 1.87935 4.93112 1.7952 4.96531 1.69702C4.99951 1.80221 5.02687 1.88636 5.05422 1.97753C5.06106 2.00558 5.07474 2.0196 5.10894 2.0196C5.19785 2.0196 5.2936 2.0196 5.39619 2.0196C5.33463 2.0757 5.27308 2.11778 5.21837 2.15985C5.12946 2.22297 5.12946 2.22297 5.16365 2.32816C5.18417 2.39828 5.20469 2.4614 5.23205 2.54555C5.14997 2.48244 5.07474 2.42633 5.00635 2.37023C4.97899 2.3492 4.96531 2.3492 4.93796 2.37023C4.8764 2.41932 4.81485 2.4614 4.7533 2.51049C4.73278 2.5175 4.72594 2.53152 4.70542 2.52451C4.73278 2.43335 4.76014 2.3492 4.78749 2.25803C4.79433 2.22998 4.79433 2.21596 4.76697 2.19492C4.69174 2.14583 4.62335 2.08973 4.53444 2.0196Z" fill="white"/>
<path d="M1.59355 2.53152C1.52516 2.48244 1.44993 2.42633 1.38153 2.37023C1.34734 2.34218 1.33366 2.3492 1.29946 2.37023C1.23107 2.42633 1.15584 2.48244 1.07376 2.54555C1.10796 2.44036 1.12848 2.35621 1.16268 2.26504C1.17635 2.22998 1.16951 2.20894 1.14216 2.19492C1.06693 2.13882 0.998533 2.08973 0.909622 2.0196C1.00537 2.0196 1.09428 2.0196 1.17635 2.0196C1.22423 2.0196 1.24475 2.00558 1.25843 1.95649C1.27894 1.87234 1.31314 1.78819 1.3405 1.69702C1.37469 1.7952 1.40205 1.88636 1.42941 1.97753C1.43625 2.01259 1.44993 2.02661 1.48412 2.02661C1.57303 2.02661 1.66194 2.02661 1.77137 2.02661C1.6893 2.08973 1.61407 2.14583 1.53884 2.19492C1.51832 2.21596 1.50464 2.22998 1.51832 2.26504C1.55251 2.3492 1.57303 2.43335 1.60039 2.52451C1.60039 2.52451 1.59355 2.52451 1.59355 2.53152Z" fill="white"/>
<path d="M6.43576 2.5386C6.34685 2.47549 6.27846 2.41939 6.20323 2.36329C6.18271 2.34225 6.16219 2.34926 6.14167 2.36329C6.07328 2.4264 5.99805 2.47549 5.90914 2.54562C5.9365 2.45445 5.96385 2.3703 5.99121 2.29316C6.01173 2.24407 6.00489 2.21602 5.95701 2.18096C5.88862 2.13888 5.82707 2.08278 5.745 2.01967C5.82023 2.01967 5.88178 2.01967 5.94333 2.01967C6.07328 2.01967 6.07328 2.01967 6.11432 1.89344C6.13483 1.83033 6.15535 1.77423 6.17587 1.7041C6.21007 1.77423 6.22374 1.83734 6.24426 1.90747C6.27846 2.01967 6.27846 2.01967 6.39473 2.01967C6.45628 2.01967 6.51783 2.01967 6.57939 2.01967C6.58623 2.01967 6.58623 2.01967 6.5999 2.01967C6.53151 2.06876 6.46996 2.11785 6.40841 2.15992C6.34001 2.22304 6.34001 2.22304 6.36737 2.30719C6.38789 2.37731 6.42208 2.44744 6.43576 2.5386Z" fill="white"/>
<path d="M6.42208 5.00693C6.36053 4.95784 6.29214 4.91577 6.23058 4.85967C6.18955 4.8246 6.16219 4.8246 6.12116 4.85967C6.0596 4.91577 5.98437 4.95784 5.90914 5.02096C5.94333 4.92278 5.96385 4.83162 5.99805 4.74747C6.01173 4.7124 6.00489 4.69136 5.97753 4.67033C5.9023 4.62124 5.82707 4.56514 5.745 4.50202C5.83391 4.50202 5.91598 4.50202 5.99121 4.50202C6.08012 4.50202 6.08012 4.50202 6.10748 4.41787C6.128 4.34073 6.15535 4.27061 6.18271 4.17944C6.20323 4.26359 6.23058 4.34073 6.2511 4.41787C6.26478 4.48099 6.29214 4.50904 6.36053 4.50202C6.43576 4.49501 6.51783 4.50202 6.61358 4.50202C6.52467 4.55813 6.46312 4.61423 6.38789 4.66331C6.35369 4.68435 6.34001 4.7124 6.36053 4.75448C6.38789 4.83162 6.40841 4.91577 6.43576 4.99291C6.42892 4.99992 6.42892 4.99992 6.42208 5.00693Z" fill="white"/>
<path d="M10.2179 2.03363C10.1495 2.08272 10.0879 2.1318 10.0195 2.18089C9.97851 2.20894 9.96483 2.23699 9.98535 2.28608C10.0127 2.36322 10.0332 2.44036 10.0537 2.53152C9.98535 2.47542 9.91012 2.42633 9.84172 2.37023C9.81437 2.3492 9.79385 2.3492 9.76649 2.37023C9.6981 2.42633 9.62287 2.48244 9.53395 2.54555C9.56815 2.44737 9.58867 2.35621 9.62287 2.26504C9.63654 2.22998 9.6297 2.21596 9.60235 2.19492C9.52712 2.14583 9.45872 2.08973 9.36981 2.0196C9.47924 2.0196 9.56815 2.0196 9.65706 2.0196C9.69126 2.0196 9.70494 2.01259 9.71178 1.97753C9.73913 1.88636 9.76649 1.80221 9.80069 1.69702C9.83488 1.7952 9.86224 1.88636 9.8896 1.97051C9.89644 2.00558 9.91695 2.0196 9.95115 2.01259C10.0401 2.01259 10.129 2.01259 10.2179 2.01259C10.2179 2.02661 10.2179 2.02661 10.2179 2.03363Z" fill="white"/>
<path d="M2.98193 2.01967C2.89986 2.0898 2.82462 2.1459 2.74939 2.19499C2.72203 2.21602 2.7152 2.23005 2.72887 2.26511C2.75623 2.34926 2.78359 2.44043 2.81778 2.54562C2.73571 2.4825 2.66048 2.4264 2.58525 2.3703C2.55789 2.34926 2.53737 2.34926 2.51002 2.3703C2.4553 2.41939 2.39375 2.46146 2.3322 2.50354C2.31852 2.51757 2.31168 2.53159 2.29116 2.52458C2.31852 2.44043 2.33904 2.35628 2.37323 2.27914C2.39375 2.23005 2.38007 2.20901 2.33904 2.18797C2.27064 2.13888 2.20225 2.0898 2.12018 2.02668C2.22961 2.02668 2.31852 2.02668 2.40743 2.02668C2.44162 2.02668 2.44846 2.01266 2.46214 1.98461C2.4895 1.89344 2.51686 1.80228 2.55105 1.7041C2.58525 1.80929 2.61261 1.90045 2.63996 1.98461C2.6468 2.01266 2.66048 2.02668 2.69468 2.02668C2.78359 2.01967 2.8725 2.01967 2.98193 2.01967Z" fill="white"/>
<path d="M1.0259 6.24814C0.957505 6.19204 0.889112 6.14295 0.820719 6.09387C0.786523 6.06582 0.766005 6.0588 0.724969 6.09387C0.656577 6.14997 0.588184 6.19906 0.512952 6.25516C0.519791 6.18503 0.547148 6.13594 0.560827 6.08685C0.608702 5.93959 0.608702 5.93959 0.485595 5.84842C0.444559 5.81336 0.403523 5.7783 0.362488 5.73622C0.430881 5.73622 0.506113 5.73622 0.574505 5.73622C0.677095 5.73622 0.670255 5.73622 0.704452 5.63805C0.724969 5.56792 0.745487 5.49779 0.772844 5.42065C0.800202 5.48377 0.81388 5.53987 0.834398 5.60298C0.875434 5.73622 0.875434 5.73622 1.01222 5.73622C1.07377 5.73622 1.12849 5.73622 1.19004 5.73622C1.19004 5.74324 1.19004 5.74323 1.19004 5.75025C1.12165 5.80635 1.04642 5.85544 0.971183 5.91154C0.943826 5.93258 0.936987 5.9466 0.950666 5.98166C0.978023 6.05179 0.991701 6.12192 1.01906 6.18503C1.0259 6.20607 1.03274 6.22009 1.0259 6.24814Z" fill="white"/>
<path d="M10.4436 5.41382C10.4778 5.51901 10.5051 5.61017 10.5325 5.69432C10.5393 5.72237 10.553 5.7364 10.5872 5.7364C10.6761 5.7364 10.765 5.7364 10.8745 5.7364C10.7924 5.79951 10.7308 5.8486 10.6624 5.89769C10.6146 5.92574 10.6077 5.9608 10.6282 6.00989C10.6556 6.08703 10.683 6.16417 10.7103 6.26235C10.6282 6.19923 10.553 6.15014 10.4846 6.09404C10.4573 6.073 10.4367 6.06599 10.4025 6.09404C10.3478 6.14313 10.2863 6.18521 10.2247 6.22728C10.211 6.2343 10.1974 6.25533 10.1768 6.25533C10.2042 6.17118 10.2247 6.08703 10.2589 6.00288C10.2794 5.95379 10.2658 5.93275 10.2247 5.9047C10.1563 5.85561 10.0879 5.80653 10.0264 5.74341C10.1085 5.74341 10.1905 5.7364 10.2658 5.74341C10.3205 5.75042 10.3478 5.72237 10.3615 5.67329C10.3889 5.58913 10.4162 5.512 10.4436 5.41382Z" fill="white"/>
<path d="M6.81876 5.41382C6.85296 5.512 6.88032 5.60316 6.90767 5.69432C6.91451 5.72939 6.93503 5.7364 6.96239 5.7364C7.0513 5.7364 7.14021 5.7364 7.23596 5.75042C7.16756 5.80653 7.09233 5.85561 7.02394 5.91171C6.99658 5.93275 6.98974 5.94678 6.99658 5.98184C7.02394 6.06599 7.0513 6.15716 7.08549 6.26235C7.00342 6.19923 6.92819 6.15014 6.85296 6.09404C6.8256 6.073 6.80508 6.073 6.77773 6.09404C6.70933 6.14313 6.6341 6.19222 6.55203 6.25533C6.58623 6.15014 6.60674 6.06599 6.64094 5.98184C6.65462 5.94678 6.64778 5.92574 6.61358 5.9047C6.54519 5.85561 6.46996 5.79951 6.40157 5.7364C6.46312 5.7364 6.52467 5.7364 6.57939 5.7364C6.71617 5.7364 6.70933 5.7364 6.75037 5.60316C6.77773 5.54706 6.7914 5.49096 6.81876 5.41382Z" fill="white"/>
<path d="M3.9873 5.7364C4.06938 5.7364 4.15829 5.7364 4.24036 5.7364C4.28823 5.7364 4.30875 5.72237 4.32243 5.67329C4.34295 5.58913 4.3703 5.50498 4.4045 5.41382C4.4387 5.512 4.46605 5.60316 4.49341 5.68731C4.50025 5.72939 4.51393 5.7364 4.54813 5.7364C4.63704 5.7364 4.72595 5.7364 4.83538 5.7364C4.74646 5.79951 4.67807 5.85561 4.60968 5.9047C4.57548 5.92574 4.56864 5.94678 4.58232 5.98885C4.60968 6.07301 4.63704 6.15716 4.65071 6.24832C4.58232 6.19222 4.50709 6.14313 4.4387 6.08703C4.41134 6.06599 4.39766 6.06599 4.3703 6.08703C4.29507 6.14313 4.21984 6.19222 4.13093 6.25533C4.16513 6.15716 4.18564 6.06599 4.21984 5.98184C4.23352 5.94678 4.22668 5.92574 4.19932 5.9047C4.12409 5.85561 4.0557 5.79951 3.9873 5.75042C3.9873 5.74341 3.9873 5.74341 3.9873 5.7364Z" fill="white"/>
<path d="M7.76942 6.23425C7.79678 6.14309 7.82414 6.05894 7.8515 5.96777C7.86517 5.93972 7.8515 5.9257 7.83098 5.91167C7.75575 5.85557 7.68735 5.79947 7.61212 5.73636C7.67368 5.73636 7.74207 5.73636 7.80362 5.73636C7.92673 5.73636 7.92673 5.73636 7.96092 5.62416C7.98144 5.56104 8.00196 5.49793 8.02248 5.44183C8.02248 5.44183 8.02248 5.44183 8.02932 5.43481C8.05667 5.52598 8.08403 5.61013 8.11139 5.69428C8.11823 5.72934 8.13875 5.74337 8.17294 5.74337C8.26185 5.74337 8.35076 5.74337 8.46019 5.74337C8.37812 5.80648 8.30973 5.86258 8.2345 5.91167C8.2003 5.9257 8.19346 5.94674 8.20714 5.98881C8.2345 6.07296 8.26185 6.15711 8.29605 6.2623C8.22082 6.2062 8.15926 6.16413 8.09771 6.11504C8.02932 6.06595 8.02932 6.06595 7.95409 6.11504C7.91305 6.1501 7.86517 6.17815 7.82414 6.21322C7.81046 6.22023 7.79678 6.24127 7.76942 6.23425Z" fill="white"/>
<path d="M7.23596 3.27491C7.16756 3.33101 7.09917 3.3801 7.02394 3.42918C6.98974 3.45022 6.9829 3.47126 6.99658 3.50632C7.02394 3.59047 7.0513 3.67463 7.08549 3.77981C7.00342 3.72371 6.93503 3.67463 6.87348 3.62554C6.83244 3.59047 6.79824 3.59047 6.75721 3.62554C6.69565 3.67463 6.6341 3.72371 6.55887 3.77981C6.57255 3.70268 6.59991 3.63255 6.62042 3.56944C6.65462 3.45723 6.65462 3.45723 6.56571 3.39412C6.51099 3.35204 6.45628 3.30997 6.40157 3.26088C6.49048 3.26088 6.57939 3.26088 6.6683 3.26088C6.70249 3.26088 6.72301 3.25387 6.72985 3.21881C6.75721 3.12764 6.78457 3.04349 6.81876 2.94531C6.85296 3.04349 6.88032 3.13465 6.90767 3.22582C6.91451 3.26088 6.92819 3.26789 6.96239 3.26789C7.0513 3.26789 7.14021 3.26789 7.23596 3.26789C7.23596 3.26789 7.23596 3.26789 7.23596 3.27491Z" fill="white"/>
<path d="M3.44016 6.24113C3.38544 6.20607 3.33757 6.171 3.28969 6.13594C3.18711 6.0588 3.18711 6.0588 3.08452 6.13594C3.04348 6.171 2.99561 6.20607 2.94773 6.24113C2.94773 6.24113 2.94089 6.24113 2.93405 6.24113C2.95457 6.16399 2.97509 6.08685 3.00928 6.00971C3.02296 5.95361 3.02296 5.92556 2.97509 5.8905C2.90669 5.84842 2.84514 5.79934 2.77675 5.75025C2.80411 5.73622 2.83146 5.74323 2.85198 5.74323C2.91353 5.74323 2.97509 5.74323 3.0298 5.74323C3.07768 5.74323 3.09819 5.73622 3.11187 5.68713C3.13239 5.60298 3.16659 5.51883 3.19394 5.42065C3.2213 5.51182 3.2555 5.59597 3.27602 5.68012C3.28969 5.7222 3.30337 5.74324 3.35125 5.73622C3.43332 5.72921 3.52223 5.73622 3.61114 5.74323C3.53591 5.79934 3.46752 5.85544 3.39228 5.91154C3.36493 5.93258 3.35809 5.9466 3.37177 5.98166C3.39912 6.05179 3.41964 6.12192 3.44016 6.19204C3.44016 6.20607 3.447 6.22009 3.44016 6.24113Z" fill="white"/>
<path d="M8.82268 5.7364C8.91159 5.7364 9.0005 5.7364 9.08941 5.7364C9.12361 5.7364 9.13728 5.72237 9.15096 5.68731C9.17832 5.59615 9.20568 5.512 9.23987 5.41382C9.26723 5.50498 9.30143 5.58212 9.31511 5.65926C9.32878 5.72237 9.36298 5.74341 9.4177 5.7364C9.49293 5.72939 9.575 5.7364 9.65023 5.74341C9.575 5.79951 9.49977 5.85561 9.42453 5.91171C9.40402 5.92574 9.39718 5.93977 9.40402 5.96782C9.43821 6.05898 9.45873 6.15014 9.49293 6.25533C9.4177 6.19923 9.34246 6.15014 9.27407 6.09404C9.23303 6.05898 9.20568 6.06599 9.17148 6.09404C9.10309 6.15014 9.0347 6.19222 8.95946 6.25533C8.99366 6.15716 9.01418 6.06599 9.04837 5.98184C9.06205 5.94678 9.05521 5.92574 9.02786 5.9047C8.95946 5.85561 8.89107 5.79951 8.82268 5.75042C8.82268 5.74341 8.82268 5.74341 8.82268 5.7364Z" fill="white"/>
<path d="M4.81486 3.27491C4.74646 3.32399 4.67807 3.3801 4.60284 3.42918C4.57548 3.45022 4.56864 3.47126 4.58232 3.51334C4.60968 3.59749 4.63704 3.68164 4.67123 3.77981C4.58232 3.7167 4.50709 3.66761 4.4387 3.61151C4.41134 3.58346 4.39082 3.59047 4.35663 3.61151C4.29507 3.66761 4.21984 3.7167 4.14461 3.77981C4.15145 3.7167 4.17197 3.66761 4.18564 3.61151C4.19932 3.56242 4.24036 3.50632 4.22668 3.45723C4.20616 3.42217 4.15145 3.39412 4.11041 3.36607C4.06938 3.33101 4.02834 3.30296 3.9873 3.26088C4.06254 3.26088 4.14461 3.25387 4.21984 3.26088C4.28139 3.26789 4.30875 3.24686 4.32243 3.19075C4.34295 3.11362 4.3703 3.03648 4.39766 2.94531C4.43186 3.04349 4.45921 3.13465 4.48657 3.21881C4.50025 3.25387 4.51393 3.26789 4.55496 3.26789C4.64388 3.26789 4.73279 3.26789 4.81486 3.26789C4.81486 3.26789 4.81486 3.26789 4.81486 3.27491Z" fill="white"/>
<path d="M10.0332 3.26095C10.1016 3.26095 10.17 3.26095 10.2384 3.26095C10.341 3.26095 10.341 3.26095 10.3752 3.15576C10.3957 3.09265 10.4162 3.02252 10.4367 2.95941L10.4436 2.95239C10.4709 3.04356 10.5051 3.13472 10.5257 3.22588C10.5325 3.25394 10.5462 3.26095 10.5735 3.26095C10.6624 3.26095 10.7582 3.26095 10.8539 3.26796C10.7992 3.31004 10.7445 3.35211 10.6898 3.39419C10.6009 3.4573 10.6009 3.4573 10.6351 3.56249C10.6556 3.6256 10.6761 3.69573 10.6966 3.75884C10.6966 3.75884 10.6966 3.75884 10.6898 3.77287C10.6146 3.71677 10.5462 3.66768 10.4778 3.61158C10.4436 3.58353 10.4231 3.59054 10.3957 3.61158C10.341 3.65365 10.2863 3.69573 10.2316 3.73781C10.2179 3.75183 10.2042 3.76586 10.1837 3.75183C10.211 3.66768 10.2384 3.57652 10.2658 3.49236C10.2726 3.46431 10.2726 3.45029 10.2452 3.43626C10.17 3.38016 10.0948 3.33107 10.0264 3.27497C10.0264 3.26796 10.0332 3.26796 10.0332 3.26095Z" fill="white"/>
<path d="M2.25012 6.25533C2.16805 6.19222 2.09282 6.14313 2.02443 6.08703C1.99707 6.06599 1.97655 6.06599 1.9492 6.08703C1.87396 6.14313 1.79873 6.19923 1.71666 6.25533C1.75086 6.15716 1.77821 6.06599 1.80557 5.97483C1.81241 5.94678 1.81241 5.93275 1.78505 5.91873C1.71666 5.86263 1.64143 5.80653 1.55936 5.74341C1.61407 5.72939 1.66195 5.7364 1.70982 5.7364C1.76454 5.7364 1.83293 5.75042 1.87396 5.72939C1.915 5.70134 1.915 5.6242 1.93552 5.5681C1.9492 5.52602 1.96287 5.47693 1.98339 5.41382C2.01759 5.512 2.04495 5.59615 2.06546 5.68731C2.07914 5.72939 2.09966 5.7364 2.13386 5.7364C2.22277 5.7364 2.30484 5.7364 2.40059 5.74341C2.3322 5.79951 2.2638 5.85561 2.18857 5.9047C2.15437 5.92574 2.14753 5.94678 2.16121 5.98184C2.19541 6.06599 2.21593 6.15716 2.25012 6.25533Z" fill="white"/>
<path d="M7.76942 3.75871C7.79678 3.67456 7.82414 3.58339 7.8515 3.49924C7.85834 3.47119 7.85834 3.45717 7.83098 3.43613C7.75575 3.38704 7.68735 3.33094 7.61212 3.26081C7.70103 3.26081 7.78994 3.26081 7.87885 3.26081C7.91305 3.26081 7.92673 3.2538 7.94041 3.21874C7.96776 3.12757 7.99512 3.04342 8.02932 2.93823C8.06351 3.04342 8.09087 3.12757 8.11823 3.21874C8.12507 3.2538 8.14558 3.26081 8.17294 3.26081C8.26185 3.26081 8.35076 3.26081 8.44651 3.27484C8.37812 3.32393 8.31657 3.38003 8.24817 3.4221C8.2003 3.45015 8.2003 3.4782 8.21398 3.52729C8.24134 3.60443 8.26869 3.68858 8.29605 3.78676C8.20714 3.71663 8.13191 3.66755 8.06351 3.61144C8.03616 3.59041 8.02248 3.59041 7.99512 3.61144C7.94041 3.65352 7.87885 3.6956 7.82414 3.73767C7.80362 3.74468 7.78994 3.76572 7.76942 3.75871Z" fill="white"/>
<path d="M6.02541 5.75032C5.95702 5.7994 5.88863 5.8555 5.8134 5.90459C5.78604 5.92563 5.7792 5.94667 5.79288 5.98173C5.82024 6.06588 5.84759 6.15705 5.88179 6.25522C5.79288 6.19912 5.72449 6.14302 5.65609 6.09393C5.6219 6.06588 5.60138 6.06588 5.56718 6.09393C5.49879 6.15003 5.42356 6.19912 5.34149 6.26224C5.37568 6.15705 5.40304 6.06588 5.4304 5.98173C5.44407 5.94667 5.43724 5.92563 5.40304 5.90459C5.33465 5.8555 5.26625 5.7994 5.19786 5.73629C5.26625 5.73629 5.33465 5.73629 5.40304 5.73629C5.51247 5.73629 5.51247 5.73629 5.54666 5.6311C5.56718 5.56799 5.5877 5.49786 5.60822 5.43475C5.60822 5.43475 5.60822 5.43475 5.61506 5.42773C5.64241 5.51189 5.66977 5.59604 5.69713 5.6872C5.71081 5.72928 5.72449 5.73629 5.76552 5.73629C5.85443 5.73629 5.9365 5.73629 6.02541 5.73629C6.02541 5.7433 6.02541 5.7433 6.02541 5.75032Z" fill="white"/>
<path d="M5.19786 3.26081C5.27993 3.26081 5.362 3.26081 5.45091 3.26081C5.49195 3.26081 5.51247 3.2538 5.52615 3.20471C5.54666 3.12056 5.58086 3.03641 5.60822 2.93823C5.64241 3.04342 5.66977 3.12757 5.69713 3.21874C5.70397 3.24679 5.71765 3.26081 5.75184 3.26081C5.84075 3.26081 5.92966 3.26081 6.02541 3.26783C5.97754 3.3099 5.92966 3.34496 5.87495 3.38704C5.77236 3.45717 5.77236 3.45717 5.8134 3.57638C5.83391 3.63949 5.85443 3.70261 5.87495 3.77975C5.79972 3.72365 5.72448 3.67456 5.66293 3.61846C5.6219 3.58339 5.59454 3.58339 5.5535 3.61846C5.49195 3.67456 5.41672 3.71663 5.34149 3.77975C5.37568 3.68157 5.40304 3.59041 5.4304 3.50625C5.44407 3.47119 5.43724 3.45717 5.40988 3.43613C5.33465 3.38003 5.26625 3.32393 5.19786 3.27484C5.19786 3.26783 5.19786 3.26783 5.19786 3.26081Z" fill="white"/>
<path d="M9.49977 3.77975C9.4177 3.71663 9.34246 3.66755 9.27407 3.61144C9.24671 3.59041 9.22619 3.59041 9.192 3.61144C9.12361 3.66755 9.04837 3.71663 8.9663 3.77975C9.0005 3.67456 9.02102 3.59041 9.05521 3.49924C9.06889 3.46418 9.06205 3.45015 9.0347 3.42912C8.95946 3.38003 8.89107 3.32393 8.82268 3.26081C8.90475 3.26081 8.98682 3.26081 9.06889 3.26081C9.11677 3.26081 9.14412 3.24679 9.1578 3.1977C9.17832 3.11355 9.20568 3.03641 9.23987 2.93823C9.26723 3.0294 9.30143 3.10654 9.32195 3.19069C9.33562 3.24679 9.35614 3.26783 9.4177 3.26081C9.49977 3.2538 9.58184 3.26081 9.66391 3.26783C9.58868 3.32393 9.52028 3.38003 9.44505 3.42912C9.4177 3.44314 9.41086 3.46418 9.42453 3.49223C9.44505 3.59041 9.47241 3.67456 9.49977 3.77975Z" fill="white"/>
<path d="M3.19394 2.93823C3.22814 3.03641 3.25549 3.12056 3.27601 3.20471C3.28969 3.2538 3.31021 3.26081 3.35124 3.26081C3.43332 3.2538 3.51539 3.26081 3.61114 3.26783C3.5701 3.29588 3.5359 3.32393 3.50171 3.35198C3.45383 3.38704 3.38544 3.41509 3.36492 3.46418C3.35124 3.50625 3.39228 3.57638 3.4128 3.63248C3.42648 3.67456 3.44699 3.70962 3.44699 3.7517C3.42648 3.76572 3.41964 3.7517 3.40596 3.74468C3.34441 3.6956 3.28285 3.65352 3.22814 3.60443C3.20078 3.58339 3.1871 3.58339 3.15974 3.60443C3.08451 3.66053 3.00928 3.71663 2.92721 3.77975C2.95457 3.68858 2.97508 3.60443 3.00928 3.52729C3.0298 3.4782 3.02296 3.44314 2.97508 3.41509C2.90669 3.37301 2.84514 3.32393 2.78358 3.26081C2.86566 3.26081 2.95457 3.26081 3.03664 3.26081C3.07767 3.26081 3.09819 3.2538 3.11187 3.20471C3.13239 3.12056 3.15974 3.03641 3.19394 2.93823Z" fill="white"/>
<path d="M0.506113 3.77981C0.540309 3.68164 0.567666 3.59047 0.595023 3.50632C0.608702 3.47126 0.601862 3.45022 0.574505 3.42918C0.499273 3.3801 0.430881 3.32399 0.362488 3.26088C0.444559 3.26088 0.52663 3.26088 0.601863 3.26088C0.656577 3.26088 0.677095 3.24686 0.690773 3.19777C0.711291 3.11362 0.738648 3.03648 0.772844 2.94531C0.807041 3.04349 0.834398 3.13465 0.861755 3.21881C0.875434 3.25387 0.889112 3.26088 0.923309 3.26088C1.01222 3.26088 1.10113 3.26088 1.19004 3.27491C1.12165 3.33101 1.04642 3.38711 0.978023 3.4362C0.943826 3.45022 0.943826 3.47126 0.950666 3.50632C0.978023 3.57645 0.991701 3.64657 1.01906 3.70969C1.0259 3.72371 1.03274 3.73774 1.01906 3.75878C0.957505 3.7167 0.889112 3.67463 0.827559 3.61852C0.786523 3.58346 0.759166 3.58346 0.71813 3.61852C0.656577 3.67463 0.588184 3.72371 0.506113 3.77981Z" fill="white"/>
<path d="M1.71666 3.77968C1.75085 3.6815 1.77137 3.59735 1.79873 3.5132C1.81241 3.47112 1.81241 3.44307 1.77137 3.41502C1.70298 3.36594 1.63459 3.31685 1.56619 3.26075C1.59355 3.24672 1.62091 3.25373 1.64826 3.25373C1.70982 3.25373 1.77821 3.25373 1.83976 3.25373C1.86712 3.25373 1.88764 3.24672 1.89448 3.21166C1.92184 3.12049 1.94919 3.02933 1.98339 2.93115C2.01759 3.03634 2.04494 3.12049 2.0723 3.21166C2.07914 3.23971 2.09282 3.25373 2.12701 3.25373C2.21592 3.25373 2.30483 3.25373 2.41426 3.25373C2.33219 3.32386 2.2638 3.37996 2.18857 3.42905C2.16121 3.45009 2.14753 3.47112 2.16121 3.50619C2.18857 3.59034 2.21592 3.6815 2.25012 3.77968C2.16121 3.71657 2.09282 3.66748 2.01758 3.60436C1.99023 3.58333 1.96971 3.58333 1.94919 3.60436C1.87396 3.66748 1.79873 3.71657 1.71666 3.77968Z" fill="white"/>
</g>
<defs>
<clipPath id="clip0_1_22">
<rect width="28" height="15" fill="white"/>
</clipPath>
</defs>
</svg>
