<svg width="133" height="31" viewBox="0 0 133 31" fill="none" xmlns="http://www.w3.org/2000/svg">
<g clip-path="url(#clip0_1_3097)">
<path d="M95.8986 13.8512C95.8392 13.8544 95.8095 13.8917 95.7778 13.924C95.5898 14.1053 95.3998 14.2882 95.2138 14.4712C94.8199 14.8564 94.43 15.2465 94.0322 15.6285C93.8026 15.8487 93.5612 16.0624 93.3217 16.2744C92.8348 16.7066 92.3598 17.1485 91.8987 17.5985C91.7582 17.7361 91.6058 17.864 91.4633 18C91.0813 18.3609 90.7033 18.7235 90.3193 19.0829C89.7632 19.6025 89.1833 20.1043 88.5479 20.5608C88.259 20.7696 87.9582 20.9671 87.6395 21.1451C87.3644 21.2989 87.0754 21.4349 86.7687 21.5417C86.5173 21.6291 86.2561 21.6825 85.9869 21.71C85.7237 21.7359 85.4664 21.7003 85.2229 21.6178C84.9756 21.5336 84.7895 21.3879 84.645 21.2034C84.4907 21.0059 84.4056 20.7874 84.3561 20.5591C84.3145 20.3665 84.2868 20.1723 84.2809 19.9748C84.265 19.541 84.3699 19.1282 84.5619 18.7284C84.7143 18.4095 84.9142 18.1116 85.1378 17.8235C85.4585 17.414 85.8246 17.0303 86.2046 16.658C86.5312 16.3375 86.8617 16.0186 87.1883 15.6981C87.3941 15.4958 87.592 15.2854 87.7662 15.062C87.8829 14.9114 87.9878 14.7544 88.0571 14.5828C88.0927 14.4922 88.1046 14.3999 88.1066 14.306C88.1106 14.1134 87.8651 13.9418 87.6593 13.9516C87.5663 13.9564 87.4733 13.9613 87.3822 13.9839C87.212 14.0276 87.0497 14.0827 86.8914 14.149C86.5925 14.2721 86.3135 14.421 86.0423 14.578C85.403 14.9487 84.8133 15.3663 84.2433 15.805C83.3704 16.4784 82.555 17.1955 81.7792 17.9433C80.2711 19.392 78.9094 20.9298 77.6507 22.5291C76.9955 23.3595 76.3721 24.2061 75.7764 25.064C74.86 26.3817 73.9437 27.6993 73.0273 29.0169C72.9759 29.0898 72.9224 29.1626 72.869 29.2371C72.6988 29.263 72.5325 29.2775 72.3663 29.284C71.8042 29.3083 71.2421 29.3326 70.682 29.3569C70.6404 29.3585 70.5989 29.3552 70.5593 29.3536C70.5356 29.3536 70.5098 29.3132 70.5237 29.2937C70.5692 29.2274 70.6147 29.1594 70.6622 29.0946C71.5251 27.9486 72.388 26.8025 73.251 25.6581C76.3246 21.5757 79.4002 17.4933 82.4739 13.4109C82.5392 13.3235 82.6005 13.2361 82.6599 13.1454C82.6659 13.1357 82.652 13.1163 82.6441 13.1017C82.6421 13.0985 82.6203 13.0985 82.6144 13.1033C82.5629 13.1454 82.5095 13.1859 82.464 13.2296C81.8307 13.8512 81.1993 14.4744 80.5679 15.0976C79.8634 15.792 79.1588 16.4881 78.4522 17.1825C78.2998 17.333 78.1395 17.4803 77.9812 17.6277C77.9198 17.6843 77.8525 17.7393 77.7852 17.7928C77.716 17.8462 77.6368 17.8446 77.5596 17.7928C77.5121 17.7604 77.4824 17.6973 77.5042 17.6552C77.5279 17.6082 77.5537 17.5613 77.5913 17.5208C77.6744 17.4334 77.7654 17.3509 77.8545 17.2683C78.7293 16.4557 79.5685 15.6204 80.4037 14.7803C81.0152 14.1652 81.6248 13.5501 82.2304 12.9318C83.1626 11.98 84.0196 10.9844 84.8449 9.96951C85.126 9.62149 85.407 9.27347 85.69 8.92544C85.7474 8.85422 85.8068 8.78623 85.8583 8.72472C86.2679 8.64702 87.4693 8.4722 87.6514 8.45763C87.6593 8.45763 87.6692 8.46411 87.6791 8.46735C87.6811 8.54181 87.6217 8.59361 87.5801 8.65188C87.1803 9.21034 86.7766 9.76717 86.3748 10.324C84.3541 13.126 82.3334 15.928 80.3126 18.73C80.2552 18.8093 80.182 18.8838 80.1543 18.9777C80.1523 18.9841 80.1622 18.9938 80.1682 18.9987C80.1741 19.0036 80.186 19.0068 80.1899 19.0052C80.2295 18.9777 80.273 18.9534 80.3047 18.9226C80.5818 18.6555 80.8549 18.3884 81.13 18.1214C81.8148 17.4577 82.5174 16.8053 83.2537 16.1773C83.8237 15.6917 84.4154 15.2222 85.0448 14.7884C85.3793 14.5586 85.7276 14.34 86.0938 14.1442C86.3986 13.9807 86.7172 13.8366 87.0576 13.7266C87.3624 13.6278 87.6751 13.5776 88.0037 13.5971C88.253 13.6116 88.4668 13.6877 88.6509 13.8237C88.7518 13.8981 88.8349 13.9855 88.9022 14.0827C88.9853 14.2025 89.0467 14.3271 89.0883 14.4598C89.2268 14.9082 89.2248 15.3517 89.0368 15.7936C88.9378 16.0284 88.8132 16.2517 88.6707 16.4703C88.449 16.8086 88.1937 17.1307 87.9186 17.4399C87.5643 17.8397 87.1982 18.2331 86.8419 18.6329C86.5965 18.9081 86.355 19.1865 86.1195 19.4665C85.9533 19.6624 85.8068 19.8696 85.6762 20.0832C85.5792 20.2435 85.4961 20.4086 85.4347 20.5818C85.3932 20.6984 85.3734 20.8165 85.3694 20.9347C85.3635 21.1823 85.502 21.3199 85.8286 21.3653C85.9414 21.3815 86.0562 21.3734 86.171 21.3555C86.3966 21.3183 86.6143 21.2633 86.8221 21.1823C87.0754 21.082 87.3149 20.9606 87.5445 20.8278C87.9364 20.5996 88.2966 20.3422 88.6449 20.0735C89.1674 19.6688 89.6583 19.2399 90.1313 18.7964C90.5568 18.3982 90.9724 17.9935 91.394 17.5953C91.6335 17.3703 91.8789 17.1501 92.1203 16.9267C92.7477 16.3456 93.385 15.771 94.0025 15.1818C95.4236 13.8301 96.7417 12.4154 97.9233 10.9148C98.4022 10.3062 98.8456 9.67976 99.2889 9.05332C100.356 7.55115 101.424 6.04899 102.491 4.54682C102.497 4.53873 102.503 4.53225 102.507 4.52578C102.642 4.3461 102.596 4.33153 102.917 4.30401C103.237 4.27649 103.556 4.23603 103.879 4.21498C104.16 4.19718 104.435 4.14052 104.718 4.147C104.743 4.147 104.777 4.18099 104.769 4.1988C104.761 4.21498 104.755 4.23117 104.745 4.24574C104.694 4.3202 104.645 4.39466 104.591 4.4675C104.164 5.06157 103.738 5.65726 103.305 6.24971C101.306 8.99343 99.3027 11.7339 97.3038 14.4776C96.3973 15.7208 95.5027 16.9705 94.6279 18.2282C94.5607 18.3237 94.4953 18.4208 94.428 18.5179C94.4122 18.5406 94.4023 18.5616 94.4182 18.5892C94.432 18.6102 94.4696 18.5989 94.5151 18.5568C94.5923 18.4872 94.6675 18.416 94.7447 18.348C95.2435 17.9012 95.7363 17.4512 96.241 17.0077C96.9455 16.391 97.6759 15.7953 98.4418 15.2303C98.8911 14.9001 99.3522 14.5812 99.843 14.2915C100.122 14.1264 100.409 13.9726 100.714 13.8415C100.918 13.7541 101.126 13.6748 101.349 13.6294C101.626 13.5744 101.905 13.5728 102.18 13.6472C102.438 13.7168 102.638 13.8447 102.796 14.0228C102.889 14.1264 102.96 14.2413 103.014 14.3611C103.15 14.6719 103.186 14.9924 103.144 15.3177C103.125 15.4699 103.065 15.6172 103.002 15.7613C102.897 15.9927 102.764 16.2145 102.616 16.4298C102.392 16.7568 102.145 17.0724 101.88 17.3784C101.506 17.8089 101.122 18.2331 100.746 18.6636C100.49 18.955 100.239 19.2464 99.9935 19.5426C99.7896 19.7886 99.6016 20.046 99.4492 20.3163C99.3562 20.4798 99.2829 20.6466 99.2434 20.823C99.2275 20.891 99.2196 20.959 99.2374 21.0253C99.3008 21.2633 99.5105 21.3523 99.7184 21.3653C99.8213 21.3717 99.9262 21.362 100.029 21.3491C100.298 21.3135 100.552 21.2374 100.791 21.1305C101.086 20.9994 101.355 20.8408 101.614 20.6692C101.971 20.4329 102.309 20.1787 102.634 19.9133C103.17 19.473 103.704 19.0295 104.231 18.5811C104.468 18.3787 104.688 18.1618 104.914 17.9498C105.159 17.7183 105.395 17.4787 105.66 17.2618C105.749 17.1906 105.822 17.1064 105.901 17.0271C106.93 16.0025 108.136 15.1478 109.545 14.4906C110.188 14.1911 110.863 13.9467 111.58 13.7832C112.072 13.6699 112.573 13.5938 113.086 13.5922C113.2 13.5922 113.315 13.5906 113.43 13.5987C113.937 13.6327 114.313 13.8318 114.548 14.2008C114.625 14.3222 114.679 14.4517 114.713 14.5861C114.77 14.8305 114.79 15.0766 114.756 15.3242C114.736 15.4764 114.705 15.6269 114.681 15.7791C114.679 15.792 114.693 15.8131 114.705 15.8163C114.72 15.8195 114.75 15.8147 114.76 15.8034C114.804 15.7564 114.845 15.7079 114.883 15.6561C115.102 15.3469 115.322 15.0377 115.542 14.7285C115.651 14.5731 115.756 14.4161 115.868 14.264C115.934 14.1766 116.005 14.0924 116.086 14.0147C116.219 13.8852 116.389 13.8107 116.601 13.8026C116.955 13.7881 117.307 13.7703 117.661 13.7573C117.859 13.7492 118.057 13.7476 118.255 13.7444C118.283 13.7444 118.317 13.7444 118.33 13.7751C118.342 13.8042 118.323 13.8237 118.309 13.8447C118.303 13.8528 118.297 13.8593 118.291 13.8658C117.665 14.5375 117.097 15.2417 116.535 15.949C115.803 16.8701 115.098 17.8057 114.443 18.7656C114.154 19.1897 113.873 19.6171 113.628 20.059C113.507 20.2759 113.396 20.496 113.317 20.7259C113.284 20.8262 113.272 20.9266 113.282 21.0286C113.295 21.1694 113.386 21.2665 113.545 21.3199C113.713 21.3766 113.889 21.3847 114.065 21.3523C114.259 21.3183 114.443 21.2617 114.621 21.1888C114.845 21.0949 115.055 20.9849 115.257 20.8651C115.647 20.6352 116.009 20.3795 116.357 20.1108C117.018 19.6025 117.64 19.0635 118.239 18.5066C118.562 18.2055 118.877 17.8996 119.199 17.5969C119.405 17.4043 119.617 17.2181 119.825 17.0255C120.43 16.4622 121.042 15.9037 121.64 15.3339C122.869 14.1636 124.046 12.9593 125.139 11.7015C125.23 11.5979 125.311 11.4895 125.396 11.3827C125.41 11.3665 125.382 11.3244 125.358 11.3228C125.307 11.3195 125.256 11.3147 125.204 11.3147C124.943 11.313 124.684 11.3147 124.422 11.313C124.339 11.313 124.256 11.3114 124.173 11.3066C124.076 11.3001 124.005 11.2321 124.013 11.1479C124.025 11.0168 124.12 10.9505 124.244 10.9505C124.608 10.9505 124.974 10.9505 125.339 10.9488C125.442 10.9488 125.546 10.9585 125.645 10.9359C125.725 10.8857 125.762 10.8145 125.812 10.7497C126.39 9.98084 126.97 9.21195 127.547 8.44307C127.591 8.38479 127.636 8.32814 127.676 8.26824C127.731 8.18407 127.819 8.14846 127.931 8.14684C127.941 8.14684 127.951 8.14522 127.963 8.14522C128.4 8.12418 128.836 8.10314 129.273 8.08209C129.471 8.07238 129.667 8.05943 129.865 8.0481C129.885 8.04648 129.918 8.05457 129.92 8.06267C129.928 8.08533 129.928 8.11123 129.92 8.13389C129.913 8.15817 129.889 8.1776 129.873 8.19864C129.833 8.24882 129.794 8.299 129.754 8.34918C129.135 9.12616 128.513 9.90476 127.894 10.6817C127.848 10.7384 127.803 10.7967 127.759 10.8533C127.726 10.8987 127.747 10.944 127.805 10.9472C127.868 10.9488 127.929 10.9521 127.993 10.9521C128.462 10.9521 128.931 10.9521 129.4 10.9521C130.13 10.9521 130.859 10.9521 131.589 10.9521C131.64 10.9521 131.694 10.9569 131.745 10.9521C131.852 10.9424 131.923 10.9861 131.989 11.046C131.989 11.1139 131.989 11.1819 131.989 11.2499C131.939 11.2823 131.89 11.313 131.822 11.313C131.729 11.313 131.634 11.3163 131.541 11.3163C130.281 11.3163 129.02 11.3163 127.759 11.3163C127.369 11.3163 127.448 11.2871 127.247 11.5494C126.73 12.2195 126.213 12.8897 125.691 13.5566C124.747 14.7609 123.795 15.962 122.886 17.1841C122.411 17.8251 121.946 18.4694 121.515 19.1314C121.289 19.4778 121.072 19.8259 120.893 20.1901C120.82 20.3406 120.755 20.4928 120.698 20.6482C120.648 20.7793 120.634 20.9153 120.662 21.0529C120.69 21.1823 120.783 21.2698 120.927 21.3167C121.034 21.3507 121.145 21.3717 121.262 21.3734C121.483 21.3766 121.695 21.341 121.907 21.2924C122.17 21.2325 122.413 21.1403 122.651 21.0318C123.073 20.8408 123.456 20.6061 123.823 20.3536C124.054 20.1949 124.282 20.0314 124.5 19.8615C125.285 19.2512 126.055 18.628 126.764 17.9563C126.914 17.8138 127.057 17.6681 127.205 17.5257C127.253 17.4803 127.302 17.4366 127.359 17.3994C127.411 17.3654 127.474 17.3589 127.536 17.3832C127.563 17.3946 127.591 17.4043 127.603 17.4318C127.627 17.4917 127.633 17.5516 127.589 17.6034C127.526 17.6811 127.458 17.7571 127.385 17.8284C127.128 18.0744 126.875 18.3237 126.605 18.5616C125.804 19.269 124.969 19.9457 124.066 20.5656C123.738 20.7906 123.397 21.0011 123.037 21.1888C122.774 21.3264 122.499 21.4462 122.21 21.5449C121.948 21.634 121.675 21.6922 121.396 21.7117C120.981 21.7392 120.587 21.6663 120.238 21.4721C119.904 21.2859 119.714 21.0156 119.617 20.7C119.54 20.4491 119.544 20.1933 119.573 19.9376C119.641 19.3548 119.845 18.8028 120.139 18.2719C120.359 17.8753 120.616 17.4965 120.893 17.1242C121.359 16.4978 121.869 15.8956 122.38 15.2935C122.522 15.1251 122.663 14.9568 122.803 14.7884C122.817 14.7706 122.815 14.7544 122.791 14.7447C122.784 14.7415 122.77 14.7431 122.764 14.748C122.74 14.7641 122.716 14.7803 122.696 14.7998C122.204 15.2627 121.713 15.7257 121.218 16.187C120.723 16.6483 120.226 17.1064 119.732 17.5694C119.451 17.8332 119.18 18.1019 118.898 18.3642C118.534 18.7025 118.17 19.0424 117.794 19.3726C117.133 19.9537 116.44 20.5057 115.668 20.9897C115.463 21.1192 115.245 21.2358 115.025 21.3523C114.841 21.4494 114.645 21.5271 114.441 21.5935C114.255 21.655 114.063 21.6939 113.867 21.7117C113.594 21.7359 113.327 21.6971 113.072 21.6129C112.896 21.5547 112.751 21.4575 112.634 21.3329C112.518 21.2099 112.438 21.0723 112.379 20.9266C112.316 20.7728 112.272 20.6142 112.248 20.4539C112.221 20.2678 112.205 20.08 112.193 19.8939C112.181 19.732 112.187 19.5701 112.215 19.4099C112.223 19.3678 112.219 19.3257 112.213 19.2836C112.213 19.2771 112.173 19.2658 112.165 19.2706C112.116 19.2998 112.066 19.3322 112.023 19.3661C111.645 19.6591 111.273 19.957 110.891 20.2467C110.54 20.5138 110.17 20.7631 109.782 20.9946C109.472 21.1807 109.149 21.3523 108.801 21.4915C108.547 21.5919 108.284 21.6712 108.003 21.7036C107.952 21.71 107.9 21.7165 107.849 21.7181C107.512 21.7198 107.184 21.6777 106.875 21.5676C106.604 21.4705 106.376 21.3232 106.192 21.1322C106.018 20.9493 105.891 20.7437 105.802 20.5252C105.703 20.2823 105.642 20.0331 105.604 19.7773C105.563 19.4892 105.549 19.1994 105.555 18.9097C105.561 18.628 105.604 18.3496 105.65 18.0712C105.664 17.987 105.676 17.9028 105.684 17.817C105.686 17.8057 105.662 17.7928 105.648 17.783C105.644 17.7798 105.628 17.783 105.622 17.7879C105.593 17.8122 105.565 17.8381 105.539 17.864C105.076 18.2913 104.619 18.7219 104.148 19.1444C103.566 19.6672 102.958 20.1707 102.299 20.6304C101.943 20.8796 101.571 21.1127 101.167 21.3102C100.872 21.4543 100.563 21.5757 100.227 21.6485C100.055 21.6858 99.8806 21.7052 99.7045 21.7198C99.5046 21.7359 99.3087 21.7068 99.1187 21.6599C98.8515 21.5935 98.6377 21.4608 98.4814 21.2698C98.3824 21.1484 98.3112 21.0156 98.2637 20.8764C98.2162 20.7372 98.1746 20.5964 98.1687 20.4507C98.1647 20.3147 98.1528 20.1787 98.1548 20.0428C98.1568 19.5847 98.2993 19.1509 98.5111 18.73C98.6654 18.4224 98.8614 18.1311 99.0791 17.8494C99.3977 17.4383 99.7579 17.053 100.138 16.6791C100.457 16.3651 100.783 16.0543 101.102 15.7402C101.274 15.5703 101.44 15.3954 101.603 15.2174C101.733 15.0733 101.848 14.9228 101.945 14.7609C102.014 14.6444 102.06 14.523 102.083 14.3967C102.113 14.2348 102.01 14.0649 101.834 13.9888C101.798 13.9726 101.755 13.9661 101.715 13.9629C101.622 13.9564 101.529 13.9629 101.438 13.9855C101.268 14.0276 101.106 14.0827 100.947 14.149C100.678 14.2623 100.427 14.3983 100.18 14.5424C99.7223 14.8095 99.2889 15.1041 98.8693 15.41C97.9806 16.0559 97.1435 16.7438 96.332 17.4544C95.4137 18.2573 94.529 19.0845 93.6958 19.9473C93.385 20.2678 93.0802 20.5915 92.7992 20.9298C92.6488 21.1127 92.5063 21.3021 92.3618 21.4899C92.3262 21.5368 92.2787 21.566 92.2114 21.5692C91.9105 21.5903 91.6097 21.6097 91.3089 21.6307C91.1941 21.6388 91.0813 21.6485 90.9665 21.6566C90.7072 21.6744 90.4479 21.6922 90.1887 21.7084C90.1649 21.71 90.1313 21.668 90.1412 21.6518C90.1808 21.5919 90.2184 21.5304 90.2579 21.4721C91.2079 20.101 92.1857 18.7446 93.197 17.4043C94.0382 16.2874 94.8991 15.1818 95.7858 14.0875C95.8253 14.0373 95.8689 13.9888 95.9045 13.937C95.9184 13.9159 95.9184 13.8884 95.9243 13.8641C95.9619 13.8722 95.9738 13.8512 95.9857 13.8285C95.9956 13.8107 95.9916 13.7962 95.9698 13.7897C95.9639 13.7881 95.95 13.7913 95.9441 13.7962C95.9065 13.8075 95.8867 13.8253 95.8986 13.8512ZM113.117 13.9516C113.072 13.9548 112.955 13.9532 112.844 13.9694C112.547 14.0131 112.258 14.0843 111.983 14.1895C111.613 14.3303 111.273 14.5084 110.95 14.7123C110.594 14.9373 110.269 15.1882 109.963 15.457C109.254 16.0753 108.662 16.7649 108.16 17.5046C107.795 18.042 107.483 18.5973 107.257 19.1849C107.128 19.5183 107.037 19.8582 106.99 20.2063C106.962 20.4118 106.976 20.6142 107.033 20.8149C107.059 20.9072 107.101 20.9946 107.16 21.0755C107.255 21.2034 107.386 21.294 107.566 21.3394C107.71 21.3766 107.853 21.3782 107.997 21.3555C108.169 21.328 108.342 21.2924 108.506 21.2374C108.757 21.1532 108.995 21.0496 109.224 20.9314C109.586 20.7453 109.925 20.5316 110.25 20.305C110.772 19.9392 111.253 19.5377 111.704 19.112C112.355 18.5001 112.939 17.8494 113.432 17.1437C113.65 16.8329 113.844 16.5124 114.002 16.1789C114.156 15.8519 114.273 15.5185 114.315 15.1672C114.336 14.9859 114.315 14.8095 114.271 14.6346C114.241 14.5181 114.182 14.408 114.099 14.3077C113.978 14.162 113.818 14.06 113.616 14.0001C113.474 13.9564 113.331 13.9516 113.117 13.9516Z" fill="black"/>
<path d="M37.4478 31.0842C37.434 31.0728 37.4221 31.055 37.4043 31.0502C37.337 31.0275 37.2677 31.0081 37.1985 30.9903C36.577 30.8414 36.2227 30.4917 36.0743 29.9899C35.9456 29.5561 35.9832 29.1272 36.1673 28.7079C36.29 28.4246 36.4642 28.164 36.67 27.918C36.9352 27.6007 37.242 27.311 37.5705 27.0374C38.0752 26.6181 38.6235 26.2377 39.1915 25.8768C40.0227 25.3475 40.8896 24.8602 41.7683 24.3892C43.0231 23.7174 44.3037 23.0796 45.5862 22.4451C45.9325 22.2735 45.8474 22.3528 46.0433 22.0485C46.9637 20.6176 47.884 19.185 48.8043 17.7524C48.8518 17.6764 48.9013 17.6019 48.9428 17.5242C48.9527 17.5064 48.9369 17.4789 48.929 17.4417C48.8874 17.4756 48.8557 17.4967 48.83 17.5226C47.7929 18.5942 46.6351 19.5735 45.3823 20.4767C44.9449 20.7924 44.4857 21.0886 43.9989 21.3508C43.7554 21.482 43.5041 21.6034 43.2389 21.7037C43.0786 21.7636 42.9123 21.8122 42.7401 21.8494C42.6491 21.8688 42.5561 21.8769 42.463 21.8818C42.1563 21.898 41.8911 21.8122 41.6516 21.6633C41.519 21.5791 41.4042 21.4803 41.3072 21.3687C41.0776 21.108 40.9391 20.8183 40.8777 20.501C40.8065 20.1384 40.8718 19.7888 40.9866 19.4408C41.0895 19.1267 41.2458 18.8305 41.426 18.5408C41.61 18.2445 41.8158 17.958 42.0434 17.6828C42.3106 17.3575 42.5877 17.0386 42.8628 16.7165C43.1063 16.43 43.3537 16.1451 43.5951 15.8569C43.7594 15.6594 43.9078 15.4539 44.0345 15.2402C44.1117 15.1091 44.177 14.9763 44.2265 14.8355C44.27 14.7109 44.2819 14.5846 44.268 14.4567C44.2562 14.3337 44.173 14.2544 44.0345 14.2091C43.8524 14.1492 43.6684 14.1524 43.4803 14.1816C43.223 14.2204 42.9816 14.2981 42.75 14.4001C42.4749 14.5231 42.2196 14.6688 41.9742 14.829C41.6298 15.0508 41.3072 15.292 40.9985 15.5461C40.189 16.2098 39.4092 16.8978 38.669 17.6132C38.3523 17.9192 38.0317 18.2219 37.6972 18.5132C37.0342 19.0911 36.2346 19.4926 35.2985 19.703C34.8334 19.8082 34.3603 19.8632 33.8774 19.8244C33.7864 19.8179 33.7191 19.8357 33.6518 19.8859C33.2263 20.2129 32.775 20.5156 32.3 20.794C31.7993 21.0854 31.2728 21.346 30.7107 21.5516C30.3486 21.6843 29.9765 21.7879 29.5886 21.8591C29.2303 21.9239 28.8681 21.9546 28.502 21.9271C27.8548 21.8802 27.358 21.6357 27.0473 21.1598C26.8929 20.9235 26.8039 20.671 26.7623 20.4071C26.7188 20.1287 26.697 19.8487 26.7445 19.567C26.7801 19.355 26.8375 19.1494 26.9147 18.9454C27.0414 18.6104 27.2136 18.2915 27.4115 17.9823C27.6905 17.5436 28.0131 17.126 28.3555 16.7197C28.7514 16.2503 29.1809 15.7987 29.6044 15.3454C29.7311 15.2094 29.8518 15.0719 29.9725 14.9326C30.0141 14.8841 30.0457 14.829 30.0715 14.7756C30.0814 14.7562 30.0675 14.7271 30.0576 14.7044C30.0477 14.685 30.0022 14.6882 29.9765 14.706C29.9448 14.7287 29.9112 14.7497 29.8835 14.774C29.8261 14.8242 29.7706 14.8744 29.7152 14.9262C29.551 15.0799 29.3906 15.237 29.2224 15.3891C28.7078 15.8585 28.1893 16.3264 27.6767 16.7974C27.3086 17.1341 26.9503 17.4773 26.5842 17.8156C25.9429 18.4096 25.3056 19.0069 24.6525 19.5929C24.0984 20.0915 23.5046 20.5577 22.8732 20.9915C22.5784 21.1938 22.2716 21.3848 21.943 21.5516C21.7036 21.673 21.4542 21.7782 21.187 21.8543C20.8426 21.9514 20.4963 21.9643 20.142 21.8899C19.8332 21.8251 19.5977 21.6859 19.4255 21.4674C19.3107 21.3233 19.2375 21.1647 19.1861 20.998C19.1148 20.7665 19.0693 20.5302 19.0614 20.2922C19.0554 20.0963 19.0594 19.9005 19.0594 19.7046C19.0594 19.6528 19.0634 19.6026 19.0614 19.5508C19.0614 19.5363 19.0475 19.5217 19.0356 19.5104C19.0178 19.4942 19 19.4974 18.9802 19.512C18.9129 19.5654 18.8437 19.6172 18.7764 19.669C18.4379 19.9345 18.1015 20.2016 17.7591 20.4622C17.4167 20.7228 17.0545 20.9688 16.6785 21.1971C16.4014 21.3638 16.1164 21.5208 15.8116 21.6519C15.5721 21.7555 15.3247 21.8397 15.0595 21.8964C14.8319 21.9433 14.6043 21.9449 14.3767 21.9271C14.2421 21.9174 14.1095 21.8915 13.9789 21.8607C13.5276 21.7571 13.1832 21.5338 12.9299 21.2149C12.7577 20.998 12.6449 20.76 12.5697 20.5107C12.4905 20.2469 12.4312 19.9766 12.4252 19.703C12.4213 19.4731 12.4173 19.2433 12.4193 19.0134C12.4232 18.7237 12.4727 18.4372 12.5361 18.1506C12.546 18.1086 12.5499 18.0665 12.5499 18.0244C12.5499 18.0131 12.5321 18.0001 12.5182 17.9904C12.5123 17.9872 12.4965 17.9888 12.4905 17.992C12.4589 18.0147 12.4292 18.0373 12.4015 18.0632C12.2629 18.1911 12.1264 18.319 11.9859 18.4453C11.3011 19.0571 10.4777 19.4845 9.49804 19.7046C9.02304 19.8114 8.54012 19.8697 8.04731 19.8228C7.96617 19.8147 7.90679 19.8373 7.85137 19.8811C7.54856 20.1158 7.23387 20.3375 6.90533 20.548C6.44419 20.8426 5.96325 21.1113 5.44867 21.3379C5.01721 21.5289 4.5719 21.6892 4.0969 21.7976C3.67335 21.8964 3.24387 21.9449 2.80252 21.9336C2.61252 21.9287 2.43044 21.8996 2.25033 21.8543C1.83471 21.749 1.51804 21.5402 1.29044 21.2359C1.142 21.0368 1.04502 20.8231 0.989604 20.5949C0.85502 20.051 0.880749 19.512 1.08658 18.9794C1.21919 18.6379 1.39137 18.3093 1.59325 17.992C1.88617 17.5291 2.22856 17.092 2.59273 16.6663C2.95096 16.247 3.33294 15.8424 3.71492 15.4377C3.86137 15.2823 4.00189 15.1237 4.14242 14.965C4.20377 14.897 4.26512 14.8274 4.28689 14.7416C4.29085 14.7287 4.27898 14.7076 4.2671 14.6979C4.25523 14.6882 4.22752 14.6834 4.21169 14.6882C4.18398 14.6979 4.15627 14.7141 4.13648 14.7319C4.04346 14.8129 3.95044 14.8922 3.85939 14.9747C3.30523 15.4846 2.75106 15.9929 2.19887 16.5044C1.72981 16.9382 1.26273 17.3737 0.793666 17.8091C0.696687 17.8981 0.601687 17.9888 0.500749 18.0746C0.387937 18.1701 0.324604 18.1782 0.16825 18.1199C0.128666 18.1053 0.091062 18.0972 0.0494995 18.0988C0.0494995 18.0649 0.0494995 18.0309 0.0494995 17.9969C0.0930412 18.005 0.134604 18.0033 0.162312 17.9726C0.948041 17.1325 1.83273 16.362 2.68377 15.5672C2.89554 15.3681 3.11127 15.1706 3.327 14.9747C3.69117 14.6445 4.02169 14.2949 4.33439 13.9323C4.93606 13.2362 5.50408 12.5224 6.06221 11.8037C7.37637 10.1137 8.63314 8.39789 9.86616 6.66911C10.2917 6.07342 10.7073 5.47288 11.1269 4.87557C11.1586 4.83186 11.1942 4.78816 11.2199 4.74283C11.2694 4.65704 11.3486 4.61981 11.4634 4.60686C11.8335 4.56316 12.2036 4.51298 12.5737 4.46603C12.8606 4.4288 13.1496 4.39319 13.4366 4.35758C13.4643 4.35434 13.494 4.36406 13.5217 4.36891C13.5237 4.44823 13.4623 4.49841 13.4188 4.55668C12.9319 5.22197 12.4411 5.88565 11.9542 6.54932C9.97304 9.25257 7.98991 11.9542 6.01471 14.6591C5.15971 15.8294 4.32054 17.0062 3.517 18.1992C3.18648 18.6913 2.85794 19.1866 2.57294 19.6981C2.46012 19.8989 2.36117 20.1044 2.26419 20.3116C2.21867 20.4071 2.19492 20.5075 2.16127 20.6062C2.09992 20.7843 2.11971 20.9607 2.16721 21.1372C2.2345 21.3913 2.4344 21.5467 2.77679 21.5742C3.01429 21.5937 3.25377 21.5839 3.49325 21.5532C4.39971 21.4383 5.19731 21.1226 5.92762 20.6807C6.84596 20.1222 7.56044 19.4181 8.09679 18.5958C8.51241 17.9596 8.79346 17.2863 8.93794 16.574C9.01314 16.2033 9.06064 15.831 9.05471 15.4555C9.05075 15.1819 9.06658 14.91 9.1121 14.6397C9.13387 14.5037 9.17346 14.3726 9.23679 14.2447C9.37929 13.963 9.64252 13.8222 10.0106 13.8076C10.1254 13.8028 10.2402 13.7979 10.3511 13.8303C10.5035 13.8756 10.6242 13.9533 10.7192 14.0585C10.8063 14.1557 10.8656 14.2657 10.9052 14.3807C10.9547 14.5199 10.9824 14.6623 10.9903 14.808C11.0101 15.2386 10.9151 15.6562 10.7647 16.0657C10.6064 16.4915 10.3906 16.8961 10.1393 17.2895C9.70981 17.9645 9.19721 18.5942 8.61929 19.1899C8.55398 19.2562 8.49262 19.3242 8.43127 19.3922C8.4095 19.4165 8.44116 19.465 8.48075 19.4683C8.647 19.4845 8.81325 19.4812 8.9795 19.4634C9.45846 19.41 9.90971 19.2854 10.3372 19.1025C10.9072 18.858 11.406 18.5424 11.8236 18.1409C12.2075 17.7719 12.5935 17.4028 12.9834 17.0354C13.9729 16.0997 15.1149 15.3114 16.433 14.7012C17.0881 14.3985 17.771 14.1524 18.4993 13.9906C19.0554 13.8675 19.6175 13.7914 20.1954 13.8044C20.3637 13.8076 20.526 13.8352 20.6843 13.8805C20.9693 13.963 21.1929 14.1103 21.3552 14.3191C21.5017 14.5102 21.5888 14.7174 21.6185 14.9407C21.66 15.2726 21.6501 15.6044 21.569 15.933C21.563 15.9573 21.565 15.9832 21.565 16.0091C21.565 16.0156 21.5729 16.0269 21.5769 16.0269C21.5967 16.0253 21.6224 16.0253 21.6323 16.0156C21.666 15.9832 21.6976 15.9492 21.7234 15.9136C21.9193 15.6433 22.1172 15.3713 22.3112 15.0994C22.4319 14.9294 22.5447 14.7578 22.6674 14.5895C22.7347 14.494 22.8079 14.4001 22.8851 14.3094C23.0514 14.1136 23.279 14.0181 23.5719 14.01C24.0607 13.997 24.5496 13.976 25.0385 13.9598C25.0899 13.9582 25.1414 13.963 25.1928 13.9695C25.2027 13.9711 25.2146 14.0003 25.2106 14.0116C25.2007 14.0359 25.1829 14.0569 25.1651 14.078C24.512 14.7853 23.9143 15.5251 23.3265 16.2681C22.5625 17.2345 21.8263 18.2122 21.1474 19.2206C20.9257 19.5492 20.714 19.8811 20.522 20.221C20.4131 20.4136 20.3063 20.6079 20.2291 20.8118C20.1954 20.9008 20.1677 20.9915 20.144 21.0838C20.1321 21.1242 20.1262 21.1695 20.1341 21.21C20.1638 21.4107 20.2627 21.5273 20.5438 21.5694C20.7061 21.5937 20.8743 21.5856 21.0386 21.5467C21.2919 21.4868 21.5235 21.3929 21.7471 21.2829C22.1132 21.1016 22.4497 20.8863 22.7743 20.658C23.4076 20.2129 23.9915 19.7273 24.5595 19.2271C25.0899 18.7577 25.6005 18.2737 26.1072 17.7881C26.8177 17.1066 27.5421 16.4364 28.2625 15.7647C28.6049 15.4442 28.9552 15.1269 29.2996 14.8096C29.5767 14.5539 29.8241 14.2803 30.0655 14.0035C30.7009 13.2751 31.2966 12.524 31.8804 11.7697C33.5073 9.66858 35.061 7.53026 36.573 5.37251C36.6977 5.19446 36.8204 5.01802 36.9451 4.83996C36.9807 4.78816 37.0183 4.73636 37.0579 4.68618C37.0876 4.64895 37.1312 4.62467 37.1846 4.61819C37.339 4.59715 37.4934 4.57773 37.6477 4.5583C38.0178 4.51136 38.3879 4.4628 38.758 4.41585C38.9223 4.39481 39.0866 4.37701 39.2528 4.3592C39.2786 4.35596 39.3122 4.39157 39.2983 4.411C39.2489 4.48546 39.1994 4.55992 39.146 4.63276C38.2494 5.85165 37.3508 7.06893 36.4582 8.28944C34.8116 10.5395 33.1649 12.7911 31.5222 15.0443C30.7761 16.069 30.0457 17.1001 29.3431 18.1458C28.9869 18.6751 28.6386 19.2093 28.3298 19.758C28.213 19.9668 28.1081 20.1805 28.0191 20.399C27.9419 20.5868 27.9043 20.7794 27.93 20.9769C27.9379 21.0449 27.9538 21.1113 27.9755 21.1776C28.0527 21.4237 28.2645 21.5467 28.5594 21.5726C28.7771 21.592 28.9968 21.5872 29.2145 21.5613C29.828 21.4884 30.404 21.3249 30.9482 21.0805C31.4806 20.841 31.9636 20.5463 32.401 20.2016C33.3549 19.4456 34.0239 18.544 34.4375 17.5145C34.6236 17.0515 34.7383 16.5756 34.7997 16.0916C34.8274 15.8715 34.8235 15.6497 34.8353 15.428C34.8472 15.1981 34.8611 14.9683 34.8789 14.7384C34.8907 14.5927 34.9363 14.4535 34.9917 14.3159C35.1164 14.0084 35.4053 13.8093 35.8645 13.806C35.9674 13.806 36.0703 13.8044 36.1713 13.8368C36.3336 13.8902 36.4543 13.9792 36.5453 14.0974C36.6463 14.2285 36.7096 14.3726 36.7432 14.5247C36.7987 14.7611 36.8026 14.9974 36.771 15.237C36.7096 15.6983 36.5513 16.137 36.3415 16.5659C36.104 17.0499 35.8051 17.5064 35.4706 17.9499C35.1263 18.408 34.7482 18.8451 34.3366 19.2643C34.297 19.3048 34.2574 19.3436 34.2218 19.3857C34.2119 19.3971 34.2139 19.4165 34.2119 19.4327C34.2099 19.4505 34.2475 19.4731 34.2812 19.4731C34.4375 19.4715 34.5939 19.4796 34.7482 19.465C35.1738 19.4213 35.5815 19.321 35.9694 19.1688C36.577 18.9292 37.1133 18.612 37.5547 18.1911C37.6556 18.094 37.7566 17.9969 37.8575 17.8997C37.9664 17.7961 38.0673 17.6877 38.194 17.597C38.2395 17.5631 38.2771 17.521 38.3167 17.4821C38.8926 16.9431 39.4646 16.4024 40.0465 15.8666C40.476 15.4717 40.9371 15.101 41.4299 14.7578C41.7307 14.5474 42.0454 14.3499 42.3858 14.1832C42.6174 14.0682 42.8589 13.9695 43.1181 13.8999C43.3675 13.8319 43.6228 13.7963 43.8861 13.8076C44.2324 13.8222 44.5332 13.9226 44.7866 14.12C44.9469 14.2447 45.0676 14.3936 45.1527 14.5603C45.3289 14.9051 45.3942 15.2629 45.3467 15.6352C45.2972 16.0285 45.1567 16.4008 44.9687 16.7634C44.7925 17.1001 44.5788 17.4222 44.3492 17.7363C44.0919 18.0875 43.8128 18.4258 43.5278 18.7625C43.2785 19.0571 43.0271 19.3501 42.7797 19.6447C42.5798 19.8843 42.3858 20.1255 42.2196 20.3812C42.1206 20.5318 42.0355 20.6856 41.9742 20.8507C41.9247 20.985 41.9267 21.1194 41.9445 21.2553C41.9504 21.2958 41.9742 21.3363 41.996 21.3751C42.0237 21.4221 42.0712 21.4561 42.1286 21.4771C42.2869 21.537 42.4531 21.5354 42.6194 21.5079C42.8232 21.4755 43.0212 21.4221 43.2112 21.3492C43.514 21.2327 43.797 21.0902 44.0701 20.9332C44.5412 20.6645 44.9786 20.3634 45.4041 20.0478C46.0453 19.5719 46.651 19.0668 47.2348 18.5456C48.2976 17.5954 49.2971 16.6032 50.2174 15.5575C50.639 15.0799 51.0447 14.596 51.3871 14.078C51.4109 14.0407 51.4465 14.01 51.4762 13.976C52.1986 13.9209 52.913 13.8659 53.6275 13.8125C53.6473 13.8109 53.6671 13.819 53.6948 13.8238C53.6928 13.8465 53.7007 13.874 53.6889 13.8918C53.6394 13.9663 53.584 14.0391 53.5305 14.112C51.5731 16.7165 49.6138 19.321 47.6564 21.9255C47.5851 22.0194 47.5158 22.1149 47.4505 22.2104C47.4426 22.2217 47.4446 22.246 47.4545 22.2573C47.4624 22.2687 47.4901 22.2768 47.504 22.2735C47.5436 22.2654 47.5831 22.2525 47.6207 22.2379C47.7237 22.1974 47.8246 22.1537 47.9275 22.1116C48.6598 21.7992 49.3406 21.4221 49.9878 21.0044C50.8329 20.4606 51.6088 19.8552 52.3411 19.2125C52.8022 18.8062 53.2356 18.3805 53.677 17.9613C53.7661 17.8771 53.8512 17.7913 53.9442 17.712C53.9857 17.6764 54.0412 17.6488 54.0926 17.6213C54.1461 17.5938 54.2114 17.6051 54.2648 17.6424C54.3083 17.6747 54.3321 17.7395 54.3103 17.7816C54.2945 17.8123 54.2767 17.8447 54.2509 17.8706C54.1302 18.0001 54.0115 18.1296 53.8868 18.2542C53.4019 18.7334 52.8952 19.198 52.3747 19.6512C50.9992 20.8474 49.4178 21.8235 47.6465 22.594C47.4624 22.6733 47.2803 22.7559 47.0943 22.832C47.025 22.8611 46.9775 22.9 46.9399 22.9534C46.833 23.1088 46.7242 23.2642 46.6133 23.4196C45.8058 24.5543 44.9508 25.6631 44.0127 26.7282C43.3596 27.468 42.6708 28.1834 41.9148 28.8552C41.4062 29.3068 40.8678 29.7342 40.278 30.1162C39.9911 30.3007 39.6942 30.4739 39.3775 30.6228C39.0331 30.7847 38.6769 30.9207 38.289 30.9984C38.19 31.0178 38.0812 31.0275 37.998 31.0858C37.8239 31.0842 37.6358 31.0842 37.4478 31.0842ZM13.8641 20.5739C13.87 20.6758 13.868 20.7778 13.8799 20.8798C13.8977 21.0255 13.9452 21.1631 14.0363 21.291C14.1689 21.4739 14.3668 21.5661 14.6241 21.5791C14.8913 21.592 15.1406 21.5354 15.3841 21.4577C15.6473 21.3735 15.8927 21.2634 16.1302 21.1388C16.4904 20.951 16.8309 20.739 17.1515 20.5091C18.3212 19.6722 19.3028 18.7059 20.1182 17.6278C20.3478 17.3235 20.5556 17.0078 20.7338 16.6809C20.8822 16.4089 21.0089 16.1305 21.0979 15.8391C21.1751 15.5898 21.2127 15.3373 21.1929 15.0799C21.1791 14.9084 21.1276 14.7449 21.0287 14.5911C20.9218 14.4276 20.7674 14.303 20.5576 14.2334C20.423 14.188 20.2805 14.1605 20.1321 14.1589C19.8154 14.1573 19.5126 14.2107 19.2157 14.2916C18.8179 14.4001 18.4557 14.5668 18.1114 14.7611C17.672 15.0087 17.2781 15.2985 16.912 15.6157C15.8927 16.4979 15.1011 17.5015 14.4994 18.6087C14.3094 18.9584 14.1491 19.3194 14.0303 19.69C13.9452 19.983 13.87 20.2744 13.8641 20.5739ZM36.8066 29.5804C36.8125 29.6662 36.8125 29.7504 36.8224 29.8361C36.8442 29.998 36.8996 30.1534 37.0005 30.2942C37.1767 30.5403 37.436 30.6746 37.7902 30.686C38.1089 30.6957 38.4117 30.6455 38.7046 30.5484C39.0054 30.4496 39.2825 30.3153 39.5457 30.1615C39.8347 29.9915 40.1019 29.8022 40.3552 29.5998C40.848 29.2065 41.2874 28.7743 41.7011 28.3243C42.2592 27.7172 42.7659 27.0827 43.2428 26.4336C44.0483 25.3394 44.7787 24.2111 45.4674 23.0634C45.4852 23.0327 45.503 23.0019 45.5149 22.9696C45.5189 22.9566 45.509 22.9388 45.5011 22.9242C45.4991 22.921 45.4813 22.9194 45.4733 22.9226C45.4021 22.9566 45.3289 22.989 45.2596 23.0262C44.6757 23.3386 44.0919 23.651 43.512 23.9683C42.3779 24.5899 41.2617 25.2309 40.191 25.9237C39.5537 26.3365 38.9342 26.7654 38.3622 27.2397C38.0772 27.4777 37.808 27.7253 37.5646 27.9924C37.3588 28.219 37.1767 28.457 37.0381 28.716C36.8976 28.9912 36.8006 29.2761 36.8066 29.5804Z" fill="black"/>
<path d="M62.4566 0.0517578C62.4961 0.0825134 62.5456 0.0922257 62.5971 0.100319C63.4659 0.254097 64.2556 0.547084 64.9365 1.01975C65.6193 1.49403 66.0507 2.09134 66.219 2.81328C66.2348 2.87965 66.2546 2.94602 66.2645 3.01401C66.3001 3.27138 66.2704 3.52228 66.1635 3.76833C66.0804 3.96257 65.9716 4.14549 65.8469 4.32193C65.6311 4.62463 65.3738 4.90305 65.1007 5.17175C64.7009 5.5651 64.2695 5.93579 63.8261 6.29676C63.2423 6.77104 62.6505 7.23885 62.0627 7.7099C61.3779 8.25864 60.701 8.81386 60.0578 9.39498C59.4918 9.90811 58.9534 10.439 58.4666 11.004C58.047 11.4928 57.6689 12.0011 57.3622 12.545C57.0871 13.0338 56.8733 13.5389 56.7447 14.0682C56.6437 14.4794 56.6081 14.8938 56.62 15.313C56.6398 16.0204 56.8417 16.6954 57.1761 17.3445C57.7066 18.3756 58.4982 19.2513 59.5175 19.9927C60.0875 20.4071 60.707 20.7664 61.3601 21.0853C61.8885 21.3427 62.4368 21.5693 62.9949 21.7765C63.0523 21.7976 63.1097 21.8138 63.1691 21.8316C63.2126 21.8445 63.2601 21.8202 63.2621 21.7879C63.2641 21.728 63.2641 21.6681 63.266 21.6098C63.27 21.388 63.2641 21.1663 63.2799 20.9461C63.3096 20.5026 63.3749 20.0639 63.5214 19.635C63.5966 19.4132 63.6995 19.1995 63.8064 18.9859C64.0359 18.5197 64.3031 18.0664 64.5664 17.6132C64.8474 17.1292 65.1284 16.6436 65.3699 16.145C65.546 15.7808 65.7004 15.4101 65.8073 15.0281C65.9062 14.6704 65.9676 14.3078 65.9617 13.9403C65.9577 13.7526 65.932 13.5648 65.8884 13.3819C65.8093 13.0484 65.5876 12.7894 65.2294 12.6097C65.1502 12.5693 65.0809 12.566 64.9978 12.6049C64.4159 12.8752 63.7984 13.0743 63.175 13.2669C62.9573 13.3333 62.7317 13.3592 62.5041 13.377C62.3457 13.39 62.1933 13.3624 62.0409 13.3349C61.9578 13.3204 61.8846 13.2864 61.8272 13.2362C61.5659 13.0047 61.2928 12.7829 61.0612 12.5288C61.0434 12.5078 61.0256 12.4867 61.0078 12.4657C60.8792 12.3135 60.8574 12.1597 60.9524 11.9849C61.1741 11.5802 61.3819 11.1723 61.5956 10.766C61.6194 10.7191 61.6491 10.6738 61.6768 10.6284C61.7183 10.5572 61.7777 10.4989 61.8588 10.4569C61.9816 10.3921 62.1023 10.3257 62.2309 10.2691C62.6149 10.0991 63.0028 9.93401 63.3907 9.7689C63.5293 9.70901 63.6698 9.65397 63.8143 9.5957C63.8677 9.4662 63.8717 9.32861 63.8915 9.19426C63.9469 8.81386 63.9845 8.43184 64.0419 8.05145C64.0834 7.77303 64.1032 7.49137 64.1666 7.21619C64.1923 7.21943 64.216 7.21781 64.2279 7.2259C64.2497 7.24371 64.2655 7.26637 64.2774 7.28903C64.5644 7.80864 64.8513 8.32825 65.1363 8.84947C65.2472 9.05181 65.3402 9.25901 65.356 9.48563C65.362 9.5698 65.4174 9.62807 65.5124 9.66045C65.5401 9.67016 65.5698 9.68149 65.5955 9.69444C65.8726 9.81423 66.1299 9.95829 66.3733 10.1202C66.9394 10.4941 67.3946 10.9457 67.7667 11.454C68.1763 12.0141 68.4613 12.6146 68.6513 13.2475C68.7701 13.6441 68.8552 14.0472 68.9185 14.4535C69.0452 15.2499 69.0868 16.0479 69.0472 16.8508C69.0393 16.9948 69.0333 17.1405 69.0294 17.2846C69.0274 17.3267 69.0353 17.3671 69.0393 17.4125C69.0788 17.4125 69.1085 17.4173 69.1382 17.4125C69.3817 17.3704 69.6251 17.3251 69.8705 17.283C70.1555 17.2328 70.4445 17.2053 70.7334 17.1729C71.0758 17.1357 71.4182 17.1308 71.7626 17.1389C72.0971 17.147 72.4256 17.1923 72.7403 17.2862C72.9184 17.3396 73.0827 17.4092 73.2272 17.5096C73.4667 17.6747 73.6151 17.8835 73.6666 18.1393C73.7358 18.4857 73.6725 18.8175 73.5023 19.1364C73.4152 19.3015 73.2965 19.4521 73.1698 19.5977C72.9699 19.8276 72.7462 20.0396 72.5107 20.2452C72.0674 20.6305 71.6023 20.9963 71.1253 21.3524C70.5415 21.7895 69.9556 22.2265 69.3658 22.6571C69.0789 22.8659 68.776 23.0634 68.4792 23.2641C67.8834 23.6639 67.2837 24.0605 66.686 24.4587C66.4861 24.5931 66.4802 24.5979 66.4703 24.8003C66.4584 25.0301 66.4664 25.26 66.496 25.4899C66.5099 25.5918 66.5158 25.6938 66.5218 25.7958C66.5277 25.8897 66.5059 25.9819 66.4762 26.0726C66.409 26.2749 66.2387 26.3899 65.9953 26.4287C65.8647 26.4498 65.7261 26.4481 65.5916 26.4498C65.4985 26.4514 65.4055 26.4368 65.3105 26.4336C65.1779 26.4287 65.0691 26.3866 64.982 26.3057C64.9543 26.2798 64.9325 26.2507 64.887 26.2442C64.8692 26.2507 64.8494 26.2539 64.8316 26.262C64.5861 26.3963 64.3091 26.4239 64.026 26.4287C63.8301 26.4319 63.5985 26.3381 63.5214 26.1114C63.4679 25.9512 63.4659 25.7909 63.4976 25.6307C63.5352 25.4381 63.5748 25.2438 63.6243 25.0528C63.6579 24.9249 63.654 24.8019 63.6302 24.6724C63.5688 24.3616 63.5174 24.0492 63.4659 23.7368C63.4303 23.5166 63.3947 23.2981 63.369 23.078C63.3373 22.806 63.3175 22.5341 63.2898 22.2621C63.2858 22.212 63.2759 22.1618 63.268 22.11C63.1473 22.0663 63.0345 22.0242 62.9217 21.9821C62.0073 21.647 61.1305 21.2569 60.3131 20.781C59.5709 20.3488 58.896 19.8567 58.3161 19.2805C57.5443 18.5148 56.9723 17.6634 56.6338 16.7083C56.5111 16.3635 56.43 16.0139 56.3884 15.6562C56.3607 15.4101 56.3409 15.1641 56.3568 14.9164C56.3983 14.2916 56.5468 13.6846 56.808 13.0954C57.0811 12.4754 57.4512 11.8959 57.8847 11.3407C58.3399 10.7579 58.8545 10.2124 59.4047 9.68797C59.9549 9.1635 60.5308 8.66008 61.1305 8.17447C61.8272 7.61115 62.5278 7.0527 63.2284 6.491C63.6757 6.13327 64.1151 5.76906 64.5347 5.39028C64.8296 5.12481 65.1106 4.85125 65.364 4.55988C65.5262 4.37211 65.6767 4.17786 65.7954 3.96905C65.8746 3.82984 65.9379 3.68739 65.9854 3.53847C66.0408 3.36203 66.0448 3.18397 66.0111 3.00591C65.8488 2.15285 65.3283 1.48108 64.4713 0.982519C63.9746 0.692769 63.4244 0.493667 62.8385 0.359314C62.7079 0.328558 62.5753 0.309133 62.4447 0.281615C62.3616 0.263809 62.3338 0.22496 62.3556 0.145643C62.3655 0.113269 62.3873 0.0825134 62.4031 0.0517578C62.415 0.0517578 62.4348 0.0517578 62.4566 0.0517578ZM66.7415 24.169C66.7513 24.122 66.7969 24.0994 66.8365 24.0719C67.07 23.9165 67.3055 23.7595 67.5391 23.6041C68.3941 23.0343 69.253 22.4677 70.0585 21.8494C70.0882 21.8267 70.1199 21.804 70.1516 21.7814C70.7671 21.3233 71.3846 20.8652 71.9704 20.3812C72.2416 20.1578 72.5068 19.928 72.7482 19.6819C72.9046 19.5217 73.0491 19.3565 73.1737 19.1785C73.3756 18.8871 73.4449 18.5747 73.4112 18.2445C73.3835 17.9612 73.2173 17.7459 72.9283 17.5921C72.7878 17.5177 72.6334 17.4659 72.4731 17.4303C72.1901 17.3688 71.9011 17.3429 71.6102 17.3332C71.254 17.3218 70.9036 17.3607 70.5533 17.3947C70.2347 17.4254 69.918 17.4821 69.6033 17.5355C69.4193 17.5662 69.2392 17.6067 69.0591 17.6472C69.0175 17.6569 68.9898 17.6844 68.9799 17.72C68.974 17.7443 68.968 17.7702 68.966 17.7961C68.9284 18.1781 68.8592 18.5569 68.784 18.9341C68.6612 19.5476 68.493 20.1513 68.2892 20.7503C67.927 21.8105 67.4441 22.8319 66.8543 23.8193C66.8087 23.8954 66.7612 23.9715 66.7197 24.0492C66.692 24.0929 66.7137 24.1334 66.7415 24.169C66.7296 24.1577 66.7157 24.1479 66.7038 24.1366C66.6999 24.1431 66.6979 24.1479 66.694 24.1544C66.7098 24.1593 66.7256 24.1641 66.7415 24.169ZM65.934 10.7515C65.9478 10.7709 65.9676 10.7919 65.9755 10.8162C65.9914 10.8745 66.0111 10.9328 66.0131 10.991C66.0191 11.2128 66.0191 11.4346 66.023 11.6547C66.025 11.7777 65.9735 11.8878 65.8944 11.9914C65.8211 12.0853 65.7321 12.1678 65.6292 12.2423C65.5678 12.2876 65.5005 12.3297 65.4372 12.3734C65.3936 12.4042 65.3976 12.443 65.451 12.4786C65.5084 12.5159 65.5678 12.5515 65.6212 12.5919C65.8944 12.7927 66.0646 13.0419 66.1358 13.3349C66.2269 13.7056 66.2348 14.0812 66.1873 14.4551C66.1418 14.8112 66.0468 15.1592 65.9201 15.504C65.7538 15.9524 65.5441 16.3878 65.3066 16.8135C65.0394 17.2943 64.7603 17.7702 64.4872 18.2477C64.2675 18.633 64.0577 19.0231 63.8816 19.4229C63.8083 19.5913 63.747 19.7628 63.6995 19.9377C63.5906 20.3391 63.5431 20.7454 63.5273 21.1533C63.5174 21.4334 63.5174 21.715 63.5293 21.9967C63.5431 22.3107 63.5728 22.6263 63.6045 22.9404C63.6282 23.1686 63.6638 23.3969 63.7014 23.6251C63.7509 23.9375 63.7984 24.2499 63.8618 24.5607C63.9053 24.7663 63.9112 24.9654 63.8538 25.1677C63.8004 25.3587 63.7648 25.5514 63.7371 25.7472C63.7212 25.8589 63.7311 25.969 63.7747 26.0758C63.7984 26.1357 63.8499 26.1794 63.9231 26.1989C63.9726 26.2118 64.026 26.2231 64.0755 26.2199C64.2002 26.2102 64.3249 26.1989 64.4456 26.1746C64.6633 26.1309 64.8019 26.0321 64.8316 25.8201C64.8652 25.5821 64.8632 25.3442 64.8177 25.1062C64.7465 24.7355 64.6574 24.3681 64.5485 24.0055C64.3902 23.4746 64.2754 22.9388 64.2279 22.3933C64.1745 21.7717 64.1824 21.1501 64.2873 20.5317C64.3942 19.9053 64.5762 19.295 64.8514 18.7042C65.077 18.217 65.3541 17.7508 65.7063 17.3153C65.7637 17.2441 65.8271 17.1761 65.8904 17.1082C65.9241 17.0725 65.9795 17.0693 66.027 17.0984C66.0428 17.1082 66.0586 17.1195 66.0745 17.1324C66.1042 17.1583 66.1121 17.1972 66.0903 17.2247C65.9458 17.4125 65.7915 17.5938 65.6608 17.788C64.8969 18.9114 64.5228 20.1222 64.4654 21.401C64.4476 21.7749 64.4615 22.1504 64.509 22.5244C64.5525 22.8627 64.6079 23.201 64.695 23.5344C64.7722 23.8258 64.8513 24.1156 64.9285 24.4069C64.9503 24.4895 64.9681 24.5737 64.9939 24.6562C64.9998 24.6756 65.0315 24.6886 65.0631 24.7129C65.0968 24.6222 65.1265 24.5413 65.1561 24.4604C65.2432 24.2321 65.3343 24.0071 65.4649 23.7934C65.6015 23.5733 65.7242 23.3467 65.8429 23.1201C66.7038 21.4771 67.3273 19.779 67.6657 18.0114C67.6776 17.9531 67.6954 17.8948 67.7172 17.8382C67.7251 17.8155 67.7508 17.7961 67.7884 17.7977C67.8201 17.7993 67.8498 17.7993 67.8815 17.8026C67.923 17.8074 67.9547 17.8414 67.9527 17.8738C67.9507 17.8997 67.9527 17.9256 67.9468 17.9499C67.8834 18.2429 67.828 18.5375 67.7548 18.8305C67.545 19.6738 67.2798 20.5042 66.9512 21.3217C66.6069 22.1796 66.213 23.0213 65.7281 23.8339C65.6034 24.0411 65.5005 24.2532 65.4213 24.4749C65.3778 24.5979 65.3343 24.7193 65.2927 24.844C65.1858 25.1661 65.1185 25.4931 65.0928 25.8249C65.0849 25.9285 65.0948 26.0289 65.1482 26.1244C65.1759 26.173 65.2214 26.2118 65.2848 26.2199C65.4926 26.2442 65.7004 26.249 65.9082 26.2264C66.0784 26.2069 66.1893 26.1147 66.2229 25.9787C66.2506 25.8686 66.2486 25.7586 66.2368 25.6485C66.2091 25.3604 66.1873 25.0706 66.2031 24.7809C66.217 24.5219 66.2961 24.2774 66.4307 24.0427C66.4703 23.9731 66.5138 23.9051 66.5554 23.8371C67.1769 22.8125 67.6835 21.7522 68.0556 20.6483C68.2555 20.0574 68.4198 19.4601 68.5366 18.8531C68.59 18.5747 68.6375 18.2979 68.6751 18.0179C68.7206 17.6877 68.7582 17.3574 68.7721 17.0256C68.7939 16.5578 68.7958 16.0884 68.7721 15.6206C68.7562 15.3308 68.7305 15.0427 68.6929 14.7545C68.6513 14.4421 68.5979 14.1297 68.5267 13.8205C68.4119 13.3252 68.2575 12.8412 68.024 12.375C67.7093 11.7454 67.2837 11.1739 66.7098 10.6819C66.2902 10.3209 65.8211 10.0133 65.265 9.80128C65.2274 9.78671 65.1957 9.76728 65.1581 9.74786C65.1185 9.65721 65.0987 9.56494 65.0869 9.47268C65.0691 9.3448 65.0394 9.22016 64.9741 9.10199C64.7821 8.75235 64.5921 8.40271 64.4001 8.05306C64.3823 8.02069 64.3467 8.00774 64.3308 8.02555C64.319 8.0385 64.2992 8.05145 64.2972 8.06439C64.2675 8.26673 64.2398 8.47069 64.2141 8.67303C64.1864 8.89318 64.1606 9.11332 64.1309 9.33347C64.1171 9.44354 64.0973 9.55361 64.0795 9.66368C64.0735 9.6993 64.0518 9.72843 64.0142 9.74624C63.9607 9.77214 63.9033 9.79318 63.8479 9.81746C63.3947 10.0069 62.9395 10.1962 62.4862 10.3889C62.3378 10.452 62.1973 10.5248 62.0548 10.5944C61.9816 10.6301 61.9242 10.6786 61.8905 10.7434C61.8628 10.7984 61.8272 10.8502 61.7975 10.9052C61.6035 11.2727 61.4096 11.6401 61.2176 12.0076C61.1107 12.2148 61.1167 12.2407 61.2829 12.4252C61.2948 12.4382 61.3067 12.4527 61.3205 12.4657C61.5422 12.6696 61.7619 12.8736 61.9855 13.0759C62.0271 13.1148 62.0825 13.1391 62.1478 13.1455C62.4625 13.1812 62.7712 13.1682 63.0701 13.0743C63.1671 13.0436 63.266 13.016 63.363 12.9853C63.8281 12.8364 64.2912 12.6826 64.7306 12.4883C64.9424 12.3945 65.1462 12.2941 65.3362 12.1727C65.4431 12.1047 65.5441 12.0302 65.6252 11.9412C65.7143 11.8441 65.7717 11.7373 65.7697 11.611C65.7677 11.365 65.7875 11.1173 65.7321 10.8712C65.7301 10.8632 65.7281 10.8534 65.7321 10.8453C65.74 10.8292 65.744 10.8097 65.7598 10.8016C65.8093 10.7725 65.8607 10.7401 65.934 10.7515Z" fill="black"/>
<path d="M110.362 23.1882C110.374 23.2027 110.384 23.2173 110.398 23.2302C110.503 23.3225 110.501 23.4293 110.451 23.5394C110.447 23.5507 110.42 23.5605 110.404 23.5588C110.386 23.5572 110.366 23.5459 110.356 23.5329C110.329 23.4957 110.317 23.4552 110.323 23.4115C110.329 23.3711 110.337 23.329 110.346 23.2788C110.295 23.2772 110.253 23.274 110.214 23.2772C110.172 23.2804 110.133 23.2918 110.109 23.3241C110.054 23.397 110.002 23.4698 109.945 23.541C109.921 23.5702 109.883 23.5831 109.838 23.5864C109.804 23.588 109.771 23.5621 109.778 23.541C109.782 23.5329 109.778 23.5232 109.782 23.5168C109.852 23.4034 109.949 23.3015 109.984 23.1752C109.992 23.1445 110.022 23.1153 110.048 23.0894C110.248 22.8822 110.414 22.6556 110.572 22.4257C110.602 22.382 110.637 22.3383 110.681 22.3027C110.697 22.2882 110.738 22.2882 110.768 22.2898C110.782 22.2898 110.806 22.3141 110.804 22.3205C110.786 22.3594 110.766 22.3998 110.74 22.4355C110.594 22.641 110.445 22.8466 110.299 23.0522C110.273 23.0894 110.251 23.1283 110.23 23.1655C110.22 23.1833 110.253 23.2173 110.283 23.2141C110.311 23.2108 110.339 23.1979 110.364 23.1898C110.364 23.1882 110.362 23.1882 110.362 23.1882Z" fill="black"/>
<path d="M116.605 23.2074C116.846 22.9338 117.082 22.6538 117.289 22.3608C117.315 22.3236 117.349 22.2896 117.404 22.2847C117.422 22.2831 117.444 22.288 117.462 22.2944C117.485 22.3025 117.489 22.3187 117.477 22.3382C117.458 22.3673 117.44 22.398 117.418 22.4272C117.325 22.5486 117.23 22.67 117.137 22.7914C117.026 22.9338 116.915 23.0763 116.806 23.2204C116.731 23.3207 116.654 23.4211 116.613 23.5376C116.605 23.5603 116.577 23.5781 116.559 23.5991L116.567 23.604C116.537 23.5409 116.518 23.4761 116.533 23.4065C116.541 23.3725 116.541 23.3401 116.516 23.311L116.529 23.3191C116.573 23.3159 116.587 23.2883 116.601 23.2608L116.597 23.2673C116.597 23.2463 116.595 23.2252 116.595 23.2042L116.605 23.2074Z" fill="black"/>
<path d="M110.875 23.269C110.93 23.2609 110.958 23.2253 110.992 23.1929C111.051 23.1362 111.106 23.0764 111.17 23.0197C111.19 23.0019 111.221 22.9938 111.251 22.9873C111.267 22.9841 111.293 22.9889 111.306 22.9987C111.318 23.0068 111.332 23.031 111.326 23.0407C111.251 23.1492 111.176 23.2593 111.095 23.3645C111.043 23.4309 111.017 23.4988 111.012 23.5765L111.017 23.5782C110.954 23.562 110.907 23.5345 110.915 23.4729C110.92 23.4244 110.936 23.3758 110.946 23.3273C110.954 23.2868 110.922 23.269 110.881 23.256L110.875 23.269Z" fill="black"/>
<path d="M112.07 23.159C111.989 23.2966 111.88 23.418 111.764 23.5361C111.746 23.5539 111.714 23.5653 111.688 23.5766C111.663 23.5879 111.609 23.5798 111.605 23.5637C111.601 23.5475 111.593 23.528 111.603 23.5167C111.722 23.3516 111.841 23.1865 111.963 23.023C111.967 23.0181 111.983 23.0181 111.991 23.0198C112.001 23.0214 112.015 23.0262 112.017 23.0327C112.025 23.0651 112.027 23.0991 112.039 23.1315C112.043 23.1444 112.064 23.1525 112.078 23.1638L112.07 23.159Z" fill="black"/>
<path d="M113.634 22.9954C113.636 23.0229 113.616 23.0407 113.59 23.0569C113.497 23.1135 113.428 23.1864 113.377 23.2705C113.321 23.3612 113.266 23.4518 113.315 23.5587C113.317 23.5603 113.301 23.5716 113.293 23.5732C113.284 23.5749 113.27 23.5732 113.264 23.5684C113.242 23.5522 113.212 23.536 113.202 23.515C113.181 23.468 113.169 23.4195 113.151 23.3709C113.137 23.3353 113.102 23.3207 113.062 23.3094L113.06 23.3207C113.113 23.3094 113.133 23.2689 113.167 23.2382C113.248 23.1637 113.335 23.099 113.44 23.0472C113.503 23.0164 113.569 23.0035 113.64 22.9986L113.634 22.9954Z" fill="black"/>
<path d="M119.866 23.549C119.783 23.5555 119.742 23.5393 119.74 23.4923C119.738 23.4454 119.744 23.3984 119.748 23.3515L119.738 23.3466C119.761 23.3434 119.769 23.3305 119.773 23.311C119.801 23.1896 119.898 23.1022 119.997 23.0164C120.017 23.0002 120.05 22.9921 120.08 22.9873C120.096 22.9841 120.122 22.9921 120.133 23.0035C120.145 23.0132 120.153 23.0375 120.147 23.0472C120.088 23.1346 120.025 23.2204 119.963 23.3078C119.928 23.358 119.892 23.4098 119.858 23.4616C119.839 23.494 119.852 23.5263 119.876 23.5555L119.866 23.549Z" fill="black"/>
<path d="M107.716 23.1087C107.714 23.0423 107.728 22.9857 107.774 22.9355C107.928 22.7655 108.061 22.5842 108.193 22.4029C108.209 22.3819 108.233 22.3657 108.257 22.3495C108.262 22.3447 108.28 22.343 108.286 22.3479C108.298 22.3576 108.318 22.3722 108.316 22.3819C108.31 22.4062 108.294 22.4288 108.278 22.4515C108.112 22.6846 107.946 22.9193 107.78 23.1524C107.776 23.1589 107.758 23.1637 107.754 23.1621C107.74 23.154 107.73 23.1427 107.72 23.1297C107.714 23.1216 107.716 23.1119 107.716 23.1087Z" fill="black"/>
<path d="M122.968 23.2124C122.904 23.3403 122.793 23.4423 122.691 23.5491C122.665 23.575 122.621 23.588 122.578 23.5799C122.564 23.5766 122.546 23.5588 122.544 23.5459C122.54 23.5313 122.546 23.5119 122.556 23.4973C122.615 23.418 122.677 23.3387 122.736 23.2594C122.791 23.1881 122.843 23.1153 122.863 23.0295C122.867 23.0117 122.89 23.0085 122.912 23.0198C122.92 23.0246 122.932 23.0295 122.934 23.0376C122.946 23.0781 122.956 23.1185 122.968 23.1606L122.98 23.1541C122.922 23.1833 122.922 23.1849 122.98 23.2157L122.968 23.2124Z" fill="black"/>
<path d="M120.816 22.9792C120.86 23.0521 120.854 23.1282 120.844 23.2042C120.84 23.2285 120.834 23.256 120.816 23.2771C120.733 23.3726 120.646 23.4681 120.555 23.5604C120.539 23.5766 120.498 23.5766 120.468 23.5798C120.44 23.583 120.409 23.5474 120.42 23.528C120.424 23.5199 120.426 23.5118 120.432 23.5053C120.498 23.4195 120.565 23.3337 120.63 23.2463C120.696 23.1605 120.759 23.0731 120.822 22.9857L120.816 22.9792Z" fill="black"/>
<path d="M115.556 23.5393C115.518 23.5571 115.484 23.5604 115.457 23.528C115.429 23.4956 115.401 23.4632 115.35 23.4519L115.354 23.4568C115.439 23.3499 115.536 23.2496 115.593 23.1298C115.627 23.0602 115.702 23.031 115.777 23.0051C115.799 22.9987 115.831 23.0149 115.872 23.0246C115.823 23.0893 115.779 23.146 115.74 23.2043C115.678 23.2917 115.617 23.3807 115.56 23.4713C115.548 23.4908 115.562 23.5199 115.564 23.5442C115.562 23.5458 115.556 23.5393 115.556 23.5393Z" fill="black"/>
<path d="M112.438 22.9744C112.45 23.0278 112.464 23.0812 112.474 23.1346C112.48 23.1751 112.5 23.2091 112.537 23.235V23.2285C112.452 23.2674 112.417 23.3402 112.359 23.3985C112.308 23.4503 112.26 23.5053 112.207 23.5555C112.179 23.5798 112.136 23.5911 112.094 23.5798C112.08 23.5765 112.06 23.5555 112.062 23.5458C112.068 23.5215 112.08 23.4988 112.096 23.4778C112.219 23.324 112.334 23.1654 112.427 22.9986C112.431 22.9922 112.44 22.9857 112.446 22.9808L112.438 22.9744Z" fill="black"/>
<path d="M112.777 23.5782C112.745 23.5782 112.714 23.5815 112.686 23.5766C112.644 23.5685 112.611 23.5491 112.603 23.5102C112.589 23.4406 112.595 23.3743 112.642 23.3144C112.682 23.2642 112.723 23.2156 112.765 23.1687C112.803 23.1282 112.842 23.0894 112.858 23.0392C112.864 23.0198 112.89 23.0149 112.909 23.0246C112.925 23.0327 112.947 23.0457 112.949 23.0586C112.953 23.091 112.957 23.1282 112.943 23.1574C112.921 23.2043 112.888 23.248 112.854 23.2901C112.816 23.3403 112.773 23.3872 112.733 23.4374C112.71 23.4665 112.702 23.5022 112.721 23.5345C112.733 23.5556 112.763 23.5701 112.785 23.5863C112.783 23.5847 112.777 23.5782 112.777 23.5782Z" fill="black"/>
<path d="M125.164 23.4746C125.159 23.3985 125.184 23.3434 125.224 23.2933C125.297 23.2026 125.374 23.1152 125.451 23.0262C125.455 23.0213 125.473 23.0181 125.479 23.0213C125.495 23.0294 125.517 23.0375 125.523 23.0505C125.541 23.0909 125.535 23.1346 125.511 23.1735C125.477 23.2253 125.438 23.2755 125.396 23.3224C125.337 23.3904 125.279 23.4584 125.258 23.5425C125.256 23.5474 125.224 23.5506 125.204 23.549C125.196 23.549 125.186 23.5377 125.184 23.5312C125.174 23.5086 125.168 23.4843 125.164 23.4746Z" fill="black"/>
<path d="M122.386 23.031C122.457 23.0212 122.491 23.031 122.493 23.0666C122.495 23.0973 122.491 23.1297 122.489 23.1604C122.487 23.1961 122.514 23.2187 122.54 23.2414H122.546C122.503 23.2479 122.475 23.2689 122.449 23.2964C122.37 23.3822 122.291 23.4696 122.208 23.5538C122.182 23.5781 122.136 23.5878 122.095 23.5765C122.081 23.5732 122.059 23.5506 122.063 23.5425C122.081 23.5036 122.103 23.4664 122.128 23.4324C122.214 23.3191 122.303 23.2058 122.384 23.0908C122.396 23.0747 122.38 23.0439 122.378 23.0212L122.386 23.031Z" fill="black"/>
<path d="M114.489 22.9954C114.542 23.0261 114.578 23.065 114.56 23.1232C114.55 23.1556 114.546 23.1896 114.54 23.222C114.534 23.2463 114.534 23.2738 114.519 23.2948C114.445 23.3968 114.36 23.4923 114.245 23.5651C114.224 23.5781 114.186 23.5781 114.156 23.5765C114.145 23.5765 114.121 23.5538 114.123 23.5441C114.129 23.5198 114.141 23.4972 114.156 23.4761C114.222 23.3903 114.289 23.3045 114.358 23.222C114.416 23.1524 114.463 23.0779 114.493 22.997C114.497 22.997 114.489 22.9954 114.489 22.9954Z" fill="black"/>
<path d="M115.114 23.5538C115.025 23.5797 114.994 23.5733 114.966 23.5198C114.94 23.4745 114.918 23.4292 114.895 23.3822V23.3806C114.903 23.3483 114.899 23.3094 114.92 23.2851C115.021 23.167 115.15 23.0715 115.318 23.018C115.334 23.0132 115.356 23.0245 115.378 23.0278C115.358 23.086 115.288 23.1119 115.247 23.154C115.156 23.2479 115.085 23.3483 115.061 23.468C115.053 23.5037 115.075 23.5328 115.114 23.5506V23.5538Z" fill="black"/>
<path d="M117.074 23.3743C117.06 23.3208 117.089 23.2788 117.129 23.2415C117.248 23.1282 117.386 23.0376 117.562 22.989H117.557C117.555 23.0052 117.561 23.0262 117.549 23.036C117.489 23.091 117.424 23.1428 117.365 23.1994C117.339 23.2237 117.321 23.2545 117.301 23.2836C117.339 23.35 117.248 23.384 117.244 23.439C117.242 23.4633 117.25 23.4876 117.254 23.5119C117.256 23.5361 117.258 23.5588 117.26 23.5831L117.268 23.5815C117.204 23.5701 117.165 23.5394 117.139 23.4924C117.119 23.4568 117.097 23.4212 117.076 23.384C117.072 23.3791 117.074 23.3743 117.074 23.3743Z" fill="black"/>
<path d="M125.113 23.2416C125.085 23.2513 125.05 23.2561 125.032 23.2739C124.945 23.3565 124.864 23.4455 124.777 23.5281C124.751 23.5507 124.709 23.5653 124.674 23.5766C124.66 23.5815 124.632 23.5734 124.62 23.5637C124.608 23.554 124.602 23.5329 124.606 23.5216C124.616 23.4973 124.632 23.4747 124.65 23.4552C124.783 23.3047 124.903 23.1477 125.014 22.9858L125.008 22.981C125.02 23.0311 125.036 23.0797 125.042 23.1299C125.048 23.1752 125.068 23.2108 125.107 23.2416H125.113Z" fill="black"/>
<path d="M117.814 23.3661C117.81 23.3208 117.834 23.2835 117.867 23.2512C117.988 23.133 118.131 23.0375 118.313 22.9873H118.307C118.305 23.0035 118.309 23.0245 118.299 23.0342C118.239 23.0893 118.176 23.1427 118.113 23.1961C118.036 23.2625 118.057 23.3645 117.992 23.4357C117.978 23.4503 117.996 23.4826 118 23.5069C118.004 23.5312 118.006 23.5539 118.01 23.5781L118.018 23.5765C117.968 23.5668 117.931 23.549 117.901 23.5118C117.861 23.4664 117.873 23.4001 117.808 23.3661C117.806 23.3661 117.814 23.3661 117.814 23.3661Z" fill="black"/>
<path d="M121.612 23.5717C121.592 23.5717 121.572 23.5733 121.551 23.5733C121.469 23.575 121.422 23.5474 121.42 23.4956C121.42 23.4535 121.424 23.4115 121.436 23.371C121.446 23.3386 121.467 23.3079 121.491 23.2803C121.56 23.1962 121.632 23.1136 121.703 23.0311C121.707 23.0262 121.725 23.023 121.731 23.0246C121.746 23.0311 121.772 23.0424 121.772 23.0521C121.774 23.0942 121.78 23.1395 121.76 23.1767C121.733 23.2318 121.687 23.2787 121.65 23.3289C121.616 23.371 121.578 23.4131 121.547 23.4552C121.517 23.494 121.539 23.5345 121.604 23.5766L121.612 23.5717Z" fill="black"/>
<path d="M121.254 22.989C121.289 23.0311 121.295 23.078 121.293 23.1282C121.291 23.1719 121.305 23.2075 121.353 23.2318L121.349 23.2253C121.254 23.3257 121.163 23.4293 121.064 23.5264C121.04 23.5507 120.998 23.5653 120.963 23.5782C120.949 23.5831 120.925 23.5718 120.907 23.5653C120.886 23.5556 120.884 23.5394 120.897 23.5216C120.927 23.4779 120.957 23.4325 120.988 23.3888C121.046 23.3079 121.107 23.2302 121.165 23.1493C121.2 23.0991 121.228 23.044 121.26 22.9922C121.258 22.9906 121.254 22.989 121.254 22.989Z" fill="black"/>
<path d="M126.18 23.4518C126.146 23.4696 126.111 23.4842 126.081 23.5052C126.01 23.5554 125.924 23.5797 125.833 23.5958C125.792 23.6023 125.754 23.5926 125.721 23.5699L125.713 23.5764C125.8 23.5651 125.861 23.5198 125.909 23.4631C125.99 23.3627 126.037 23.2527 126.043 23.1313C126.045 23.0843 126.012 23.0536 125.964 23.0309L125.958 23.0341C126 22.9969 126.039 22.9597 126.085 22.9241C126.095 22.916 126.122 22.9225 126.142 22.9257C126.144 22.9257 126.15 22.9386 126.148 22.9451C126.14 22.9613 126.134 22.9775 126.12 22.9888C126.083 23.0228 126.071 23.0633 126.079 23.107C126.097 23.2252 126.122 23.3417 126.178 23.4534L126.18 23.4518Z" fill="black"/>
<path d="M123.637 23.3257C123.637 23.3014 123.627 23.2723 123.639 23.2561C123.73 23.1428 123.854 23.0618 124.009 23.0117C124.034 23.0036 124.068 23.0084 124.098 23.0084L124.096 23.002C124.088 23.0586 124.024 23.0797 123.985 23.1153C123.842 23.2448 123.749 23.3888 123.783 23.5701L123.785 23.5653C123.726 23.5669 123.684 23.5442 123.67 23.4989C123.652 23.4422 123.644 23.384 123.631 23.3273L123.637 23.3257Z" fill="black"/>
<path d="M123.183 23.5523C123.138 23.5653 123.1 23.5539 123.086 23.5167C123.074 23.486 123.069 23.4503 123.073 23.4196C123.084 23.3516 123.122 23.2917 123.171 23.2367C123.245 23.1557 123.316 23.0732 123.387 22.9906L123.383 22.989C123.443 23.0813 123.427 23.1671 123.358 23.2512C123.3 23.3208 123.241 23.3888 123.189 23.4617C123.171 23.4876 123.179 23.5264 123.173 23.5588L123.183 23.5523Z" fill="black"/>
<path d="M108.587 23.3078C108.67 23.2674 108.728 23.2091 108.751 23.133C108.793 23.0067 108.9 22.9161 109.003 22.8222C109.009 22.8157 109.038 22.8254 109.056 22.8319C109.062 22.8335 109.07 22.8449 109.068 22.8513C109.064 22.8675 109.058 22.8837 109.048 22.8983C108.981 23.0019 108.916 23.1071 108.84 23.2058C108.795 23.2673 108.749 23.3353 108.654 23.3612L108.66 23.3661C108.637 23.3467 108.613 23.3256 108.589 23.3062C108.591 23.3062 108.587 23.3078 108.587 23.3078Z" fill="black"/>
<path d="M119.611 23.4439C119.558 23.4487 119.528 23.4843 119.492 23.5086C119.429 23.5507 119.358 23.575 119.28 23.5896C119.235 23.5977 119.211 23.5701 119.181 23.5507L119.172 23.5588C119.271 23.541 119.322 23.4795 119.364 23.4115C119.399 23.3532 119.423 23.2885 119.457 23.2302C119.463 23.2205 119.49 23.2189 119.508 23.2124C119.558 23.2852 119.522 23.3807 119.605 23.4439C119.603 23.4423 119.611 23.4439 119.611 23.4439Z" fill="black"/>
<path d="M108.627 22.8352C108.688 22.8789 108.676 22.9323 108.648 22.976C108.609 23.0424 108.553 23.1039 108.504 23.1654C108.502 23.1687 108.484 23.167 108.476 23.1638C108.468 23.1606 108.454 23.1525 108.456 23.146C108.46 23.1136 108.456 23.0764 108.472 23.0489C108.518 22.976 108.575 22.9064 108.627 22.8352Z" fill="black"/>
<path d="M114.661 23.2122C114.651 23.1297 114.715 23.073 114.774 23.0164C114.792 23.0002 114.827 22.9921 114.857 22.9872C114.873 22.9856 114.899 22.9953 114.908 23.0067C114.918 23.0164 114.924 23.0407 114.916 23.0504C114.855 23.1216 114.798 23.1556 114.655 23.2074L114.661 23.2122Z" fill="black"/>
<path d="M108.223 22.8708C108.237 22.9518 108.175 23.0149 108.136 23.0813C108.132 23.0893 108.102 23.0877 108.084 23.0877C108.08 23.0877 108.072 23.0748 108.072 23.0683C108.092 23.0036 108.112 22.9372 108.134 22.8724C108.142 22.8482 108.187 22.8158 108.197 22.8255C108.209 22.8401 108.215 22.8563 108.223 22.8708Z" fill="black"/>
<path d="M124.224 23.0084C124.303 23.0214 124.346 23.057 124.348 23.1266C124.35 23.2221 124.319 23.303 124.22 23.3613L124.228 23.3662C124.211 23.2982 124.26 23.2431 124.277 23.1816C124.297 23.1153 124.283 23.0538 124.226 23.002L124.224 23.0084Z" fill="black"/>
<path d="M113.79 23.3142C113.798 23.2122 113.806 23.1102 113.816 23.0083C113.816 23.0018 113.824 22.9937 113.828 22.9872L113.826 22.9856C113.828 22.9937 113.828 23.0034 113.831 23.0099C113.908 23.1021 113.892 23.1928 113.828 23.2834C113.82 23.2948 113.798 23.3012 113.782 23.3093L113.79 23.3142Z" fill="black"/>
<path d="M120.446 22.6295C120.422 22.6457 120.393 22.6667 120.363 22.6845C120.357 22.6878 120.339 22.6845 120.335 22.6797C120.319 22.6619 120.298 22.6424 120.294 22.6214C120.29 22.5923 120.335 22.5534 120.367 22.5583C120.391 22.5615 120.413 22.5809 120.434 22.5955C120.442 22.6004 120.442 22.6117 120.446 22.6295Z" fill="black"/>
<path d="M110.566 23.0246C110.624 23.0116 110.681 22.9938 110.74 22.9889C110.764 22.9857 110.804 23.0019 110.818 23.0197C110.829 23.0359 110.823 23.0666 110.816 23.0877C110.814 23.0958 110.78 23.099 110.76 23.0974C110.74 23.0958 110.723 23.0861 110.705 23.078C110.659 23.0585 110.614 23.0407 110.566 23.0246C110.568 23.0229 110.566 23.0246 110.566 23.0246Z" fill="black"/>
<path d="M118.402 23.2027C118.425 23.125 118.443 23.0441 118.514 22.9826L118.513 22.981C118.52 23.0117 118.534 23.0425 118.536 23.0748C118.54 23.1444 118.513 23.2011 118.418 23.2157L118.402 23.2027Z" fill="black"/>
<path d="M117.764 22.9824C117.772 23.0213 117.788 23.0617 117.788 23.1006C117.786 23.1621 117.751 23.2074 117.669 23.2188L117.654 23.2042C117.675 23.1249 117.695 23.0456 117.764 22.9824C117.764 22.984 117.764 22.9824 117.764 22.9824Z" fill="black"/>
<path d="M119.583 22.9257C119.581 22.9338 119.583 22.9419 119.579 22.9484C119.554 22.9856 119.514 23.0131 119.464 23.0244C119.457 23.0261 119.445 23.0244 119.441 23.0196C119.435 23.0147 119.431 23.0034 119.433 22.9985C119.451 22.9581 119.478 22.9257 119.532 22.9111C119.542 22.9079 119.554 22.9079 119.561 22.9111C119.569 22.9111 119.575 22.9192 119.583 22.9257Z" fill="black"/>
<path d="M111.542 22.6814C111.536 22.6814 111.52 22.6847 111.516 22.6814C111.5 22.662 111.477 22.6426 111.473 22.6215C111.467 22.5908 111.512 22.5552 111.548 22.56C111.566 22.5633 111.587 22.5713 111.595 22.5827C111.621 22.6199 111.595 22.6652 111.542 22.6814Z" fill="black"/>
<path d="M110.364 23.1881C110.479 23.1735 110.55 23.1217 110.566 23.0246V23.0229C110.566 23.0391 110.568 23.0553 110.566 23.0715C110.558 23.1524 110.521 23.1832 110.422 23.1913C110.402 23.1929 110.382 23.1897 110.364 23.1881C110.362 23.1881 110.364 23.1881 110.364 23.1881Z" fill="black"/>
<path d="M113.782 23.3093C113.797 23.3838 113.752 23.4372 113.695 23.4874L113.697 23.4858C113.67 23.3854 113.681 23.366 113.789 23.3126C113.789 23.3142 113.782 23.3093 113.782 23.3093Z" fill="black"/>
<path d="M119.181 23.5505C119.153 23.5522 119.122 23.5635 119.096 23.5554C119.045 23.5408 119.037 23.4874 119.076 23.4567C119.102 23.4372 119.141 23.4388 119.147 23.4631C119.157 23.4955 119.163 23.5263 119.169 23.5586C119.171 23.5586 119.181 23.5505 119.181 23.5505Z" fill="black"/>
<path d="M117.666 23.2172C117.655 23.2641 117.602 23.269 117.564 23.2884C117.56 23.29 117.547 23.2868 117.543 23.2836C117.539 23.2803 117.537 23.269 117.539 23.2658C117.566 23.2334 117.596 23.2026 117.651 23.2026L117.666 23.2172Z" fill="black"/>
<path d="M118.417 23.2172C118.405 23.2625 118.352 23.269 118.314 23.2884C118.31 23.29 118.297 23.2868 118.293 23.2835C118.289 23.2803 118.287 23.269 118.289 23.2657C118.314 23.2317 118.346 23.2042 118.401 23.2042C118.401 23.2026 118.417 23.2172 118.417 23.2172Z" fill="black"/>
<path d="M124.22 23.3613C124.229 23.4406 124.227 23.4406 124.151 23.4568C124.133 23.4601 124.113 23.4584 124.096 23.4601L124.104 23.4682C124.131 23.4228 124.149 23.3694 124.227 23.3662L124.22 23.3613Z" fill="black"/>
<path d="M125.72 23.5702C125.659 23.5669 125.637 23.5329 125.632 23.4892C125.63 23.4714 125.675 23.4423 125.694 23.4504C125.71 23.4568 125.732 23.4714 125.732 23.4811C125.73 23.5135 125.718 23.5443 125.71 23.575C125.712 23.5766 125.72 23.5702 125.72 23.5702Z" fill="black"/>
<path d="M114.645 23.3662C114.629 23.337 114.606 23.3079 114.598 23.2771C114.588 23.2415 114.611 23.2156 114.663 23.2124L114.657 23.2075C114.651 23.2626 114.645 23.316 114.639 23.371L114.645 23.3662Z" fill="black"/>
<path d="M114.637 23.3711C114.722 23.3743 114.81 23.3775 114.895 23.3808V23.3824C114.877 23.3808 114.855 23.3711 114.841 23.3775C114.774 23.4034 114.711 23.3873 114.647 23.3662C114.645 23.3662 114.637 23.3711 114.637 23.3711Z" fill="black"/>
<path d="M118.311 22.9873C118.378 22.9857 118.445 22.984 118.513 22.9824L118.515 22.984C118.445 22.9857 118.378 22.9873 118.307 22.9873H118.311Z" fill="black"/>
<path d="M117.563 22.9873C117.63 22.9857 117.697 22.984 117.764 22.9824L117.766 22.984C117.697 22.9857 117.63 22.9873 117.559 22.9873C117.557 22.9873 117.563 22.9873 117.563 22.9873Z" fill="black"/>
<path d="M108.64 23.4908C108.605 23.4552 108.601 23.4099 108.589 23.3678L108.591 23.3694C108.615 23.3678 108.638 23.3678 108.662 23.3662L108.656 23.3613C108.65 23.4034 108.644 23.4471 108.636 23.4892L108.64 23.4908Z" fill="black"/>
<path d="M113.642 22.9986C113.703 22.9954 113.765 22.9905 113.826 22.9873L113.828 22.9889C113.765 22.9922 113.701 22.9938 113.636 22.9954C113.634 22.9954 113.642 22.9986 113.642 22.9986Z" fill="black"/>
<path d="M114.369 22.9841C114.291 22.9549 114.285 22.9566 114.267 23.0278L114.261 23.0294C114.336 23.0359 114.344 23.0326 114.373 22.9808L114.369 22.9841Z" fill="black"/>
<path d="M123.193 23.0651C123.223 23.0409 123.26 23.0214 123.25 22.981L123.246 22.9842C123.232 22.9907 123.213 22.9955 123.207 23.0052C123.195 23.0263 123.193 23.0489 123.185 23.0716C123.185 23.07 123.193 23.0651 123.193 23.0651Z" fill="black"/>
<path d="M124.098 23.0084C124.139 22.9744 124.183 22.9906 124.224 23.0084L124.226 23.0019C124.183 23.0019 124.139 23.0019 124.096 23.0019L124.098 23.0084Z" fill="black"/>
<path d="M113.501 23.4956C113.567 23.4924 113.63 23.4908 113.695 23.4875L113.693 23.4892C113.63 23.4908 113.569 23.4908 113.505 23.4924C113.507 23.4908 113.501 23.4956 113.501 23.4956Z" fill="black"/>
<path d="M117.667 23.4875C117.632 23.4859 117.596 23.4827 117.561 23.4827C117.545 23.4827 117.527 23.4908 117.511 23.494L117.505 23.5005C117.559 23.4989 117.612 23.4956 117.665 23.494L117.667 23.4875Z" fill="black"/>
<path d="M118.255 23.5005C118.309 23.4988 118.364 23.4972 118.418 23.4956L118.423 23.4972C118.37 23.4972 118.315 23.4956 118.261 23.4956L118.255 23.5005Z" fill="black"/>
<path d="M111.132 23.5927C111.164 23.6008 111.177 23.5863 111.189 23.5636C111.195 23.5523 111.209 23.5426 111.219 23.5328L111.213 23.5264C111.191 23.5377 111.166 23.5474 111.148 23.562C111.138 23.5701 111.134 23.5863 111.128 23.5976C111.126 23.596 111.132 23.5927 111.132 23.5927Z" fill="black"/>
<path d="M115.114 23.5506C115.174 23.5781 115.225 23.536 115.283 23.536L115.279 23.5295C115.223 23.5376 115.168 23.5457 115.112 23.5538C115.114 23.5538 115.114 23.5506 115.114 23.5506Z" fill="black"/>
<path d="M124.03 23.5151C124.01 23.5605 123.951 23.5524 123.912 23.5718L123.914 23.5702C123.947 23.5394 123.99 23.5248 124.039 23.52L124.03 23.5151Z" fill="black"/>
<path d="M117.258 23.5781C117.27 23.5765 117.282 23.575 117.293 23.575C117.285 23.575 117.276 23.5765 117.266 23.5781H117.258Z" fill="black"/>
<path d="M118.01 23.5765C118.022 23.5765 118.034 23.575 118.045 23.575C118.038 23.575 118.028 23.575 118.02 23.575C118.018 23.575 118.01 23.5765 118.01 23.5765Z" fill="black"/>
<path d="M123.912 23.5717C123.896 23.57 123.874 23.5636 123.862 23.57C123.833 23.583 123.809 23.5717 123.783 23.5652L123.781 23.57C123.827 23.5717 123.87 23.5717 123.912 23.5717Z" fill="black"/>
<path d="M111.817 23.0601C111.809 23.0569 111.801 23.052 111.795 23.052C111.789 23.052 111.779 23.0569 111.775 23.0633C111.768 23.0795 111.777 23.0892 111.799 23.0876C111.805 23.0876 111.807 23.0763 111.811 23.0714L111.817 23.0601Z" fill="black"/>
<path d="M112.155 23.091C112.185 23.0748 112.226 23.0715 112.23 23.0343L112.22 23.0392C112.205 23.0343 112.185 23.023 112.171 23.0262C112.136 23.0359 112.146 23.0602 112.155 23.0829C112.155 23.0845 112.155 23.091 112.155 23.091Z" fill="black"/>
<path d="M112.746 23.0569C112.717 23.0666 112.688 23.0779 112.658 23.0876L112.654 23.0957C112.68 23.0795 112.725 23.1022 112.739 23.0666C112.741 23.0666 112.746 23.0569 112.746 23.0569Z" fill="black"/>
<path d="M114.267 23.0261C114.247 23.0391 114.228 23.0488 114.245 23.0747C114.251 23.0844 114.245 23.1022 114.243 23.1152L114.251 23.1119C114.261 23.0844 114.293 23.0601 114.261 23.0294C114.263 23.0277 114.267 23.0261 114.267 23.0261Z" fill="black"/>
<path d="M120.626 23.0601C120.593 23.0682 120.559 23.0762 120.525 23.0843L120.519 23.0908C120.553 23.0843 120.587 23.0762 120.618 23.0698L120.626 23.0601Z" fill="black"/>
<path d="M120.939 23.1152C120.947 23.1168 120.957 23.1217 120.963 23.1201C120.97 23.1185 120.978 23.112 120.98 23.1055C120.984 23.0861 120.972 23.078 120.951 23.0845C120.945 23.0861 120.945 23.0974 120.941 23.1039L120.939 23.1152Z" fill="black"/>
<path d="M121.458 23.0812C121.485 23.0747 121.513 23.0683 121.539 23.0618L121.547 23.0585C121.513 23.0505 121.487 23.0602 121.461 23.078L121.458 23.0812Z" fill="black"/>
<path d="M122.213 23.0472C122.152 23.0149 122.15 23.0165 122.146 23.0748L122.142 23.0764C122.178 23.0796 122.207 23.0699 122.223 23.0408L122.213 23.0472Z" fill="black"/>
<path d="M122.649 23.0893C122.68 23.0748 122.728 23.1039 122.747 23.0634L122.751 23.0537C122.718 23.0634 122.686 23.0731 122.653 23.0845C122.655 23.0828 122.649 23.0893 122.649 23.0893Z" fill="black"/>
<path d="M123.078 23.0781C123.116 23.0732 123.155 23.0684 123.192 23.0651C123.192 23.0651 123.184 23.07 123.186 23.07C123.181 23.0635 123.175 23.057 123.171 23.0505C123.163 23.0311 123.149 23.0295 123.126 23.0295C123.074 23.0263 123.096 23.0619 123.082 23.0781C123.082 23.0764 123.078 23.0781 123.078 23.0781Z" fill="black"/>
<path d="M124.814 23.0554C124.769 23.0635 124.759 23.091 124.763 23.1234L124.765 23.1202C124.792 23.1283 124.824 23.138 124.833 23.104C124.837 23.0927 124.818 23.0781 124.808 23.0651L124.814 23.0554Z" fill="black"/>
<path d="M125.307 23.0569C125.277 23.065 125.248 23.0731 125.216 23.0812L125.21 23.086C125.24 23.0779 125.269 23.0698 125.299 23.0617C125.299 23.0634 125.307 23.0569 125.307 23.0569Z" fill="black"/>
<path d="M125.964 23.031C125.946 23.0618 125.928 23.0909 125.948 23.1249L125.95 23.12C126.01 23.0941 126.01 23.0941 125.96 23.0359C125.958 23.0342 125.964 23.031 125.964 23.031Z" fill="black"/>
<path d="M112.078 23.1606C112.117 23.1492 112.147 23.1266 112.157 23.0909V23.0845C112.098 23.0861 112.074 23.1136 112.074 23.1589C112.07 23.1589 112.078 23.1606 112.078 23.1606Z" fill="black"/>
<path d="M112.658 23.0876C112.646 23.1135 112.632 23.1378 112.621 23.1637L112.626 23.1621C112.705 23.1508 112.705 23.1475 112.654 23.0957C112.654 23.0941 112.658 23.0876 112.658 23.0876Z" fill="black"/>
<path d="M114.127 23.1671C114.168 23.1476 114.209 23.1298 114.25 23.1104L114.243 23.1136C114.235 23.1088 114.227 23.1039 114.221 23.0975C114.197 23.0732 114.17 23.0796 114.142 23.0926C114.107 23.1088 114.133 23.1347 114.129 23.1557L114.127 23.1671Z" fill="black"/>
<path d="M120.525 23.0845C120.519 23.1152 120.515 23.146 120.51 23.1751L120.512 23.1703C120.531 23.1606 120.569 23.18 120.571 23.1379C120.573 23.1039 120.539 23.1039 120.519 23.0893C120.519 23.0909 120.525 23.0845 120.525 23.0845Z" fill="black"/>
<path d="M120.943 23.1053C120.947 23.1225 120.956 23.1256 120.969 23.1116C120.969 23.1116 120.962 23.1037 120.956 23.1006C120.95 23.1053 120.947 23.11 120.941 23.1147C120.939 23.1147 120.943 23.1053 120.943 23.1053Z" fill="black"/>
<path d="M121.463 23.0764C121.453 23.1056 121.446 23.1347 121.436 23.1638C121.434 23.1638 121.444 23.1638 121.444 23.1638C121.479 23.1395 121.479 23.112 121.459 23.0797C121.457 23.0813 121.463 23.0764 121.463 23.0764Z" fill="black"/>
<path d="M122.146 23.0747C122.14 23.1071 122.136 23.1378 122.13 23.1686L122.136 23.1637C122.15 23.1346 122.167 23.1071 122.144 23.0763C122.14 23.0763 122.146 23.0747 122.146 23.0747Z" fill="black"/>
<path d="M122.655 23.0828C122.649 23.1119 122.643 23.1394 122.637 23.1686V23.1637C122.714 23.1443 122.714 23.141 122.651 23.0892C122.649 23.0892 122.655 23.0828 122.655 23.0828Z" fill="black"/>
<path d="M123.082 23.1768C123.122 23.1428 123.104 23.1104 123.078 23.078L123.082 23.0764C123.051 23.1104 123.078 23.1444 123.082 23.1768C123.078 23.1784 123.082 23.1768 123.082 23.1768Z" fill="black"/>
<path d="M124.763 23.1233C124.723 23.1055 124.69 23.1298 124.654 23.1363L124.648 23.1428C124.684 23.1266 124.733 23.1557 124.765 23.1201C124.763 23.1201 124.763 23.1233 124.763 23.1233Z" fill="black"/>
<path d="M125.216 23.0813C125.21 23.1104 125.202 23.1396 125.196 23.1687V23.1639C125.267 23.1444 125.267 23.1428 125.21 23.0878L125.216 23.0813Z" fill="black"/>
<path d="M125.837 23.1428C125.855 23.1428 125.875 23.1379 125.888 23.1428C125.922 23.1541 125.934 23.1363 125.947 23.1201L125.945 23.125C125.906 23.0991 125.875 23.1201 125.843 23.1363C125.845 23.1363 125.837 23.1428 125.837 23.1428Z" fill="black"/>
<path d="M112.62 23.1637C112.575 23.1702 112.547 23.1929 112.537 23.2285V23.235C112.616 23.2252 112.616 23.2252 112.626 23.1621L112.62 23.1637Z" fill="black"/>
<path d="M114.129 23.1572C114.13 23.1744 114.14 23.1776 114.153 23.165C114.153 23.165 114.145 23.1572 114.142 23.1541C114.136 23.1588 114.132 23.1635 114.127 23.1682C114.127 23.1666 114.129 23.1572 114.129 23.1572Z" fill="black"/>
<path d="M120.391 23.1896C120.43 23.1831 120.479 23.2122 120.511 23.1718L120.509 23.1766C120.469 23.1523 120.432 23.1556 120.397 23.1847C120.399 23.1831 120.391 23.1896 120.391 23.1896Z" fill="black"/>
<path d="M121.353 23.2317C121.382 23.209 121.411 23.1863 121.441 23.1653H121.433C121.392 23.1718 121.366 23.196 121.347 23.2252C121.349 23.2252 121.353 23.2317 121.353 23.2317Z" fill="black"/>
<path d="M122.004 23.2188C122.057 23.2172 122.092 23.1865 122.131 23.1638C122.131 23.1638 122.126 23.1687 122.128 23.1687C122.112 23.1606 122.096 23.146 122.078 23.146C122.055 23.146 122.025 23.1509 122.006 23.1622C121.998 23.167 122.006 23.1913 122.006 23.2075L122.004 23.2188Z" fill="black"/>
<path d="M122.542 23.2431C122.599 23.2383 122.632 23.214 122.634 23.1638V23.1687C122.577 23.1703 122.554 23.1978 122.548 23.2415C122.548 23.2431 122.542 23.2431 122.542 23.2431Z" fill="black"/>
<path d="M122.966 23.1606C123.003 23.1671 123.04 23.1719 123.08 23.1784C123.08 23.1784 123.078 23.18 123.08 23.18C123.032 23.1671 123.001 23.193 122.968 23.214L122.977 23.2173C122.977 23.1962 122.977 23.1768 122.977 23.1558L122.966 23.1606Z" fill="black"/>
<path d="M124.638 23.2236C124.658 23.2139 124.697 23.235 124.699 23.1913C124.701 23.1557 124.668 23.1573 124.648 23.1427L124.654 23.1362C124.648 23.167 124.642 23.1977 124.636 23.2285C124.636 23.2285 124.638 23.2236 124.638 23.2236Z" fill="black"/>
<path d="M125.107 23.2398C125.188 23.235 125.194 23.2301 125.196 23.1621V23.167C125.141 23.1702 125.113 23.1945 125.111 23.2398C125.113 23.2414 125.107 23.2398 125.107 23.2398Z" fill="black"/>
<path d="M125.822 23.2122C125.839 23.209 125.865 23.209 125.871 23.1993C125.889 23.1718 125.863 23.1556 125.837 23.141L125.843 23.1345C125.833 23.162 125.824 23.1896 125.814 23.2171L125.822 23.2122Z" fill="black"/>
<path d="M111.51 23.2366C111.516 23.2413 111.52 23.2475 111.525 23.2522C111.544 23.2366 111.542 23.2303 111.518 23.2334C111.518 23.2319 111.51 23.2366 111.51 23.2366Z" fill="black"/>
<path d="M112.446 22.9806L112.432 22.9852L112.438 22.9761L112.446 22.9806Z" fill="black"/>
<path d="M116.516 23.2641C116.545 23.2447 116.574 23.2253 116.602 23.2059L116.592 23.2026C116.592 23.2237 116.594 23.2447 116.594 23.2658L116.598 23.2593C116.574 23.2593 116.551 23.2577 116.527 23.2577C116.529 23.2577 116.516 23.2641 116.516 23.2641Z" fill="black"/>
<path d="M114.376 22.9792C114.417 23.0278 114.417 23.0278 114.488 22.9954L114.496 22.9971C114.455 22.9922 114.413 22.989 114.37 22.9841L114.376 22.9792Z" fill="black"/>
<path d="M120.387 23.2738C120.405 23.2706 120.428 23.2706 120.442 23.2625C120.458 23.2528 120.428 23.2123 120.393 23.1897L120.399 23.1848C120.393 23.2172 120.389 23.2496 120.383 23.2803C120.383 23.2787 120.387 23.2738 120.387 23.2738Z" fill="black"/>
<path d="M122.008 23.2075C122.008 23.2247 122.017 23.2263 122.032 23.2153C122.032 23.2153 122.025 23.2075 122.021 23.2043C122.015 23.209 122.011 23.2122 122.006 23.2169C122.004 23.2184 122.008 23.2075 122.008 23.2075Z" fill="black"/>
<path d="M124.523 23.2317C124.561 23.2284 124.602 23.2527 124.637 23.2236L124.635 23.2284C124.578 23.1977 124.578 23.1977 124.529 23.2301L124.523 23.2317Z" fill="black"/>
<path d="M125.813 23.2171C125.797 23.209 125.779 23.196 125.764 23.196C125.74 23.196 125.713 23.2025 125.695 23.2139C125.687 23.2187 125.695 23.243 125.697 23.2576L125.693 23.2673C125.748 23.2673 125.783 23.2397 125.819 23.2106C125.821 23.2122 125.813 23.2171 125.813 23.2171Z" fill="black"/>
<path d="M110.877 23.2574C110.881 23.2746 110.888 23.2762 110.903 23.2637C110.903 23.2637 110.896 23.2574 110.89 23.2527C110.884 23.2574 110.881 23.2621 110.875 23.2668C110.875 23.2684 110.877 23.2574 110.877 23.2574Z" fill="black"/>
<path d="M111.518 23.2317C111.514 23.2641 111.51 23.2964 111.506 23.3288L111.51 23.324C111.528 23.3191 111.56 23.3142 111.56 23.3094C111.56 23.2883 111.566 23.2624 111.534 23.2495C111.526 23.2463 111.52 23.2398 111.512 23.2349C111.51 23.2365 111.518 23.2317 111.518 23.2317Z" fill="black"/>
<path d="M116.516 23.3095C116.539 23.3159 116.561 23.3095 116.563 23.29C116.563 23.2706 116.541 23.2625 116.518 23.2658L116.531 23.2593C116.531 23.2787 116.531 23.2997 116.531 23.3192L116.516 23.3095Z" fill="black"/>
<path d="M120.268 23.2819C120.307 23.2787 120.345 23.2754 120.384 23.2738L120.38 23.2787C120.372 23.2738 120.366 23.2657 120.358 23.2625C120.305 23.235 120.305 23.235 120.272 23.2803C120.274 23.2803 120.268 23.2819 120.268 23.2819Z" fill="black"/>
<path d="M124.529 23.2302C124.515 23.2577 124.501 23.2853 124.488 23.3112H124.497C124.511 23.2853 124.547 23.2658 124.523 23.2302C124.523 23.2318 124.529 23.2302 124.529 23.2302Z" fill="black"/>
<path d="M125.697 23.2593C125.7 23.2655 125.704 23.2702 125.708 23.2765C125.721 23.2593 125.715 23.2561 125.693 23.2687C125.695 23.2687 125.697 23.2593 125.697 23.2593Z" fill="black"/>
<path d="M108.589 23.3677C108.589 23.3482 108.589 23.3272 108.587 23.3078L108.591 23.3062C108.591 23.3272 108.589 23.3482 108.589 23.3677Z" fill="black"/>
<path d="M111.505 23.329C111.498 23.3241 111.49 23.3176 111.482 23.3144C111.427 23.2885 111.427 23.2885 111.393 23.3306L111.388 23.3322C111.429 23.3338 111.47 23.3435 111.509 23.3241C111.509 23.3257 111.505 23.329 111.505 23.329Z" fill="black"/>
<path d="M113.066 23.3077C113.069 23.3249 113.079 23.3265 113.09 23.3139C113.09 23.3139 113.083 23.3077 113.077 23.303C113.073 23.3077 113.068 23.3124 113.062 23.3171C113.062 23.3186 113.066 23.3077 113.066 23.3077Z" fill="black"/>
<path d="M120.823 22.9843L120.802 22.9927L120.817 22.981L120.823 22.9843Z" fill="black"/>
<path d="M115.886 23.3384C115.892 23.3431 115.896 23.3494 115.901 23.3541C115.92 23.3384 115.918 23.3322 115.894 23.3337L115.886 23.3384Z" fill="black"/>
<path d="M118.524 23.3437C118.528 23.347 118.534 23.3504 118.538 23.3537C118.552 23.3403 118.548 23.3353 118.53 23.337L118.524 23.3437Z" fill="black"/>
<path d="M119.668 23.358C119.676 23.3693 119.684 23.3904 119.694 23.3904C119.729 23.3936 119.737 23.371 119.739 23.3467L119.749 23.3515C119.721 23.3515 119.696 23.3515 119.668 23.3515C119.666 23.3499 119.668 23.358 119.668 23.358Z" fill="black"/>
<path d="M120.25 23.3677C120.272 23.3418 120.293 23.3159 120.268 23.2819C120.268 23.2819 120.274 23.2803 120.272 23.2803C120.231 23.3046 120.26 23.3434 120.24 23.3725L120.25 23.3677Z" fill="black"/>
<path d="M123.631 23.3273C123.593 23.3208 123.555 23.2997 123.522 23.3305L123.516 23.3337C123.555 23.3305 123.595 23.3289 123.637 23.3256L123.631 23.3273Z" fill="black"/>
<path d="M124.487 23.3111C124.463 23.3063 124.448 23.2852 124.416 23.3014C124.383 23.3176 124.4 23.3387 124.398 23.3581L124.391 23.3646C124.426 23.3468 124.461 23.329 124.497 23.3128L124.487 23.3111Z" fill="black"/>
<path d="M126.235 23.3558L126.243 23.3467L126.229 23.3512L126.235 23.3558Z" fill="black"/>
<path d="M108.452 23.4317C108.435 23.4238 108.456 23.433 108.452 23.4317C108.45 23.433 108.452 23.4317 108.452 23.4317Z" fill="black"/>
<path d="M121.133 23.0117C121.182 23.036 121.214 23.0003 121.254 22.989L121.258 22.9906C121.218 22.9939 121.176 22.9987 121.137 23.002L121.133 23.0117Z" fill="black"/>
<path d="M111.391 23.3306C111.385 23.3613 111.379 23.3921 111.374 23.4228C111.372 23.4228 111.379 23.4196 111.379 23.4196C111.405 23.3921 111.414 23.3629 111.385 23.3322C111.387 23.3322 111.391 23.3306 111.391 23.3306Z" fill="black"/>
<path d="M122.38 23.0245C122.386 23.0245 122.392 23.0229 122.398 23.0229C122.39 23.01 122.386 23.0132 122.388 23.0326C122.386 23.031 122.38 23.0245 122.38 23.0245Z" fill="black"/>
<path d="M115.892 23.3354C115.888 23.3678 115.886 23.4002 115.882 23.431L115.884 23.4261C115.902 23.4212 115.928 23.4212 115.934 23.4115C115.942 23.4018 115.936 23.3808 115.928 23.3694C115.92 23.3565 115.9 23.35 115.886 23.3403C115.886 23.3387 115.892 23.3354 115.892 23.3354Z" fill="black"/>
<path d="M116.971 23.4016C117 23.3838 117.049 23.4097 117.073 23.3741V23.3806C117.036 23.3563 117.004 23.3789 116.973 23.3935L116.971 23.4016Z" fill="black"/>
<path d="M117.743 23.4148C117.768 23.4018 117.803 23.3986 117.811 23.3662C117.811 23.3662 117.803 23.3662 117.805 23.3662C117.784 23.3824 117.76 23.397 117.737 23.4115L117.743 23.4148Z" fill="black"/>
<path d="M118.53 23.3369C118.52 23.3644 118.511 23.3919 118.499 23.4195L118.505 23.4178C118.576 23.3984 118.576 23.3984 118.526 23.3434C118.524 23.3434 118.53 23.3369 118.53 23.3369Z" fill="black"/>
<path d="M119.666 23.3499C119.631 23.3741 119.605 23.4017 119.609 23.4421H119.603C119.631 23.4389 119.658 23.4535 119.682 23.4243C119.705 23.3936 119.674 23.379 119.666 23.3579C119.668 23.3579 119.666 23.3499 119.666 23.3499Z" fill="black"/>
<path d="M120.242 23.3726C120.224 23.3581 120.226 23.3289 120.183 23.3338C120.134 23.3386 120.159 23.3678 120.149 23.3856H120.143C120.179 23.3807 120.216 23.3743 120.251 23.3694C120.249 23.3678 120.242 23.3726 120.242 23.3726Z" fill="black"/>
<path d="M121.841 23.3971C121.845 23.4005 121.855 23.4072 121.855 23.4055C121.869 23.3921 121.865 23.3871 121.847 23.3904L121.841 23.3971Z" fill="black"/>
<path d="M123.52 23.332C123.516 23.3644 123.51 23.3968 123.506 23.4292L123.51 23.4243C123.563 23.3952 123.563 23.3935 123.514 23.3336C123.516 23.3336 123.52 23.332 123.52 23.332Z" fill="black"/>
<path d="M123.251 22.981C123.29 23.0279 123.338 22.9988 123.385 22.9891L123.389 22.9907C123.342 22.9891 123.294 22.9858 123.247 22.9842C123.247 22.9842 123.251 22.981 123.251 22.981Z" fill="black"/>
<path d="M124.397 23.3579C124.395 23.3628 124.393 23.3676 124.391 23.3725C124.397 23.3709 124.403 23.3692 124.409 23.3676C124.403 23.366 124.397 23.3644 124.391 23.3644C124.389 23.3644 124.397 23.3579 124.397 23.3579Z" fill="black"/>
<path d="M126.229 23.3516C126.194 23.3791 126.18 23.4131 126.182 23.4519L126.178 23.4535C126.198 23.4212 126.215 23.3904 126.235 23.358C126.235 23.3564 126.229 23.3516 126.229 23.3516Z" fill="black"/>
<path d="M108.326 23.4388C108.367 23.4372 108.411 23.434 108.452 23.4324C108.452 23.4324 108.45 23.434 108.452 23.434C108.411 23.434 108.371 23.4356 108.33 23.4356L108.326 23.4388Z" fill="black"/>
<path d="M111.283 23.4502C111.314 23.4405 111.347 23.4292 111.379 23.4195C111.379 23.4195 111.371 23.4227 111.373 23.4227C111.334 23.4016 111.302 23.4097 111.279 23.4437L111.283 23.4502Z" fill="black"/>
<path d="M115.775 23.4437C115.811 23.4373 115.848 23.4308 115.883 23.4259C115.883 23.4259 115.881 23.4308 115.881 23.4324C115.821 23.4 115.821 23.4 115.777 23.4373L115.775 23.4437Z" fill="black"/>
<path d="M116.907 23.4811C116.933 23.4795 116.958 23.5038 116.984 23.4698C117.006 23.439 116.978 23.4245 116.97 23.4018C116.97 23.4018 116.97 23.3937 116.97 23.3921C116.943 23.4212 116.903 23.4455 116.898 23.486L116.907 23.4811Z" fill="black"/>
<path d="M117.736 23.4114C117.697 23.4259 117.671 23.4502 117.665 23.4875C117.665 23.4875 117.663 23.4939 117.663 23.4955C117.716 23.4875 117.736 23.4567 117.742 23.4162C117.742 23.4146 117.736 23.4114 117.736 23.4114Z" fill="black"/>
<path d="M118.418 23.4973C118.49 23.4892 118.498 23.4811 118.502 23.418L118.496 23.4196C118.447 23.4293 118.42 23.4536 118.421 23.4973C118.423 23.4973 118.418 23.4973 118.418 23.4973Z" fill="black"/>
<path d="M125.013 22.9858L124.99 22.9923L125.007 22.981L125.013 22.9858Z" fill="black"/>
<path d="M120.147 23.3855C120.096 23.392 120.096 23.4227 120.1 23.4551L120.106 23.4599C120.122 23.4357 120.161 23.4211 120.141 23.3855C120.141 23.3839 120.147 23.3855 120.147 23.3855Z" fill="black"/>
<path d="M121.847 23.3904C121.815 23.4195 121.778 23.447 121.774 23.4891L121.786 23.4859C121.817 23.4859 121.853 23.5166 121.88 23.4729C121.908 23.4292 121.859 23.4211 121.841 23.3985C121.841 23.3969 121.847 23.3904 121.847 23.3904Z" fill="black"/>
<path d="M123.505 23.4294C123.497 23.4245 123.491 23.418 123.484 23.4148C123.434 23.3921 123.434 23.3921 123.403 23.4342L123.399 23.4391C123.436 23.4342 123.474 23.4294 123.511 23.4245C123.509 23.4245 123.505 23.4294 123.505 23.4294Z" fill="black"/>
<path d="M111.81 23.0692C111.806 23.063 111.802 23.0567 111.799 23.052C111.786 23.0692 111.789 23.0724 111.816 23.0614C111.816 23.0598 111.81 23.0692 111.81 23.0692Z" fill="black"/>
<path d="M108.328 23.4358C108.328 23.4714 108.326 23.5054 108.326 23.541C108.351 23.5281 108.373 23.5135 108.351 23.486C108.341 23.4714 108.334 23.4568 108.324 23.4406C108.326 23.439 108.328 23.4358 108.328 23.4358Z" fill="black"/>
<path d="M108.637 23.489C108.593 23.4939 108.547 23.4987 108.504 23.5036L108.5 23.5133C108.543 23.4955 108.587 23.4744 108.64 23.489C108.64 23.4906 108.637 23.489 108.637 23.489Z" fill="black"/>
<path d="M111.278 23.4438C111.257 23.4714 111.235 23.4989 111.213 23.5264L111.219 23.5329C111.241 23.507 111.262 23.4795 111.282 23.4519C111.282 23.4503 111.278 23.4438 111.278 23.4438Z" fill="black"/>
<path d="M112.83 23.4856C112.832 23.4919 112.834 23.5028 112.836 23.5028C112.857 23.506 112.864 23.4966 112.853 23.4809C112.851 23.4793 112.84 23.4825 112.832 23.484L112.83 23.4856Z" fill="black"/>
<path d="M112.231 23.0342C112.229 23.039 112.227 23.0439 112.223 23.0504C112.229 23.0487 112.233 23.0455 112.239 23.0439C112.233 23.0439 112.227 23.0423 112.221 23.0407C112.221 23.039 112.231 23.0342 112.231 23.0342Z" fill="black"/>
<path d="M115.349 23.4519C115.326 23.4778 115.302 23.5037 115.279 23.5296L115.282 23.5361C115.339 23.5312 115.349 23.4972 115.353 23.4584C115.353 23.4568 115.349 23.4519 115.349 23.4519Z" fill="black"/>
<path d="M115.777 23.4373C115.756 23.4712 115.734 23.5052 115.712 23.5392L115.72 23.5328C115.779 23.515 115.779 23.515 115.775 23.447C115.775 23.4437 115.777 23.4373 115.777 23.4373Z" fill="black"/>
<path d="M116.9 23.4875C116.902 23.4826 116.902 23.4778 116.904 23.4729C116.887 23.4842 116.89 23.4859 116.91 23.4794C116.908 23.481 116.9 23.4875 116.9 23.4875Z" fill="black"/>
<path d="M112.742 23.0673C112.74 23.0623 112.74 23.0556 112.738 23.0505C112.719 23.0623 112.723 23.0656 112.748 23.0589C112.748 23.0572 112.742 23.0673 112.742 23.0673Z" fill="black"/>
<path d="M120.619 23.0698C120.617 23.0633 120.617 23.0585 120.615 23.052C120.596 23.0633 120.598 23.0666 120.625 23.0617C120.627 23.0601 120.619 23.0698 120.619 23.0698Z" fill="black"/>
<path d="M120.017 23.515C120.046 23.4956 120.076 23.4778 120.105 23.4584L120.099 23.4519C120.074 23.4713 120.05 23.4891 120.025 23.5086C120.027 23.5102 120.017 23.515 120.017 23.515Z" fill="black"/>
<path d="M121.774 23.4896C121.779 23.4846 121.781 23.4779 121.785 23.4729C121.779 23.4746 121.772 23.4763 121.766 23.4796C121.774 23.4813 121.781 23.4829 121.787 23.4846C121.787 23.4863 121.774 23.4896 121.774 23.4896Z" fill="black"/>
<path d="M123.403 23.4341C123.385 23.4665 123.367 23.5004 123.348 23.5328L123.356 23.5263C123.389 23.5053 123.411 23.4794 123.399 23.4406C123.399 23.4389 123.403 23.4341 123.403 23.4341Z" fill="black"/>
<path d="M124.095 23.46C124.087 23.4891 124.064 23.5053 124.03 23.515L124.04 23.5199C124.048 23.4923 124.07 23.4761 124.103 23.4681L124.095 23.46Z" fill="black"/>
<path d="M125.382 23.5216C125.39 23.5232 125.398 23.5281 125.406 23.5264C125.414 23.5248 125.423 23.52 125.423 23.5151C125.429 23.4973 125.418 23.4876 125.396 23.4925C125.39 23.4941 125.388 23.5038 125.386 23.5103L125.382 23.5216Z" fill="black"/>
<path d="M108.183 23.5653C108.231 23.5572 108.278 23.5491 108.326 23.541C108.28 23.5459 108.233 23.5507 108.187 23.5556C108.187 23.554 108.183 23.5653 108.183 23.5653Z" fill="black"/>
<path d="M108.504 23.5037C108.508 23.5104 108.51 23.5154 108.514 23.5221C108.527 23.5053 108.523 23.5037 108.5 23.5137C108.498 23.5154 108.504 23.5037 108.504 23.5037Z" fill="black"/>
<path d="M121.137 23.002C121.139 23.007 121.143 23.012 121.145 23.0187C121.159 23.0036 121.155 23.0003 121.133 23.012L121.137 23.002Z" fill="black"/>
<path d="M112.832 23.4844C112.815 23.5151 112.795 23.5459 112.777 23.5766C112.777 23.5766 112.783 23.5831 112.783 23.5847C112.799 23.5524 112.813 23.52 112.828 23.4876C112.83 23.486 112.832 23.4844 112.832 23.4844Z" fill="black"/>
<path d="M113.507 23.4907C113.507 23.4972 113.505 23.5021 113.505 23.5085C113.528 23.5053 113.526 23.5004 113.503 23.4956C113.501 23.4956 113.507 23.4907 113.507 23.4907Z" fill="black"/>
<path d="M121.541 23.0617C121.545 23.0585 121.551 23.0568 121.555 23.0536C121.535 23.0439 121.533 23.0455 121.547 23.0585C121.549 23.0585 121.541 23.0617 121.541 23.0617Z" fill="black"/>
<path d="M115.712 23.5368C115.712 23.5323 115.714 23.5277 115.714 23.5232C115.7 23.5353 115.702 23.5368 115.719 23.5292C115.719 23.5308 115.712 23.5368 115.712 23.5368Z" fill="black"/>
<path d="M117.511 23.4956C117.511 23.5021 117.511 23.5086 117.511 23.5151C117.532 23.507 117.53 23.5021 117.503 23.5005L117.511 23.4956Z" fill="black"/>
<path d="M118.261 23.4956C118.261 23.5019 118.261 23.5081 118.261 23.5144C118.283 23.5066 118.281 23.5019 118.253 23.5003C118.255 23.5003 118.261 23.4956 118.261 23.4956Z" fill="black"/>
<path d="M120.027 23.5103C120.011 23.5216 120.013 23.5264 120.035 23.5216C120.031 23.5183 120.025 23.5167 120.019 23.5151C120.017 23.5151 120.027 23.5103 120.027 23.5103Z" fill="black"/>
<path d="M121.604 23.5766C121.608 23.5733 121.612 23.5701 121.616 23.5669C121.596 23.5604 121.594 23.562 121.61 23.5717C121.612 23.5717 121.604 23.5766 121.604 23.5766Z" fill="black"/>
<path d="M123.348 23.5329C123.346 23.528 123.344 23.5232 123.344 23.5183C123.336 23.5345 123.34 23.5361 123.358 23.5248C123.356 23.5264 123.348 23.5329 123.348 23.5329Z" fill="black"/>
<path d="M122.222 23.0408C122.222 23.0456 122.224 23.0505 122.224 23.0553C122.236 23.0408 122.232 23.0392 122.212 23.0472C122.214 23.0472 122.222 23.0408 122.222 23.0408Z" fill="black"/>
<path d="M125.386 23.5103C125.39 23.5151 125.394 23.5216 125.398 23.5265C125.409 23.5086 125.405 23.507 125.382 23.52C125.382 23.5216 125.386 23.5103 125.386 23.5103Z" fill="black"/>
<path d="M108.187 23.554C108.191 23.5607 108.193 23.5657 108.198 23.5724C108.212 23.5556 108.206 23.554 108.183 23.564C108.183 23.5657 108.187 23.554 108.187 23.554Z" fill="black"/>
<path d="M111.008 23.5765C111.049 23.5813 111.09 23.5862 111.131 23.5926L111.125 23.5975C111.084 23.5392 111.082 23.5392 111.013 23.5797C111.013 23.5781 111.008 23.5765 111.008 23.5765Z" fill="black"/>
<path d="M115.562 23.5458L115.548 23.5571L115.556 23.5393L115.562 23.5458Z" fill="black"/>
<path d="M116.559 23.5972L116.572 23.5896L116.567 23.6017L116.559 23.5972Z" fill="black"/>
<path d="M122.748 23.0633C122.744 23.0585 122.742 23.052 122.738 23.0471C122.724 23.0633 122.728 23.0649 122.752 23.0536L122.748 23.0633Z" fill="black"/>
<path d="M124.809 23.0649C124.807 23.0585 124.805 23.0536 124.803 23.0471C124.786 23.0617 124.79 23.0633 124.815 23.0552L124.809 23.0649Z" fill="black"/>
<path d="M119.875 23.5572C119.869 23.5572 119.863 23.5588 119.856 23.5588C119.869 23.5685 119.871 23.5653 119.865 23.5491C119.867 23.5491 119.875 23.5572 119.875 23.5572Z" fill="black"/>
<path d="M123.178 23.5571L123.166 23.5652C123.166 23.5652 123.18 23.5539 123.182 23.5522C123.184 23.5522 123.178 23.5571 123.178 23.5571Z" fill="black"/>
<path d="M125.299 23.0635C125.301 23.0586 125.305 23.0554 125.307 23.0505C125.285 23.0522 125.285 23.0554 125.307 23.0586C125.307 23.057 125.299 23.0635 125.299 23.0635Z" fill="black"/>
<path d="M63.0543 10.9133C63.0602 10.9328 63.0721 10.9489 63.0681 10.9635C62.9989 11.1594 62.9276 11.3536 62.8564 11.5495C62.8504 11.5657 62.8386 11.5819 62.8247 11.5932C62.8109 11.6045 62.7911 11.6223 62.7752 11.6207C62.6011 11.6045 62.421 11.6126 62.2527 11.5576C62.229 11.5495 62.2151 11.5123 62.2329 11.4961C62.2389 11.4896 62.2448 11.4815 62.2527 11.4766C62.4922 11.3002 62.7317 11.1238 62.9731 10.9489C62.9929 10.9328 63.0266 10.9247 63.0543 10.9133Z" fill="black"/>
</g>
<defs>
<clipPath id="clip0_1_3097">
<rect width="133" height="31" fill="white"/>
</clipPath>
</defs>
</svg>
