<svg width="164" height="38" viewBox="0 0 164 38" fill="none" xmlns="http://www.w3.org/2000/svg">
<g clip-path="url(#clip0_1_103)">
<path d="M117.553 15.9789C117.48 15.9828 117.444 16.0285 117.405 16.0681C117.175 16.2904 116.942 16.5146 116.714 16.7388C116.231 17.2111 115.753 17.6893 115.265 18.1575C114.984 18.4274 114.688 18.6893 114.394 18.9492C113.798 19.479 113.215 20.0207 112.65 20.5723C112.478 20.741 112.291 20.8978 112.116 21.0644C111.648 21.5069 111.185 21.9514 110.714 22.3919C110.032 23.0288 109.321 23.6439 108.543 24.2035C108.188 24.4595 107.82 24.7015 107.429 24.9198C107.092 25.1083 106.738 25.275 106.362 25.4059C106.053 25.5131 105.733 25.5786 105.403 25.6123C105.081 25.644 104.765 25.6004 104.467 25.4992C104.164 25.396 103.936 25.2174 103.758 24.9912C103.569 24.7492 103.465 24.4813 103.404 24.2015C103.353 23.9654 103.319 23.7273 103.312 23.4852C103.293 22.9534 103.421 22.4474 103.657 21.9573C103.843 21.5664 104.088 21.2013 104.363 20.8482C104.756 20.3461 105.204 19.8759 105.67 19.4195C106.07 19.0266 106.476 18.6357 106.876 18.2429C107.128 17.9948 107.371 17.7369 107.584 17.4631C107.727 17.2785 107.856 17.0861 107.941 16.8757C107.985 16.7646 107.999 16.6515 108.002 16.5364C108.006 16.3003 107.706 16.09 107.453 16.1019C107.339 16.1078 107.225 16.1138 107.114 16.1416C106.905 16.1951 106.706 16.2626 106.512 16.344C106.146 16.4948 105.804 16.6773 105.471 16.8698C104.688 17.3242 103.965 17.8361 103.266 18.3738C102.196 19.1993 101.196 20.0783 100.245 20.995C98.3968 22.7709 96.7277 24.6559 95.1847 26.6163C94.3816 27.6342 93.6174 28.672 92.8872 29.7236C91.7639 31.3388 90.6406 32.9539 89.5174 34.5691C89.4543 34.6584 89.3888 34.7477 89.3233 34.839C89.1146 34.8707 88.9109 34.8886 88.7071 34.8965C88.0181 34.9263 87.3291 34.956 86.6425 34.9858C86.5915 34.9878 86.5406 34.9838 86.4921 34.9818C86.4629 34.9818 86.4314 34.9322 86.4484 34.9084C86.5042 34.8271 86.56 34.7437 86.6182 34.6644C87.676 33.2595 88.7337 31.8547 89.7915 30.4518C93.5592 25.4476 97.3293 20.4434 101.097 15.4391C101.177 15.332 101.252 15.2248 101.325 15.1137C101.332 15.1018 101.315 15.078 101.306 15.0602C101.303 15.0562 101.277 15.0562 101.269 15.0621C101.206 15.1137 101.141 15.1633 101.085 15.2169C100.309 15.9789 99.5346 16.7428 98.7607 17.5067C97.897 18.3579 97.0334 19.2112 96.1672 20.0624C95.9804 20.2469 95.7839 20.4275 95.5898 20.6081C95.5146 20.6775 95.4321 20.745 95.3497 20.8105C95.2647 20.8759 95.1677 20.874 95.0731 20.8105C95.0149 20.7708 94.9785 20.6934 95.0052 20.6418C95.0343 20.5843 95.0658 20.5267 95.1119 20.4771C95.2138 20.37 95.3254 20.2688 95.4346 20.1676C96.5069 19.1715 97.5355 18.1476 98.5594 17.1178C99.309 16.3638 100.056 15.6098 100.799 14.8518C101.941 13.6851 102.992 12.4648 104.003 11.2207C104.348 10.7941 104.692 10.3675 105.039 9.94084C105.11 9.85353 105.183 9.7702 105.246 9.6948C105.748 9.59955 107.22 9.38526 107.444 9.3674C107.453 9.3674 107.465 9.37534 107.478 9.3793C107.48 9.47058 107.407 9.53407 107.356 9.60551C106.866 10.2901 106.371 10.9726 105.879 11.6552C103.402 15.0899 100.925 18.5246 98.4478 21.9593C98.3774 22.0566 98.2876 22.1478 98.2537 22.2629C98.2512 22.2708 98.2634 22.2828 98.2706 22.2887C98.2779 22.2947 98.2925 22.2986 98.2973 22.2966C98.3459 22.2629 98.3992 22.2331 98.438 22.1954C98.7777 21.868 99.1125 21.5407 99.4497 21.2133C100.289 20.3997 101.15 19.6001 102.053 18.8302C102.752 18.2349 103.477 17.6595 104.249 17.1277C104.659 16.846 105.085 16.5781 105.534 16.338C105.908 16.1376 106.299 15.961 106.716 15.8261C107.089 15.705 107.473 15.6435 107.875 15.6673C108.181 15.6852 108.443 15.7784 108.669 15.9451C108.793 16.0364 108.894 16.1435 108.977 16.2626C109.079 16.4094 109.154 16.5622 109.205 16.7249C109.375 17.2746 109.372 17.8182 109.142 18.3599C109.021 18.6476 108.868 18.9215 108.693 19.1893C108.421 19.604 108.108 19.9989 107.771 20.3779C107.337 20.868 106.888 21.3502 106.451 21.8403C106.151 22.1776 105.855 22.5189 105.566 22.8622C105.362 23.1022 105.183 23.3562 105.022 23.6181C104.904 23.8146 104.802 24.017 104.726 24.2293C104.675 24.3721 104.651 24.517 104.646 24.6618C104.639 24.9654 104.809 25.1341 105.209 25.1897C105.348 25.2095 105.488 25.1996 105.629 25.1777C105.906 25.1321 106.172 25.0646 106.427 24.9654C106.738 24.8424 107.031 24.6936 107.313 24.5309C107.793 24.2511 108.235 23.9356 108.662 23.6062C109.302 23.1102 109.904 22.5844 110.484 22.0407C111.005 21.5526 111.515 21.0565 112.031 20.5684C112.325 20.2926 112.626 20.0227 112.922 19.7489C113.691 19.0366 114.472 18.3322 115.229 17.6099C116.971 15.9531 118.587 14.2188 120.035 12.3795C120.622 11.6334 121.166 10.8655 121.709 10.0976C123.017 8.25623 124.327 6.41486 125.634 4.5735C125.642 4.56358 125.649 4.55564 125.654 4.5477C125.819 4.32745 125.763 4.30959 126.156 4.27586C126.549 4.24213 126.94 4.19252 127.335 4.16673C127.68 4.1449 128.017 4.07546 128.364 4.08339C128.395 4.08339 128.436 4.12506 128.427 4.14689C128.417 4.16673 128.41 4.18657 128.398 4.20443C128.335 4.2957 128.274 4.38698 128.208 4.47627C127.684 5.20448 127.163 5.93468 126.631 6.66091C124.181 10.0242 121.726 13.3835 119.276 16.7468C118.164 18.2706 117.068 19.8025 115.996 21.3442C115.913 21.4613 115.833 21.5803 115.751 21.6994C115.731 21.7272 115.719 21.753 115.738 21.7867C115.755 21.8125 115.801 21.7986 115.857 21.747C115.952 21.6617 116.044 21.5744 116.139 21.491C116.75 20.9434 117.354 20.3918 117.973 19.8481C118.836 19.0921 119.732 18.3619 120.671 17.6694C121.221 17.2646 121.787 16.8737 122.388 16.5186C122.73 16.3162 123.082 16.1277 123.456 15.9669C123.706 15.8598 123.96 15.7626 124.235 15.707C124.574 15.6396 124.916 15.6376 125.253 15.7288C125.569 15.8142 125.814 15.9709 126.008 16.1892C126.122 16.3162 126.209 16.4571 126.275 16.6039C126.442 16.9849 126.486 17.3777 126.435 17.7766C126.411 17.9631 126.338 18.1437 126.26 18.3202C126.132 18.604 125.969 18.8758 125.787 19.1397C125.513 19.5405 125.21 19.9275 124.885 20.3025C124.426 20.8303 123.956 21.3502 123.495 21.878C123.182 22.2351 122.873 22.5923 122.573 22.9554C122.323 23.257 122.092 23.5725 121.905 23.9039C121.791 24.1043 121.702 24.3087 121.653 24.5249C121.634 24.6083 121.624 24.6916 121.646 24.773C121.724 25.0646 121.981 25.1738 122.235 25.1897C122.362 25.1976 122.49 25.1857 122.616 25.1698C122.946 25.1262 123.257 25.0329 123.55 24.9019C123.912 24.7412 124.242 24.5468 124.56 24.3364C124.996 24.0467 125.411 23.7352 125.809 23.4098C126.466 22.8701 127.122 22.3264 127.767 21.7768C128.058 21.5287 128.327 21.2629 128.604 21.0029C128.905 20.7192 129.193 20.4255 129.518 20.1596C129.628 20.0723 129.717 19.9691 129.814 19.8719C131.076 18.6159 132.554 17.5682 134.281 16.7626C135.069 16.3955 135.897 16.0959 136.775 15.8955C137.379 15.7566 137.993 15.6634 138.621 15.6614C138.762 15.6614 138.903 15.6594 139.043 15.6693C139.664 15.711 140.125 15.955 140.414 16.4074C140.509 16.5563 140.574 16.715 140.615 16.8797C140.686 17.1793 140.71 17.4809 140.669 17.7845C140.644 17.971 140.606 18.1556 140.577 18.3421C140.574 18.3579 140.591 18.3837 140.606 18.3877C140.625 18.3917 140.661 18.3857 140.674 18.3718C140.727 18.3143 140.778 18.2548 140.824 18.1913C141.093 17.8123 141.363 17.4333 141.632 17.0543C141.765 16.8638 141.894 16.6714 142.032 16.4848C142.112 16.3777 142.2 16.2745 142.299 16.1793C142.462 16.0205 142.67 15.9292 142.93 15.9193C143.364 15.9015 143.796 15.8796 144.23 15.8638C144.473 15.8538 144.715 15.8519 144.958 15.8479C144.992 15.8479 145.033 15.8479 145.05 15.8856C145.065 15.9213 145.041 15.9451 145.024 15.9709C145.016 15.9808 145.009 15.9888 145.002 15.9967C144.235 16.8202 143.539 17.6833 142.85 18.5504C141.952 19.6794 141.088 20.8263 140.285 22.003C139.931 22.5228 139.587 23.0467 139.286 23.5884C139.138 23.8543 139.002 24.1241 138.905 24.4059C138.864 24.5289 138.849 24.6519 138.861 24.7769C138.878 24.9496 138.99 25.0686 139.184 25.1341C139.39 25.2035 139.606 25.2135 139.822 25.1738C140.06 25.1321 140.285 25.0627 140.504 24.9734C140.778 24.8583 141.035 24.7234 141.283 24.5765C141.76 24.2948 142.204 23.9813 142.631 23.6519C143.442 23.0288 144.204 22.3681 144.939 21.6855C145.334 21.3164 145.72 20.9414 146.115 20.5704C146.368 20.3342 146.627 20.1061 146.882 19.8699C147.624 19.1794 148.374 18.4949 149.107 17.7964C150.613 16.3618 152.057 14.8855 153.396 13.3438C153.508 13.2168 153.607 13.0839 153.711 12.9529C153.728 12.9331 153.694 12.8815 153.665 12.8795C153.602 12.8755 153.539 12.8696 153.476 12.8696C153.156 12.8676 152.838 12.8696 152.518 12.8676C152.416 12.8676 152.314 12.8656 152.212 12.8596C152.093 12.8517 152.006 12.7684 152.016 12.6652C152.03 12.5045 152.147 12.4231 152.299 12.4231C152.746 12.4231 153.195 12.4231 153.641 12.4211C153.767 12.4211 153.896 12.433 154.017 12.4053C154.114 12.3437 154.16 12.2564 154.221 12.1771C154.929 11.2346 155.64 10.292 156.348 9.34954C156.402 9.27811 156.458 9.20866 156.506 9.13524C156.574 9.03206 156.681 8.98841 156.819 8.98643C156.831 8.98643 156.843 8.98444 156.858 8.98444C157.394 8.95865 157.928 8.93285 158.464 8.90706C158.707 8.89515 158.947 8.87928 159.189 8.86539C159.214 8.8634 159.255 8.87332 159.257 8.88325C159.267 8.91103 159.267 8.94277 159.257 8.97055C159.248 9.00032 159.219 9.02413 159.199 9.04992C159.151 9.11143 159.102 9.17294 159.054 9.23446C158.294 10.1869 157.532 11.1413 156.773 12.0937C156.717 12.1632 156.661 12.2346 156.608 12.3041C156.567 12.3596 156.593 12.4152 156.664 12.4191C156.741 12.4211 156.817 12.4251 156.894 12.4251C157.469 12.4251 158.044 12.4251 158.619 12.4251C159.514 12.4251 160.407 12.4251 161.303 12.4251C161.366 12.4251 161.431 12.4311 161.494 12.4251C161.625 12.4132 161.713 12.4668 161.793 12.5402C161.793 12.6235 161.793 12.7069 161.793 12.7902C161.732 12.8299 161.671 12.8676 161.589 12.8676C161.475 12.8676 161.358 12.8716 161.244 12.8716C159.699 12.8716 158.153 12.8716 156.608 12.8716C156.13 12.8716 156.227 12.8358 155.98 13.1573C155.346 13.9787 154.713 14.8002 154.073 15.6177C152.916 17.094 151.749 18.5663 150.635 20.0644C150.053 20.8501 149.483 21.6399 148.954 22.4514C148.677 22.876 148.41 23.3026 148.192 23.7491C148.102 23.9336 148.022 24.1202 147.952 24.3106C147.891 24.4714 147.874 24.638 147.908 24.8067C147.942 24.9654 148.056 25.0726 148.233 25.1301C148.364 25.1718 148.5 25.1976 148.643 25.1996C148.915 25.2035 149.175 25.1599 149.434 25.1004C149.757 25.0269 150.055 24.9138 150.346 24.7809C150.863 24.5468 151.334 24.259 151.783 23.9495C152.066 23.7551 152.345 23.5546 152.612 23.3463C153.575 22.5982 154.519 21.8343 155.388 21.0109C155.572 20.8363 155.747 20.6577 155.929 20.4831C155.987 20.4275 156.048 20.3739 156.118 20.3283C156.181 20.2866 156.259 20.2787 156.334 20.3084C156.368 20.3223 156.402 20.3342 156.416 20.368C156.446 20.4414 156.453 20.5148 156.399 20.5783C156.322 20.6735 156.239 20.7668 156.15 20.8541C155.834 21.1557 155.524 21.4613 155.194 21.753C154.211 22.6201 153.187 23.4495 152.081 24.2094C151.678 24.4853 151.261 24.7432 150.819 24.9734C150.497 25.142 150.16 25.2889 149.805 25.4099C149.485 25.519 149.15 25.5905 148.808 25.6143C148.299 25.648 147.816 25.5587 147.389 25.3206C146.979 25.0924 146.746 24.7611 146.627 24.3741C146.533 24.0666 146.537 23.7531 146.574 23.4396C146.656 22.7252 146.906 22.0486 147.268 21.3978C147.537 20.9116 147.852 20.4473 148.192 19.991C148.762 19.2231 149.388 18.4849 150.014 17.7468C150.189 17.5404 150.361 17.3341 150.533 17.1277C150.55 17.1059 150.548 17.0861 150.519 17.0741C150.509 17.0702 150.492 17.0722 150.485 17.0781C150.456 17.098 150.426 17.1178 150.402 17.1416C149.798 17.7091 149.196 18.2766 148.59 18.8421C147.983 19.4076 147.374 19.9691 146.768 20.5366C146.423 20.8601 146.091 21.1894 145.747 21.5109C145.3 21.9256 144.854 22.3423 144.393 22.7471C143.582 23.4594 142.733 24.136 141.787 24.7293C141.535 24.888 141.268 25.0309 140.999 25.1738C140.773 25.2928 140.533 25.3881 140.283 25.4694C140.055 25.5448 139.82 25.5925 139.579 25.6143C139.245 25.644 138.917 25.5964 138.604 25.4932C138.388 25.4218 138.211 25.3028 138.068 25.15C137.925 24.9992 137.828 24.8305 137.755 24.6519C137.677 24.4634 137.624 24.269 137.595 24.0725C137.561 23.8443 137.542 23.6142 137.527 23.386C137.512 23.1876 137.52 22.9891 137.554 22.7927C137.563 22.7411 137.559 22.6895 137.551 22.6379C137.551 22.63 137.503 22.6161 137.493 22.6221C137.432 22.6578 137.372 22.6975 137.318 22.7391C136.855 23.0983 136.399 23.4634 135.931 23.8185C135.501 24.1459 135.048 24.4515 134.572 24.7353C134.191 24.9634 133.796 25.1738 133.369 25.3444C133.058 25.4674 132.735 25.5647 132.391 25.6044C132.328 25.6123 132.265 25.6202 132.202 25.6222C131.789 25.6242 131.387 25.5726 131.008 25.4377C130.676 25.3186 130.397 25.1381 130.171 24.9039C129.958 24.6797 129.802 24.4277 129.693 24.1598C129.572 23.8622 129.497 23.5566 129.451 23.2431C129.4 22.8899 129.383 22.5348 129.39 22.1796C129.397 21.8343 129.451 21.493 129.506 21.1517C129.523 21.0486 129.538 20.9454 129.548 20.8402C129.55 20.8263 129.521 20.8105 129.504 20.7985C129.499 20.7946 129.48 20.7985 129.472 20.8045C129.436 20.8343 129.402 20.866 129.371 20.8978C128.803 21.4216 128.242 21.9494 127.665 22.4673C126.952 23.1082 126.207 23.7253 125.399 24.2888C124.962 24.5944 124.506 24.8801 124.011 25.1222C123.65 25.2988 123.271 25.4476 122.859 25.5369C122.648 25.5825 122.434 25.6063 122.218 25.6242C121.973 25.644 121.733 25.6083 121.5 25.5508C121.173 25.4694 120.911 25.3067 120.719 25.0726C120.598 24.9238 120.51 24.7611 120.452 24.5904C120.394 24.4198 120.343 24.2471 120.336 24.0686C120.331 23.9019 120.316 23.7352 120.319 23.5685C120.321 23.007 120.496 22.4752 120.756 21.9593C120.945 21.5823 121.185 21.2252 121.452 20.8799C121.842 20.3759 122.284 19.9037 122.75 19.4453C123.14 19.0604 123.541 18.6794 123.931 18.2945C124.142 18.0861 124.346 17.8718 124.545 17.6535C124.705 17.4769 124.846 17.2924 124.965 17.094C125.05 16.9511 125.105 16.8023 125.135 16.6475C125.171 16.4491 125.045 16.2408 124.829 16.1475C124.785 16.1277 124.732 16.1197 124.683 16.1158C124.569 16.1078 124.455 16.1158 124.344 16.1435C124.135 16.1951 123.936 16.2626 123.742 16.344C123.412 16.4829 123.104 16.6495 122.801 16.8261C122.24 17.1535 121.709 17.5146 121.195 17.8897C120.105 18.6814 119.079 19.5247 118.084 20.3958C116.959 21.3799 115.874 22.3939 114.853 23.4515C114.472 23.8443 114.098 24.2412 113.754 24.6559C113.569 24.8801 113.395 25.1123 113.218 25.3424C113.174 25.4 113.116 25.4357 113.033 25.4397C112.665 25.4655 112.296 25.4893 111.927 25.5151C111.786 25.525 111.648 25.5369 111.507 25.5468C111.189 25.5686 110.872 25.5905 110.554 25.6103C110.525 25.6123 110.484 25.5607 110.496 25.5409C110.544 25.4674 110.59 25.392 110.639 25.3206C111.803 23.64 113.002 21.9772 114.242 20.3342C115.273 18.9651 116.328 17.6099 117.415 16.2686C117.463 16.207 117.517 16.1475 117.56 16.084C117.577 16.0582 117.577 16.0245 117.585 15.9947C117.631 16.0047 117.645 15.9789 117.66 15.9511C117.672 15.9292 117.667 15.9114 117.64 15.9035C117.633 15.9015 117.616 15.9054 117.609 15.9114C117.563 15.9253 117.539 15.9471 117.553 15.9789ZM138.66 16.1019C138.604 16.1058 138.461 16.1039 138.325 16.1237C137.961 16.1773 137.607 16.2646 137.27 16.3936C136.816 16.5662 136.399 16.7845 136.003 17.0345C135.567 17.3103 135.169 17.6178 134.793 17.9472C133.924 18.7052 133.199 19.5505 132.583 20.4573C132.136 21.116 131.753 21.7966 131.476 22.5169C131.319 22.9256 131.207 23.3423 131.149 23.7689C131.115 24.0209 131.132 24.269 131.202 24.515C131.234 24.6281 131.285 24.7353 131.357 24.8345C131.474 24.9912 131.634 25.1023 131.855 25.1579C132.032 25.2035 132.207 25.2055 132.384 25.1777C132.595 25.144 132.806 25.1004 133.007 25.0329C133.315 24.9297 133.606 24.8027 133.888 24.6579C134.332 24.4297 134.747 24.1678 135.145 23.89C135.785 23.4415 136.375 22.9495 136.928 22.4276C137.726 21.6776 138.442 20.8799 139.046 20.0148C139.313 19.6338 139.55 19.2409 139.744 18.8322C139.934 18.4314 140.077 18.0226 140.128 17.592C140.154 17.3698 140.128 17.1535 140.074 16.9392C140.038 16.7964 139.965 16.6614 139.863 16.5384C139.715 16.3598 139.519 16.2348 139.271 16.1614C139.097 16.1078 138.922 16.1019 138.66 16.1019Z" fill="white"/>
<path d="M45.9038 37.1032C45.8868 37.0894 45.8722 37.0675 45.8504 37.0616C45.7679 37.0338 45.683 37.01 45.5981 36.9882C44.8363 36.8056 44.402 36.377 44.2201 35.7619C44.0624 35.2301 44.1085 34.7043 44.3341 34.1904C44.4845 33.8432 44.698 33.5237 44.9503 33.2221C45.2754 32.8332 45.6515 32.478 46.0542 32.1427C46.6729 31.6288 47.3449 31.1625 48.0412 30.72C49.0601 30.0711 50.1227 29.4739 51.1999 28.8965C52.738 28.073 54.3077 27.2912 55.8798 26.5134C56.3044 26.3031 56.2001 26.4003 56.4402 26.0273C57.5684 24.2732 58.6965 22.5172 59.8246 20.7611C59.8828 20.6679 59.9435 20.5766 59.9944 20.4813C60.0066 20.4595 59.9872 20.4258 59.9774 20.3802C59.9265 20.4218 59.8877 20.4476 59.8561 20.4794C58.5849 21.7929 57.1656 22.9934 55.6299 24.1006C55.0938 24.4875 54.5309 24.8506 53.9341 25.1721C53.6357 25.3328 53.3276 25.4816 53.0025 25.6046C52.806 25.678 52.6022 25.7376 52.3911 25.7832C52.2795 25.807 52.1655 25.8169 52.0515 25.8229C51.6754 25.8427 51.3503 25.7376 51.0568 25.555C50.8942 25.4518 50.7535 25.3308 50.6346 25.1939C50.3532 24.8744 50.1834 24.5193 50.1082 24.1303C50.0208 23.6859 50.1009 23.2573 50.2416 22.8307C50.3678 22.4457 50.5594 22.0826 50.7802 21.7274C51.0058 21.3643 51.2581 21.0131 51.5371 20.6758C51.8647 20.277 52.2043 19.8861 52.5415 19.4912C52.8399 19.14 53.1432 18.7908 53.4392 18.4376C53.6405 18.1955 53.8225 17.9435 53.9778 17.6816C54.0724 17.5209 54.1524 17.3582 54.2131 17.1855C54.2665 17.0328 54.281 16.878 54.264 16.7212C54.2495 16.5704 54.1476 16.4732 53.9778 16.4176C53.7546 16.3442 53.5289 16.3482 53.2985 16.3839C52.9831 16.4315 52.6871 16.5268 52.4032 16.6518C52.066 16.8026 51.7531 16.9812 51.4522 17.1776C51.0301 17.4494 50.6346 17.7451 50.2562 18.0566C49.2639 18.8702 48.308 19.7135 47.4007 20.5905C47.0125 20.9655 46.6195 21.3366 46.2095 21.6937C45.3967 22.4021 44.4166 22.8942 43.2691 23.1521C42.6989 23.2811 42.1191 23.3486 41.5271 23.3009C41.4155 23.293 41.3331 23.3148 41.2506 23.3763C40.729 23.7772 40.1758 24.1482 39.5936 24.4895C38.9798 24.8467 38.3344 25.1661 37.6454 25.4181C37.2015 25.5808 36.7454 25.7078 36.2698 25.7951C35.8307 25.8745 35.3867 25.9122 34.9379 25.8785C34.1446 25.8209 33.5357 25.5213 33.1548 24.9379C32.9655 24.6482 32.8564 24.3387 32.8054 24.0153C32.752 23.674 32.7253 23.3307 32.7836 22.9854C32.8272 22.7255 32.8976 22.4735 32.9922 22.2235C33.1475 21.8128 33.3586 21.4219 33.6012 21.0429C33.9432 20.5052 34.3387 19.9932 34.7584 19.4952C35.2436 18.9198 35.7701 18.3662 36.2892 17.8106C36.4445 17.6439 36.5925 17.4752 36.7405 17.3046C36.7914 17.2451 36.8303 17.1776 36.8618 17.1121C36.8739 17.0883 36.8569 17.0526 36.8448 17.0248C36.8327 17.001 36.7769 17.005 36.7454 17.0268C36.7065 17.0546 36.6653 17.0804 36.6313 17.1101C36.561 17.1716 36.493 17.2332 36.4251 17.2967C36.2237 17.4852 36.0272 17.6776 35.821 17.8641C35.1902 18.4396 34.5546 19.013 33.9263 19.5904C33.475 20.0031 33.0359 20.4238 32.5871 20.8385C31.801 21.5667 31.0198 22.2989 30.2192 23.0172C29.5399 23.6283 28.8121 24.1998 28.0382 24.7316C27.6767 24.9796 27.3006 25.2137 26.8979 25.4181C26.6044 25.5669 26.2987 25.6959 25.9712 25.7892C25.549 25.9082 25.1245 25.9241 24.6902 25.8328C24.3117 25.7534 24.023 25.5828 23.8119 25.3149C23.6712 25.1383 23.5815 24.9439 23.5184 24.7395C23.4311 24.4558 23.3753 24.1661 23.3655 23.8744C23.3583 23.6343 23.3631 23.3942 23.3631 23.1541C23.3631 23.0906 23.368 23.0291 23.3655 22.9656C23.3655 22.9477 23.3486 22.9299 23.334 22.916C23.3122 22.8962 23.2903 22.9001 23.2661 22.918C23.1836 22.9835 23.0987 23.047 23.0162 23.1105C22.6013 23.4359 22.1889 23.7633 21.7692 24.0827C21.3495 24.4022 20.9055 24.7038 20.4446 24.9836C20.1049 25.1879 19.7555 25.3804 19.3819 25.5411C19.0884 25.6681 18.7851 25.7713 18.46 25.8408C18.181 25.8983 17.902 25.9003 17.623 25.8785C17.4581 25.8666 17.2955 25.8348 17.1354 25.7971C16.5822 25.6701 16.1601 25.3963 15.8496 25.0054C15.6385 24.7395 15.5002 24.4478 15.408 24.1423C15.311 23.8188 15.2382 23.4875 15.2309 23.1521C15.2261 22.8704 15.2212 22.5886 15.2236 22.3068C15.2285 21.9517 15.2891 21.6005 15.3668 21.2492C15.3789 21.1977 15.3838 21.1461 15.3838 21.0945C15.3838 21.0806 15.3619 21.0647 15.3449 21.0528C15.3377 21.0488 15.3183 21.0508 15.311 21.0548C15.2722 21.0826 15.2358 21.1103 15.2018 21.1421C15.032 21.2989 14.8646 21.4556 14.6923 21.6104C13.8529 22.3604 12.8437 22.8843 11.6428 23.1541C11.0605 23.2851 10.4685 23.3565 9.86444 23.299C9.76497 23.289 9.69219 23.3168 9.62426 23.3704C9.25307 23.6581 8.86732 23.9299 8.46459 24.1879C7.89932 24.549 7.30978 24.8784 6.679 25.1562C6.15012 25.3903 5.60425 25.5868 5.02199 25.7197C4.50281 25.8408 3.97635 25.9003 3.43534 25.8864C3.20244 25.8804 2.97924 25.8447 2.75846 25.7892C2.24899 25.6602 1.86082 25.4042 1.58182 25.0312C1.39986 24.7871 1.28098 24.5252 1.21305 24.2454C1.04808 23.5787 1.07962 22.918 1.33193 22.2652C1.49448 21.8465 1.70555 21.4437 1.95301 21.0548C2.31207 20.4873 2.73178 19.9516 3.17818 19.4297C3.6173 18.9158 4.08553 18.4197 4.55376 17.9237C4.73329 17.7332 4.90554 17.5387 5.07779 17.3443C5.153 17.2609 5.22821 17.1756 5.2549 17.0705C5.25975 17.0546 5.24519 17.0288 5.23064 17.0169C5.21608 17.005 5.18211 16.999 5.16271 17.005C5.12874 17.0169 5.09477 17.0367 5.07051 17.0585C4.95649 17.1578 4.84246 17.255 4.73086 17.3562C4.05156 17.9812 3.37226 18.6043 2.69539 19.2313C2.12041 19.7631 1.54785 20.2968 0.972873 20.8306C0.853996 20.9397 0.737544 21.0508 0.613814 21.156C0.475528 21.2731 0.397893 21.283 0.206233 21.2115C0.157712 21.1937 0.111617 21.1838 0.0606689 21.1857C0.0606689 21.1441 0.0606689 21.1024 0.0606689 21.0607C0.114043 21.0707 0.16499 21.0687 0.198955 21.031C1.16211 20.0012 2.24656 19.0567 3.28978 18.0824C3.54937 17.8384 3.81381 17.5963 4.07825 17.3562C4.52465 16.9514 4.9298 16.5228 5.31312 16.0783C6.05065 15.2251 6.74693 14.3501 7.43109 13.4691C9.042 11.3975 10.5826 9.29425 12.094 7.1751C12.6156 6.4449 13.1251 5.70875 13.6394 4.97657C13.6782 4.92299 13.7219 4.86942 13.7534 4.81386C13.8141 4.7087 13.9111 4.66306 14.0518 4.64719C14.5055 4.59361 14.9592 4.5321 15.4129 4.47456C15.7647 4.42892 16.1189 4.38527 16.4706 4.34161C16.5046 4.33765 16.541 4.34955 16.575 4.3555C16.5774 4.45273 16.5022 4.51424 16.4488 4.58567C15.852 5.40119 15.2503 6.21473 14.6535 7.02826C12.225 10.3419 9.79408 13.6536 7.37286 16.9693C6.32479 18.4039 5.29614 19.8464 4.31115 21.3088C3.906 21.912 3.50327 22.5192 3.15391 23.1462C3.01563 23.3922 2.89432 23.6442 2.77545 23.8982C2.71965 24.0153 2.69053 24.1383 2.64929 24.2593C2.57408 24.4776 2.59834 24.6939 2.65657 24.9102C2.73906 25.2217 2.98409 25.4122 3.4038 25.4459C3.69493 25.4697 3.98848 25.4578 4.28204 25.4201C5.39318 25.2792 6.37089 24.8923 7.26611 24.3506C8.39181 23.666 9.26762 22.8029 9.92509 21.7949C10.4346 21.0151 10.7791 20.1897 10.9562 19.3166C11.0484 18.8622 11.1066 18.4058 11.0993 17.9455C11.0945 17.6102 11.1139 17.2768 11.1697 16.9454C11.1964 16.7788 11.2449 16.6181 11.3225 16.4613C11.4972 16.116 11.8199 15.9434 12.2711 15.9256C12.4118 15.9196 12.5525 15.9136 12.6884 15.9533C12.8752 16.0089 13.0232 16.1041 13.1396 16.2331C13.2464 16.3522 13.3192 16.4871 13.3677 16.628C13.4283 16.7986 13.4623 16.9732 13.472 17.1518C13.4963 17.6796 13.3798 18.1915 13.1954 18.6936C13.0014 19.2154 12.7369 19.7115 12.4288 20.1936C11.9023 21.0211 11.274 21.7929 10.5656 22.5231C10.4855 22.6045 10.4103 22.6878 10.3351 22.7712C10.3084 22.8009 10.3472 22.8604 10.3957 22.8644C10.5995 22.8843 10.8033 22.8803 11.0071 22.8585C11.5942 22.793 12.1474 22.6402 12.6714 22.416C13.3701 22.1164 13.9815 21.7294 14.4934 21.2373C14.964 20.7849 15.4371 20.3325 15.9151 19.8821C17.1281 18.7352 18.528 17.7689 20.1437 17.0208C20.9468 16.6498 21.7837 16.3482 22.6765 16.1498C23.3583 15.999 24.0473 15.9057 24.7557 15.9216C24.9619 15.9256 25.1608 15.9593 25.3549 16.0148C25.7043 16.116 25.9784 16.2966 26.1774 16.5526C26.3569 16.7867 26.4636 17.0407 26.5 17.3145C26.551 17.7213 26.5389 18.128 26.4394 18.5308C26.4321 18.5606 26.4345 18.5924 26.4345 18.6241C26.4345 18.632 26.4442 18.6459 26.4491 18.6459C26.4733 18.644 26.5049 18.644 26.517 18.632C26.5583 18.5924 26.5971 18.5507 26.6286 18.507C26.8688 18.1757 27.1114 17.8423 27.3492 17.509C27.4972 17.3006 27.6354 17.0903 27.7859 16.8839C27.8683 16.7669 27.9581 16.6518 28.0527 16.5407C28.2565 16.3006 28.5355 16.1835 28.8946 16.1736C29.4938 16.1577 30.0931 16.1319 30.6923 16.1121C30.7554 16.1101 30.8185 16.116 30.8815 16.124C30.8937 16.126 30.9082 16.1617 30.9034 16.1756C30.8912 16.2053 30.8694 16.2311 30.8476 16.2569C30.047 17.124 29.3143 18.0308 28.5937 18.9416C27.6573 20.1262 26.7548 21.3246 25.9226 22.5608C25.6509 22.9636 25.3913 23.3704 25.156 23.7871C25.0226 24.0232 24.8915 24.2613 24.7969 24.5113C24.7557 24.6205 24.7217 24.7316 24.6926 24.8447C24.6781 24.8943 24.6708 24.9498 24.6805 24.9994C24.7169 25.2455 24.8382 25.3884 25.1827 25.4399C25.3816 25.4697 25.5878 25.4598 25.7892 25.4122C26.0997 25.3387 26.3836 25.2237 26.6577 25.0887C27.1066 24.8665 27.519 24.6026 27.9169 24.3228C28.6932 23.7772 29.4089 23.1819 30.1052 22.5688C30.7554 21.9933 31.3813 21.4 32.0024 20.8048C32.8733 19.9694 33.7613 19.1479 34.6444 18.3245C35.0641 17.9316 35.4935 17.5427 35.9156 17.1538C36.2553 16.8403 36.5585 16.5049 36.8545 16.1656C37.6333 15.2727 38.3635 14.3521 39.0792 13.4274C41.0735 10.8519 42.9779 8.23071 44.8315 5.58573C44.9843 5.36746 45.1347 5.15118 45.2876 4.93291C45.3312 4.86942 45.3773 4.80592 45.4258 4.74441C45.4622 4.69878 45.5156 4.66901 45.5811 4.66107C45.7704 4.63528 45.9596 4.61147 46.1488 4.58766C46.6025 4.53012 47.0562 4.47059 47.5098 4.41305C47.7112 4.38725 47.9126 4.36542 48.1164 4.3436C48.1479 4.33963 48.1891 4.38328 48.1722 4.40709C48.1115 4.49837 48.0509 4.58964 47.9854 4.67893C46.8863 6.17306 45.7849 7.6652 44.6908 9.16131C42.6723 11.9194 40.6538 14.6795 38.6401 17.4415C37.7255 18.6975 36.8303 19.9615 35.969 21.2433C35.5323 21.8921 35.1053 22.5469 34.7269 23.2196C34.5837 23.4756 34.4551 23.7375 34.346 24.0053C34.2513 24.2355 34.2052 24.4716 34.2368 24.7137C34.2465 24.797 34.2659 24.8784 34.2926 24.9598C34.3872 25.2614 34.6468 25.4122 35.0083 25.4439C35.2752 25.4677 35.5444 25.4618 35.8113 25.43C36.5634 25.3407 37.2694 25.1403 37.9366 24.8407C38.5892 24.547 39.1811 24.1859 39.7173 23.7633C40.8867 22.8366 41.7067 21.7314 42.2137 20.4694C42.4418 19.902 42.5825 19.3186 42.6577 18.7253C42.6917 18.4554 42.6868 18.1836 42.7014 17.9118C42.7159 17.63 42.7329 17.3482 42.7547 17.0665C42.7693 16.8879 42.8251 16.7173 42.893 16.5486C43.0459 16.1716 43.4001 15.9275 43.9629 15.9236C44.0891 15.9236 44.2152 15.9216 44.339 15.9613C44.5379 16.0268 44.6859 16.1359 44.7975 16.2807C44.9212 16.4415 44.9989 16.6181 45.0401 16.8046C45.108 17.0943 45.1129 17.384 45.0741 17.6776C44.9989 18.2431 44.8048 18.7809 44.5476 19.3067C44.2565 19.9 43.8901 20.4595 43.4801 21.0032C43.058 21.5647 42.5946 22.1005 42.09 22.6144C42.0415 22.664 41.993 22.7116 41.9493 22.7632C41.9372 22.7771 41.9396 22.8009 41.9372 22.8208C41.9347 22.8426 41.9808 22.8704 42.0221 22.8704C42.2137 22.8684 42.4054 22.8783 42.5946 22.8604C43.1162 22.8069 43.616 22.6838 44.0915 22.4973C44.8363 22.2037 45.4938 21.8148 46.0348 21.2989C46.1585 21.1798 46.2823 21.0607 46.406 20.9417C46.5394 20.8147 46.6631 20.6818 46.8184 20.5706C46.8742 20.529 46.9203 20.4774 46.9688 20.4298C47.6748 19.769 48.376 19.1063 49.0892 18.4495C49.6157 17.9653 50.181 17.511 50.785 17.0903C51.1538 16.8323 51.5396 16.5903 51.9568 16.3859C52.2407 16.245 52.5367 16.124 52.8545 16.0387C53.1602 15.9553 53.4731 15.9117 53.7958 15.9256C54.2204 15.9434 54.5891 16.0664 54.8997 16.3085C55.0962 16.4613 55.2442 16.6438 55.3485 16.8482C55.5644 17.2709 55.6445 17.7094 55.5863 18.1657C55.5256 18.6479 55.3534 19.1043 55.1229 19.5488C54.907 19.9615 54.6449 20.3563 54.3635 20.7413C54.0481 21.1719 53.706 21.5866 53.3567 21.9993C53.051 22.3604 52.7429 22.7196 52.4396 23.0807C52.1946 23.3744 51.9568 23.67 51.7531 23.9835C51.6318 24.168 51.5274 24.3566 51.4522 24.5589C51.3916 24.7236 51.394 24.8883 51.4158 25.055C51.4231 25.1046 51.4522 25.1542 51.4789 25.2018C51.5129 25.2594 51.5711 25.301 51.6415 25.3268C51.8355 25.4003 52.0393 25.3983 52.2431 25.3645C52.493 25.3249 52.7356 25.2594 52.9685 25.1701C53.3397 25.0272 53.6866 24.8526 54.0214 24.6601C54.5988 24.3308 55.135 23.9617 55.6566 23.5748C56.4427 22.9914 57.185 22.3723 57.9007 21.7334C59.2035 20.5687 60.4287 19.3523 61.5568 18.0705C62.0736 17.4852 62.5709 16.8919 62.9906 16.2569C63.0197 16.2113 63.0634 16.1736 63.0998 16.1319C63.9853 16.0644 64.8611 15.997 65.7369 15.9315C65.7612 15.9295 65.7855 15.9394 65.8194 15.9454C65.817 15.9732 65.8267 16.0069 65.8122 16.0287C65.7515 16.12 65.6836 16.2093 65.6181 16.2986C63.2187 19.4912 60.8169 22.6838 58.4175 25.8765C58.3301 25.9916 58.2452 26.1086 58.1652 26.2257C58.1555 26.2396 58.1579 26.2694 58.17 26.2832C58.1797 26.2971 58.2137 26.3071 58.2307 26.3031C58.2792 26.2932 58.3277 26.2773 58.3738 26.2594C58.5 26.2098 58.6237 26.1562 58.7499 26.1047C59.6475 25.7217 60.4821 25.2594 61.2754 24.7474C62.3113 24.0807 63.2624 23.3386 64.16 22.5509C64.7253 22.0529 65.2566 21.531 65.7976 21.0171C65.9068 20.9139 66.0111 20.8087 66.1251 20.7115C66.1761 20.6679 66.244 20.6341 66.3071 20.6004C66.3726 20.5667 66.4526 20.5806 66.5181 20.6262C66.5715 20.6659 66.6006 20.7453 66.5739 20.7968C66.5545 20.8345 66.5327 20.8742 66.5012 20.906C66.3532 21.0647 66.2076 21.2234 66.0548 21.3762C65.4604 21.9636 64.8393 22.533 64.2012 23.0886C62.5151 24.555 60.5767 25.7515 58.4054 26.696C58.1797 26.7932 57.9565 26.8944 57.7285 26.9876C57.6436 27.0234 57.5853 27.071 57.5392 27.1365C57.4082 27.3269 57.2748 27.5174 57.1389 27.7079C56.1491 29.0989 55.101 30.4581 53.9511 31.7637C53.1505 32.6705 52.3062 33.5475 51.3794 34.371C50.7559 34.9246 50.096 35.4484 49.3731 35.9167C49.0213 36.1429 48.6574 36.3552 48.2692 36.5377C47.8471 36.7362 47.4104 36.9028 46.9349 36.9981C46.8136 37.0219 46.6801 37.0338 46.5782 37.1052C46.3647 37.1032 46.1343 37.1032 45.9038 37.1032ZM16.9947 24.2196C17.002 24.3446 16.9995 24.4697 17.0141 24.5947C17.0359 24.7732 17.0941 24.9419 17.2057 25.0987C17.3683 25.3229 17.6109 25.436 17.9263 25.4518C18.2538 25.4677 18.5595 25.3983 18.8579 25.303C19.1806 25.1998 19.4814 25.0649 19.7725 24.9121C20.2141 24.682 20.6314 24.422 21.0244 24.1403C22.4582 23.1144 23.6615 21.9298 24.6611 20.6083C24.9425 20.2353 25.1972 19.8484 25.4156 19.4476C25.5975 19.1142 25.7528 18.7729 25.862 18.4158C25.9566 18.1102 26.0027 17.8007 25.9784 17.4852C25.9614 17.2748 25.8984 17.0744 25.7771 16.8859C25.6461 16.6855 25.4568 16.5327 25.1997 16.4474C25.0347 16.3918 24.86 16.3581 24.6781 16.3561C24.2899 16.3541 23.9187 16.4196 23.5548 16.5188C23.0671 16.6518 22.6232 16.8562 22.201 17.0943C21.6624 17.3979 21.1797 17.753 20.7308 18.1419C19.4814 19.2233 18.511 20.4536 17.7734 21.8108C17.5405 22.2394 17.344 22.6819 17.1985 23.1362C17.0941 23.4954 17.002 23.8526 16.9947 24.2196ZM45.1177 35.2599C45.125 35.3651 45.125 35.4682 45.1371 35.5734C45.1638 35.7718 45.2318 35.9623 45.3555 36.1349C45.5714 36.4365 45.8892 36.6012 46.3235 36.6151C46.7141 36.627 47.0853 36.5655 47.4443 36.4465C47.8131 36.3254 48.1528 36.1607 48.4754 35.9722C48.8296 35.7639 49.1572 35.5317 49.4677 35.2837C50.0718 34.8015 50.6104 34.2718 51.1174 33.7201C51.8016 32.976 52.4226 32.1982 53.0073 31.4026C53.9947 30.0612 54.89 28.6782 55.7342 27.2714C55.7561 27.2337 55.7779 27.196 55.7925 27.1563C55.7973 27.1404 55.7852 27.1186 55.7755 27.1007C55.7731 27.0968 55.7512 27.0948 55.7415 27.0988C55.6542 27.1404 55.5644 27.1801 55.4795 27.2257C54.7638 27.6087 54.0481 27.9917 53.3373 28.3806C51.9471 29.1425 50.5788 29.9283 49.2663 30.7775C48.4851 31.2835 47.7258 31.8093 47.0246 32.3907C46.6753 32.6824 46.3453 32.986 46.0469 33.3134C45.7946 33.5912 45.5714 33.8828 45.4016 34.2003C45.2293 34.5376 45.1105 34.8869 45.1177 35.2599Z" fill="white"/>
<path d="M76.5596 -0.936523C76.6081 -0.898823 76.6688 -0.886918 76.7319 -0.876997C77.7969 -0.688495 78.7649 -0.329349 79.5995 0.250046C80.4365 0.831426 80.9654 1.56361 81.1716 2.44857C81.191 2.52993 81.2153 2.61128 81.2274 2.69462C81.2711 3.01011 81.2347 3.31767 81.1037 3.61927C81.0018 3.85738 80.8683 4.0816 80.7155 4.29788C80.4511 4.66893 80.1357 5.01022 79.8009 5.3396C79.3108 5.82177 78.7819 6.27615 78.2385 6.71864C77.5228 7.30002 76.7974 7.87346 76.0768 8.45087C75.2374 9.12352 74.4077 9.80412 73.6192 10.5165C72.9254 11.1455 72.2655 11.7963 71.6687 12.4888C71.1543 13.088 70.6909 13.7111 70.3149 14.3778C69.9777 14.977 69.7157 15.5961 69.558 16.2449C69.4342 16.7489 69.3906 17.2569 69.4051 17.7708C69.4294 18.6379 69.6769 19.4653 70.0869 20.261C70.737 21.525 71.7075 22.5984 72.9569 23.5072C73.6556 24.0152 74.415 24.4557 75.2156 24.8466C75.8633 25.1621 76.5354 25.4398 77.2195 25.6938C77.2899 25.7196 77.3602 25.7395 77.433 25.7613C77.4864 25.7772 77.5446 25.7474 77.547 25.7077C77.5495 25.6343 77.5495 25.5609 77.5519 25.4895C77.5567 25.2176 77.5495 24.9458 77.5689 24.6759C77.6053 24.1322 77.6853 23.5945 77.8649 23.0687C77.957 22.7969 78.0832 22.5349 78.2142 22.273C78.4956 21.7016 78.8232 21.146 79.1458 20.5904C79.4903 19.9971 79.8348 19.4018 80.1308 18.7907C80.3467 18.3442 80.536 17.8899 80.667 17.4216C80.7883 16.9831 80.8635 16.5386 80.8562 16.0882C80.8514 15.858 80.8198 15.6278 80.7664 15.4036C80.6694 14.9949 80.3977 14.6774 79.9586 14.4571C79.8615 14.4075 79.7766 14.4036 79.6747 14.4512C78.9614 14.7826 78.2045 15.0266 77.4403 15.2627C77.1734 15.3441 76.8968 15.3758 76.6179 15.3977C76.4238 15.4135 76.237 15.3798 76.0501 15.3461C75.9483 15.3282 75.8585 15.2865 75.7881 15.225C75.4679 14.9413 75.1331 14.6694 74.8492 14.3579C74.8274 14.3321 74.8056 14.3063 74.7837 14.2805C74.626 14.094 74.5994 13.9055 74.7158 13.6912C74.9875 13.1952 75.2423 12.6951 75.5043 12.1971C75.5334 12.1396 75.5698 12.084 75.6038 12.0284C75.6547 11.9411 75.7275 11.8697 75.8269 11.8181C75.9774 11.7387 76.1254 11.6574 76.2831 11.5879C76.7537 11.3796 77.2292 11.1772 77.7047 10.9748C77.8746 10.9014 78.0468 10.8339 78.2239 10.7625C78.2894 10.6038 78.2943 10.4351 78.3185 10.2704C78.3865 9.80412 78.4326 9.33584 78.5029 8.86954C78.5539 8.52826 78.5781 8.183 78.6558 7.84568C78.6873 7.84965 78.7164 7.84766 78.731 7.85759C78.7576 7.87941 78.7771 7.90719 78.7916 7.93497C79.1434 8.57191 79.4952 9.20885 79.8445 9.84777C79.9804 10.0958 80.0944 10.3498 80.1138 10.6276C80.1211 10.7308 80.189 10.8022 80.3055 10.8419C80.3395 10.8538 80.3758 10.8677 80.4074 10.8835C80.747 11.0304 81.0624 11.207 81.3608 11.4054C82.0547 11.8637 82.6127 12.4173 83.0688 13.0404C83.571 13.7269 83.9203 14.4631 84.1532 15.2389C84.2988 15.7251 84.4031 16.2191 84.4808 16.7172C84.636 17.6934 84.687 18.6716 84.6385 19.6558C84.6287 19.8324 84.6215 20.011 84.6166 20.1876C84.6142 20.2392 84.6239 20.2888 84.6287 20.3443C84.6773 20.3443 84.7137 20.3503 84.7501 20.3443C85.0485 20.2928 85.3469 20.2372 85.6477 20.1856C85.9971 20.1241 86.3513 20.0904 86.7055 20.0507C87.1252 20.005 87.5449 19.9991 87.967 20.009C88.377 20.0189 88.7798 20.0745 89.1655 20.1896C89.3839 20.2551 89.5852 20.3404 89.7623 20.4634C90.0559 20.6658 90.2378 20.9218 90.3009 21.2353C90.3858 21.6599 90.3082 22.0667 90.0996 22.4576C89.9928 22.6599 89.8472 22.8445 89.692 23.0231C89.4469 23.3048 89.1728 23.5648 88.8841 23.8168C88.3406 24.289 87.7705 24.7374 87.1858 25.174C86.4701 25.7097 85.752 26.2454 85.0291 26.7733C84.6773 27.0292 84.3061 27.2713 83.9422 27.5173C83.2119 28.0074 82.4768 28.4936 81.7441 28.9817C81.4991 29.1464 81.4918 29.1523 81.4797 29.4004C81.4652 29.6821 81.4749 29.9639 81.5112 30.2457C81.5282 30.3707 81.5355 30.4957 81.5428 30.6207C81.5501 30.7358 81.5234 30.8489 81.487 30.96C81.4045 31.208 81.1959 31.3489 80.8975 31.3965C80.7373 31.4223 80.5675 31.4203 80.4025 31.4223C80.2885 31.4243 80.1745 31.4064 80.058 31.4025C79.8955 31.3965 79.762 31.3449 79.6553 31.2457C79.6213 31.214 79.5946 31.1782 79.5388 31.1703C79.517 31.1782 79.4928 31.1822 79.4709 31.1921C79.1701 31.3568 78.8304 31.3906 78.4835 31.3965C78.2433 31.4005 77.9595 31.2854 77.8649 31.0076C77.7994 30.8112 77.7969 30.6147 77.8357 30.4183C77.8818 30.1822 77.9304 29.9441 77.991 29.7099C78.0323 29.5532 78.0274 29.4024 77.9983 29.2436C77.9231 28.8626 77.86 28.4797 77.7969 28.0967C77.7533 27.8269 77.7096 27.559 77.678 27.2892C77.6392 26.9558 77.615 26.6225 77.581 26.2891C77.5762 26.2276 77.564 26.1661 77.5543 26.1026C77.4063 26.049 77.268 25.9974 77.1298 25.9458C76.0089 25.5351 74.9342 25.0569 73.9322 24.4735C73.0224 23.9437 72.1951 23.3405 71.4843 22.6341C70.5381 21.6956 69.837 20.6519 69.4221 19.4812C69.2717 19.0586 69.1722 18.63 69.1213 18.1915C69.0873 17.8899 69.0631 17.5883 69.0825 17.2847C69.1334 16.5188 69.3154 15.7747 69.6356 15.0524C69.9704 14.2924 70.4241 13.5821 70.9554 12.9015C71.5134 12.1872 72.1442 11.5185 72.8186 10.8756C73.4931 10.2327 74.1991 9.61561 74.9342 9.02034C75.7881 8.32983 76.647 7.64527 77.5058 6.95675C78.0541 6.51823 78.5927 6.07178 79.107 5.60747C79.4685 5.28205 79.813 4.94672 80.1235 4.58956C80.3225 4.35939 80.5069 4.12128 80.6524 3.86531C80.7495 3.69467 80.8271 3.52006 80.8853 3.33751C80.9532 3.12123 80.9581 2.90296 80.9169 2.6847C80.7179 1.63901 80.0799 0.815552 79.0294 0.204409C78.4204 -0.150768 77.746 -0.394828 77.0279 -0.55952C76.8677 -0.59722 76.7052 -0.621031 76.5451 -0.654763C76.4432 -0.676589 76.4092 -0.724211 76.4359 -0.821438C76.448 -0.861123 76.4747 -0.898823 76.4941 -0.936523C76.5087 -0.936523 76.5329 -0.936523 76.5596 -0.936523ZM81.8121 28.6265C81.8242 28.569 81.88 28.5412 81.9285 28.5075C82.2148 28.317 82.5035 28.1245 82.7898 27.934C83.8379 27.2356 84.8908 26.5411 85.8782 25.7831C85.9146 25.7553 85.9534 25.7276 85.9922 25.6998C86.7467 25.1382 87.5037 24.5767 88.2218 23.9834C88.5541 23.7096 88.8792 23.4278 89.1752 23.1262C89.3669 22.9298 89.544 22.7274 89.6968 22.5091C89.9443 22.152 90.0292 21.769 89.988 21.3642C89.954 21.017 89.7502 20.7531 89.396 20.5646C89.2237 20.4733 89.0345 20.4098 88.838 20.3662C88.4911 20.2908 88.1369 20.259 87.7802 20.2471C87.3435 20.2332 86.9141 20.2809 86.4847 20.3225C86.0941 20.3602 85.7059 20.4297 85.3202 20.4951C85.0946 20.5329 84.8738 20.5825 84.653 20.6321C84.6021 20.644 84.5681 20.6777 84.556 20.7214C84.5487 20.7511 84.5414 20.7829 84.539 20.8146C84.4929 21.2829 84.408 21.7472 84.3158 22.2095C84.1654 22.9615 83.9592 23.7017 83.7093 24.4358C83.2653 25.7355 82.6733 26.9875 81.9504 28.1979C81.8946 28.2912 81.8363 28.3844 81.7854 28.4797C81.7514 28.5333 81.7781 28.5829 81.8121 28.6265C81.7975 28.6126 81.7805 28.6007 81.766 28.5868C81.7611 28.5948 81.7587 28.6007 81.7539 28.6087C81.7733 28.6146 81.7927 28.6206 81.8121 28.6265ZM80.8222 12.1792C80.8392 12.2031 80.8635 12.2288 80.8732 12.2586C80.8926 12.33 80.9169 12.4015 80.9193 12.4729C80.9266 12.7447 80.9266 13.0166 80.9314 13.2864C80.9338 13.4372 80.8708 13.5722 80.7737 13.6992C80.684 13.8142 80.5748 13.9154 80.4486 14.0067C80.3734 14.0623 80.2909 14.1139 80.2133 14.1674C80.1599 14.2051 80.1648 14.2528 80.2303 14.2964C80.3006 14.3421 80.3734 14.3857 80.4389 14.4353C80.7737 14.6814 80.9824 14.9869 81.0697 15.3461C81.1813 15.8005 81.191 16.2608 81.1328 16.7192C81.077 17.1557 80.9605 17.5823 80.8053 18.0049C80.6015 18.5546 80.3443 19.0883 80.0532 19.6102C79.7257 20.1995 79.3836 20.7829 79.0488 21.3682C78.7795 21.8405 78.5223 22.3187 78.3064 22.8088C78.2166 23.0151 78.1414 23.2255 78.0832 23.4397C77.9498 23.9318 77.8915 24.4299 77.8721 24.9299C77.86 25.2732 77.86 25.6184 77.8746 25.9637C77.8915 26.3486 77.9279 26.7356 77.9667 27.1205C77.9959 27.4003 78.0395 27.68 78.0856 27.9598C78.1463 28.3428 78.2045 28.7257 78.2821 29.1067C78.3355 29.3587 78.3428 29.6028 78.2724 29.8508C78.2069 30.0849 78.1633 30.3211 78.1293 30.5611C78.1099 30.6981 78.122 30.833 78.1754 30.9639C78.2045 31.0374 78.2676 31.0909 78.3574 31.1147C78.418 31.1306 78.4835 31.1445 78.5442 31.1405C78.697 31.1286 78.8498 31.1147 78.9978 31.085C79.2647 31.0314 79.4345 30.9104 79.4709 30.6504C79.5122 30.3588 79.5097 30.0671 79.4539 29.7754C79.3666 29.321 79.2574 28.8706 79.124 28.4261C78.9299 27.7753 78.7892 27.1185 78.731 26.4498C78.6655 25.6879 78.6752 24.9259 78.8037 24.168C78.9348 23.4001 79.158 22.652 79.4952 21.9278C79.7718 21.3305 80.1114 20.7591 80.5432 20.2253C80.6136 20.138 80.6912 20.0547 80.7689 19.9713C80.8101 19.9277 80.878 19.9237 80.9363 19.9594C80.9557 19.9713 80.9751 19.9852 80.9945 20.0011C81.0309 20.0328 81.0406 20.0804 81.0139 20.1142C80.8368 20.3443 80.6476 20.5666 80.4874 20.8047C79.551 22.1817 79.0924 23.6659 79.0221 25.2335C79.0003 25.6918 79.0172 26.1522 79.0755 26.6105C79.1288 27.0252 79.1968 27.44 79.3035 27.8487C79.3981 28.2059 79.4952 28.561 79.5898 28.9182C79.6165 29.0194 79.6383 29.1226 79.6699 29.2238C79.6771 29.2476 79.7159 29.2635 79.7548 29.2932C79.796 29.1821 79.8324 29.0829 79.8688 28.9837C79.9755 28.7039 80.0871 28.4281 80.2473 28.1662C80.4147 27.8963 80.5651 27.6185 80.7106 27.3407C81.766 25.3267 82.5302 23.2453 82.9451 21.0785C82.9596 21.0071 82.9814 20.9356 83.0081 20.8662C83.0178 20.8384 83.0494 20.8146 83.0955 20.8166C83.1343 20.8186 83.1707 20.8186 83.2095 20.8225C83.2604 20.8285 83.2993 20.8702 83.2968 20.9099C83.2944 20.9416 83.2968 20.9733 83.2896 21.0031C83.2119 21.3623 83.144 21.7234 83.0542 22.0825C82.7971 23.1163 82.472 24.1342 82.0692 25.1363C81.6471 26.1879 81.1643 27.2197 80.5699 28.2158C80.4171 28.4698 80.2909 28.7297 80.1939 29.0015C80.1405 29.1523 80.0871 29.3012 80.0362 29.4539C79.9052 29.8488 79.8227 30.2496 79.7912 30.6564C79.7815 30.7834 79.7936 30.9064 79.8591 31.0235C79.8931 31.083 79.9488 31.1306 80.0265 31.1405C80.2812 31.1703 80.536 31.1763 80.7907 31.1485C80.9993 31.1247 81.1352 31.0116 81.1764 30.8449C81.2104 30.71 81.208 30.575 81.1934 30.4401C81.1595 30.0869 81.1328 29.7317 81.1522 29.3766C81.1692 29.0591 81.2662 28.7595 81.4312 28.4718C81.4797 28.3864 81.5331 28.3031 81.584 28.2198C82.3458 26.9637 82.9669 25.6641 83.423 24.3108C83.668 23.5866 83.8694 22.8544 84.0125 22.1103C84.078 21.769 84.1363 21.4297 84.1824 21.0865C84.2382 20.6817 84.2843 20.2769 84.3012 19.8701C84.3279 19.2967 84.3303 18.7212 84.3012 18.1478C84.2818 17.7926 84.2503 17.4394 84.2042 17.0862C84.1532 16.7033 84.0877 16.3203 84.0004 15.9413C83.8597 15.3342 83.6705 14.7409 83.3842 14.1694C82.9984 13.3976 82.4768 12.6971 81.7733 12.0939C81.2589 11.6514 80.684 11.2744 80.0022 11.0145C79.9561 10.9966 79.9173 10.9728 79.8712 10.949C79.8227 10.8379 79.7984 10.7248 79.7839 10.6117C79.762 10.4549 79.7257 10.3022 79.6456 10.1573C79.4103 9.72871 79.1774 9.30012 78.942 8.87153C78.9202 8.83184 78.8765 8.81597 78.8571 8.8378C78.8426 8.85367 78.8183 8.86954 78.8159 8.88542C78.7795 9.13345 78.7455 9.38346 78.714 9.63149C78.68 9.90134 78.6485 10.1712 78.6121 10.4411C78.5951 10.576 78.5708 10.7109 78.549 10.8458C78.5417 10.8895 78.515 10.9252 78.4689 10.947C78.4034 10.9788 78.3331 11.0046 78.2652 11.0343C77.7096 11.2665 77.1516 11.4986 76.596 11.7348C76.4141 11.8122 76.2418 11.9014 76.0671 11.9868C75.9774 12.0304 75.907 12.0899 75.8658 12.1693C75.8318 12.2368 75.7881 12.3003 75.7517 12.3677C75.514 12.8182 75.2762 13.2686 75.0409 13.719C74.9099 13.973 74.9172 14.0047 75.121 14.2309C75.1355 14.2468 75.1501 14.2647 75.1671 14.2805C75.4388 14.5306 75.7081 14.7806 75.9822 15.0286C76.0332 15.0762 76.1011 15.106 76.1812 15.1139C76.5669 15.1576 76.9454 15.1417 77.3117 15.0266C77.4306 14.9889 77.5519 14.9552 77.6708 14.9175C78.2409 14.7349 78.8086 14.5464 79.3472 14.3083C79.6068 14.1932 79.8567 14.0702 80.0896 13.9214C80.2206 13.8381 80.3443 13.7468 80.4438 13.6376C80.5529 13.5186 80.6233 13.3876 80.6209 13.2329C80.6184 12.9313 80.6427 12.6277 80.5748 12.3261C80.5724 12.3162 80.5699 12.3042 80.5748 12.2943C80.5845 12.2745 80.5893 12.2507 80.6087 12.2408C80.6694 12.205 80.7325 12.1653 80.8222 12.1792Z" fill="white"/>
<path d="M135.283 27.4241C135.297 27.442 135.309 27.4599 135.326 27.4757C135.455 27.5888 135.453 27.7198 135.392 27.8547C135.387 27.8686 135.353 27.8805 135.334 27.8785C135.312 27.8765 135.288 27.8627 135.276 27.8468C135.242 27.8011 135.227 27.7515 135.234 27.698C135.242 27.6484 135.251 27.5968 135.263 27.5353C135.2 27.5333 135.149 27.5293 135.101 27.5333C135.05 27.5372 135.001 27.5511 134.972 27.5908C134.904 27.6801 134.841 27.7694 134.771 27.8567C134.742 27.8924 134.696 27.9083 134.64 27.9123C134.599 27.9142 134.557 27.8825 134.567 27.8567C134.572 27.8468 134.567 27.8349 134.572 27.8269C134.657 27.688 134.776 27.563 134.819 27.4083C134.829 27.3706 134.866 27.3348 134.897 27.3031C135.142 27.0491 135.346 26.7713 135.54 26.4896C135.576 26.436 135.62 26.3824 135.673 26.3388C135.693 26.3209 135.744 26.3209 135.78 26.3229C135.797 26.3229 135.826 26.3527 135.824 26.3606C135.802 26.4082 135.778 26.4578 135.746 26.5015C135.567 26.7535 135.385 27.0055 135.205 27.2575C135.174 27.3031 135.147 27.3507 135.12 27.3964C135.108 27.4182 135.149 27.4599 135.186 27.4559C135.22 27.4519 135.254 27.436 135.285 27.4261C135.285 27.4241 135.283 27.4241 135.283 27.4241Z" fill="white"/>
<path d="M142.935 27.4478C143.231 27.1125 143.519 26.7692 143.774 26.41C143.806 26.3644 143.847 26.3227 143.915 26.3168C143.937 26.3148 143.963 26.3208 143.985 26.3287C144.014 26.3386 144.019 26.3585 144.005 26.3823C143.98 26.418 143.959 26.4557 143.932 26.4914C143.818 26.6402 143.701 26.789 143.587 26.9379C143.451 27.1125 143.316 27.2871 143.182 27.4637C143.09 27.5867 142.995 27.7097 142.944 27.8526C142.935 27.8804 142.901 27.9022 142.879 27.928L142.889 27.9339C142.852 27.8566 142.828 27.7772 142.847 27.6919C142.857 27.6502 142.857 27.6105 142.826 27.5748L142.843 27.5847C142.896 27.5807 142.913 27.547 142.93 27.5133L142.925 27.5212C142.925 27.4954 142.923 27.4696 142.923 27.4438L142.935 27.4478Z" fill="white"/>
<path d="M135.911 27.5235C135.979 27.5136 136.013 27.4699 136.054 27.4302C136.127 27.3608 136.195 27.2874 136.273 27.2179C136.297 27.1961 136.336 27.1862 136.372 27.1782C136.392 27.1743 136.423 27.1802 136.44 27.1921C136.455 27.202 136.472 27.2318 136.464 27.2437C136.372 27.3766 136.28 27.5116 136.18 27.6406C136.117 27.7219 136.086 27.8052 136.079 27.9005L136.086 27.9025C136.008 27.8826 135.95 27.8489 135.96 27.7735C135.967 27.714 135.986 27.6544 135.999 27.5949C136.008 27.5453 135.969 27.5235 135.918 27.5076L135.911 27.5235Z" fill="white"/>
<path d="M137.377 27.3884C137.277 27.557 137.144 27.7059 137 27.8507C136.979 27.8725 136.94 27.8864 136.908 27.9003C136.877 27.9142 136.811 27.9043 136.806 27.8844C136.802 27.8646 136.792 27.8408 136.804 27.8269C136.95 27.6245 137.095 27.4221 137.246 27.2217C137.25 27.2158 137.27 27.2158 137.279 27.2177C137.292 27.2197 137.309 27.2257 137.311 27.2336C137.321 27.2733 137.323 27.315 137.338 27.3546C137.343 27.3705 137.369 27.3804 137.386 27.3943L137.377 27.3884Z" fill="white"/>
<path d="M139.293 27.1877C139.296 27.2215 139.271 27.2433 139.24 27.2631C139.126 27.3326 139.041 27.4219 138.978 27.5251C138.91 27.6362 138.842 27.7473 138.903 27.8783C138.905 27.8802 138.886 27.8941 138.876 27.8961C138.864 27.8981 138.847 27.8961 138.839 27.8902C138.813 27.8703 138.776 27.8505 138.764 27.8247C138.738 27.7671 138.723 27.7076 138.701 27.6481C138.684 27.6044 138.641 27.5866 138.592 27.5727L138.59 27.5866C138.655 27.5727 138.679 27.5231 138.721 27.4854C138.82 27.3941 138.927 27.3147 139.055 27.2512C139.133 27.2135 139.213 27.1977 139.3 27.1917L139.293 27.1877Z" fill="white"/>
<path d="M146.933 27.8664C146.831 27.8743 146.78 27.8545 146.778 27.797C146.775 27.7394 146.782 27.6819 146.787 27.6243L146.775 27.6184C146.804 27.6144 146.814 27.5985 146.819 27.5747C146.853 27.4259 146.972 27.3188 147.093 27.2136C147.117 27.1938 147.158 27.1838 147.195 27.1779C147.214 27.1739 147.246 27.1838 147.26 27.1977C147.275 27.2096 147.285 27.2394 147.277 27.2513C147.205 27.3585 147.127 27.4636 147.052 27.5708C147.008 27.6323 146.964 27.6958 146.923 27.7593C146.899 27.7989 146.916 27.8386 146.945 27.8744L146.933 27.8664Z" fill="white"/>
<path d="M132.039 27.3268C132.037 27.2455 132.054 27.176 132.11 27.1145C132.299 26.9062 132.461 26.6839 132.624 26.4617C132.643 26.4359 132.672 26.416 132.702 26.3962C132.709 26.3903 132.731 26.3883 132.738 26.3942C132.752 26.4061 132.777 26.424 132.774 26.4359C132.767 26.4657 132.748 26.4934 132.728 26.5212C132.524 26.8069 132.321 27.0947 132.117 27.3804C132.112 27.3883 132.09 27.3943 132.085 27.3923C132.068 27.3824 132.056 27.3685 132.044 27.3526C132.037 27.3427 132.039 27.3308 132.039 27.3268Z" fill="white"/>
<path d="M150.735 27.4542C150.657 27.6109 150.521 27.7359 150.395 27.8669C150.363 27.8987 150.31 27.9145 150.257 27.9046C150.24 27.9006 150.218 27.8788 150.215 27.8629C150.21 27.8451 150.218 27.8213 150.23 27.8034C150.303 27.7062 150.378 27.609 150.451 27.5117C150.519 27.4244 150.582 27.3351 150.606 27.23C150.611 27.2081 150.64 27.2042 150.667 27.2181C150.676 27.224 150.691 27.23 150.693 27.2399C150.708 27.2895 150.72 27.3391 150.735 27.3907L150.749 27.3828C150.679 27.4185 150.679 27.4205 150.749 27.4582L150.735 27.4542Z" fill="white"/>
<path d="M148.097 27.1682C148.151 27.2575 148.143 27.3508 148.131 27.444C148.126 27.4738 148.119 27.5075 148.097 27.5333C147.995 27.6504 147.889 27.7674 147.777 27.8806C147.758 27.9004 147.707 27.9004 147.67 27.9044C147.636 27.9083 147.598 27.8647 147.612 27.8409C147.617 27.8309 147.619 27.821 147.627 27.8131C147.707 27.7079 147.789 27.6028 147.869 27.4956C147.949 27.3904 148.027 27.2833 148.105 27.1761L148.097 27.1682Z" fill="white"/>
<path d="M141.649 27.8546C141.603 27.8764 141.561 27.8804 141.527 27.8407C141.494 27.801 141.46 27.7614 141.396 27.7475L141.401 27.7534C141.506 27.6225 141.625 27.4994 141.695 27.3526C141.736 27.2673 141.828 27.2316 141.921 27.1998C141.947 27.1919 141.986 27.2117 142.037 27.2236C141.976 27.303 141.923 27.3725 141.874 27.4439C141.799 27.551 141.724 27.6602 141.654 27.7713C141.639 27.7951 141.656 27.8308 141.659 27.8606C141.656 27.8626 141.649 27.8546 141.649 27.8546Z" fill="white"/>
<path d="M137.828 27.1621C137.842 27.2276 137.859 27.2931 137.871 27.3585C137.879 27.4082 137.903 27.4498 137.949 27.4816V27.4736C137.845 27.5213 137.801 27.6105 137.731 27.682C137.668 27.7455 137.609 27.8129 137.544 27.8745C137.51 27.9042 137.457 27.9181 137.406 27.9042C137.389 27.9002 137.364 27.8745 137.367 27.8625C137.374 27.8328 137.389 27.805 137.408 27.7792C137.558 27.5907 137.699 27.3963 137.813 27.1919C137.818 27.1839 137.83 27.176 137.837 27.17L137.828 27.1621Z" fill="white"/>
<path d="M138.243 27.9023C138.204 27.9023 138.165 27.9063 138.131 27.9003C138.08 27.8904 138.039 27.8666 138.029 27.819C138.012 27.7337 138.019 27.6523 138.078 27.5789C138.126 27.5174 138.177 27.4579 138.228 27.4003C138.274 27.3507 138.323 27.3031 138.342 27.2416C138.349 27.2178 138.381 27.2118 138.405 27.2237C138.425 27.2336 138.451 27.2495 138.454 27.2654C138.459 27.3051 138.463 27.3507 138.446 27.3864C138.42 27.444 138.378 27.4976 138.337 27.5491C138.291 27.6107 138.238 27.6682 138.189 27.7297C138.16 27.7654 138.15 27.8091 138.175 27.8488C138.189 27.8746 138.226 27.8924 138.252 27.9123C138.25 27.9103 138.243 27.9023 138.243 27.9023Z" fill="white"/>
<path d="M153.427 27.7752C153.42 27.6819 153.452 27.6145 153.5 27.553C153.59 27.4418 153.685 27.3347 153.779 27.2256C153.784 27.2196 153.806 27.2156 153.813 27.2196C153.833 27.2295 153.859 27.2395 153.867 27.2553C153.888 27.3049 153.881 27.3585 153.852 27.4061C153.811 27.4696 153.762 27.5311 153.711 27.5887C153.639 27.672 153.568 27.7554 153.541 27.8585C153.539 27.8645 153.5 27.8685 153.476 27.8665C153.466 27.8665 153.454 27.8526 153.452 27.8446C153.44 27.8169 153.432 27.7871 153.427 27.7752Z" fill="white"/>
<path d="M150.021 27.2314C150.109 27.2195 150.15 27.2314 150.152 27.275C150.155 27.3127 150.15 27.3524 150.147 27.3901C150.145 27.4338 150.179 27.4616 150.211 27.4893H150.218C150.164 27.4973 150.13 27.5231 150.099 27.5568C150.002 27.662 149.905 27.7691 149.803 27.8723C149.771 27.9021 149.716 27.914 149.665 27.9001C149.648 27.8961 149.621 27.8683 149.626 27.8584C149.648 27.8108 149.674 27.7651 149.706 27.7235C149.81 27.5846 149.919 27.4457 150.019 27.3048C150.033 27.285 150.014 27.2473 150.012 27.2195L150.021 27.2314Z" fill="white"/>
<path d="M140.341 27.1877C140.407 27.2254 140.45 27.2731 140.429 27.3445C140.416 27.3842 140.412 27.4259 140.404 27.4655C140.397 27.4953 140.397 27.529 140.378 27.5548C140.288 27.6798 140.183 27.7969 140.043 27.8862C140.016 27.9021 139.97 27.9021 139.934 27.9001C139.919 27.9001 139.89 27.8723 139.892 27.8604C139.9 27.8306 139.914 27.8029 139.934 27.7771C140.014 27.6719 140.096 27.5667 140.181 27.4655C140.251 27.3802 140.31 27.2889 140.346 27.1897C140.351 27.1897 140.341 27.1877 140.341 27.1877Z" fill="white"/>
<path d="M141.108 27.8726C140.999 27.9043 140.96 27.8964 140.926 27.8309C140.894 27.7754 140.868 27.7198 140.839 27.6623V27.6603C140.848 27.6206 140.843 27.573 140.87 27.5432C140.994 27.3984 141.151 27.2813 141.358 27.2158C141.377 27.2099 141.404 27.2238 141.43 27.2277C141.406 27.2992 141.321 27.3309 141.27 27.3825C141.159 27.4976 141.071 27.6206 141.042 27.7674C141.033 27.8111 141.059 27.8468 141.108 27.8686V27.8726Z" fill="white"/>
<path d="M143.51 27.6522C143.493 27.5867 143.529 27.5351 143.578 27.4895C143.723 27.3506 143.893 27.2395 144.109 27.1799H144.102C144.099 27.1998 144.106 27.2256 144.092 27.2375C144.019 27.3049 143.939 27.3684 143.866 27.4379C143.835 27.4676 143.813 27.5053 143.789 27.5411C143.835 27.6224 143.723 27.6641 143.718 27.7315C143.716 27.7613 143.726 27.7911 143.73 27.8208C143.733 27.8506 143.735 27.8784 143.738 27.9081L143.747 27.9062C143.67 27.8923 143.621 27.8546 143.59 27.797C143.565 27.7534 143.539 27.7097 143.512 27.6641C143.507 27.6581 143.51 27.6522 143.51 27.6522Z" fill="white"/>
<path d="M153.364 27.4896C153.33 27.5015 153.287 27.5075 153.265 27.5293C153.158 27.6305 153.059 27.7396 152.952 27.8408C152.92 27.8686 152.869 27.8865 152.826 27.9004C152.809 27.9063 152.775 27.8964 152.76 27.8845C152.746 27.8726 152.738 27.8468 152.743 27.8329C152.755 27.8031 152.775 27.7754 152.797 27.7515C152.959 27.567 153.107 27.3745 153.243 27.1761L153.236 27.1702C153.25 27.2317 153.27 27.2912 153.277 27.3527C153.284 27.4083 153.309 27.4519 153.357 27.4896H153.364Z" fill="white"/>
<path d="M144.417 27.6423C144.412 27.5867 144.441 27.5411 144.482 27.5014C144.63 27.3566 144.805 27.2395 145.028 27.178H145.021C145.019 27.1978 145.023 27.2236 145.011 27.2355C144.939 27.303 144.861 27.3685 144.783 27.4339C144.689 27.5153 144.715 27.6403 144.635 27.7276C144.618 27.7455 144.64 27.7852 144.645 27.8149C144.65 27.8447 144.652 27.8725 144.657 27.9022L144.667 27.9002C144.606 27.8883 144.56 27.8665 144.524 27.8209C144.475 27.7653 144.49 27.684 144.41 27.6423C144.407 27.6423 144.417 27.6423 144.417 27.6423Z" fill="white"/>
<path d="M149.073 27.8943C149.048 27.8943 149.024 27.8963 148.997 27.8963C148.898 27.8983 148.84 27.8646 148.837 27.8011C148.837 27.7495 148.842 27.6979 148.857 27.6483C148.869 27.6086 148.896 27.5709 148.925 27.5372C149.01 27.434 149.097 27.3328 149.184 27.2316C149.189 27.2256 149.211 27.2217 149.218 27.2237C149.238 27.2316 149.269 27.2455 149.269 27.2574C149.272 27.309 149.279 27.3645 149.255 27.4102C149.221 27.4776 149.165 27.5352 149.119 27.5967C149.078 27.6483 149.031 27.6999 148.993 27.7515C148.956 27.7991 148.983 27.8487 149.063 27.9003L149.073 27.8943Z" fill="white"/>
<path d="M148.634 27.1799C148.677 27.2315 148.684 27.2891 148.682 27.3506C148.68 27.4041 148.697 27.4478 148.755 27.4776L148.75 27.4696C148.633 27.5926 148.522 27.7196 148.401 27.8387C148.371 27.8685 148.321 27.8863 148.277 27.9022C148.26 27.9081 148.231 27.8943 148.209 27.8863C148.182 27.8744 148.18 27.8546 148.197 27.8327C148.233 27.7792 148.27 27.7236 148.308 27.67C148.379 27.5708 148.454 27.4756 148.524 27.3764C148.568 27.3149 148.602 27.2474 148.641 27.1839C148.638 27.1819 148.634 27.1799 148.634 27.1799Z" fill="white"/>
<path d="M154.672 27.7474C154.631 27.7692 154.587 27.787 154.551 27.8128C154.463 27.8743 154.359 27.9041 154.247 27.924C154.196 27.9319 154.15 27.92 154.109 27.8922L154.099 27.9001C154.206 27.8862 154.281 27.8307 154.34 27.7612C154.439 27.6382 154.497 27.5033 154.505 27.3545C154.507 27.2969 154.466 27.2592 154.408 27.2315L154.4 27.2354C154.451 27.1898 154.5 27.1441 154.556 27.1005C154.568 27.0906 154.602 27.0985 154.626 27.1025C154.628 27.1025 154.636 27.1184 154.633 27.1263C154.623 27.1461 154.616 27.166 154.599 27.1799C154.553 27.2215 154.539 27.2711 154.548 27.3247C154.57 27.4696 154.602 27.6124 154.67 27.7493L154.672 27.7474Z" fill="white"/>
<path d="M151.554 27.5929C151.554 27.5631 151.542 27.5274 151.557 27.5076C151.668 27.3687 151.821 27.2695 152.011 27.2079C152.042 27.198 152.083 27.204 152.12 27.204L152.117 27.196C152.108 27.2655 152.03 27.2913 151.981 27.3349C151.807 27.4937 151.693 27.6703 151.734 27.8925L151.736 27.8866C151.664 27.8885 151.613 27.8608 151.596 27.8052C151.574 27.7358 151.564 27.6643 151.547 27.5949L151.554 27.5929Z" fill="white"/>
<path d="M150.999 27.8704C150.943 27.8863 150.897 27.8724 150.88 27.8268C150.865 27.7891 150.858 27.7454 150.863 27.7077C150.878 27.6244 150.924 27.551 150.984 27.4835C151.074 27.3843 151.161 27.2831 151.249 27.1819L151.244 27.1799C151.317 27.293 151.297 27.3982 151.212 27.5014C151.142 27.5867 151.069 27.67 151.006 27.7593C150.984 27.7911 150.994 27.8387 150.987 27.8784L150.999 27.8704Z" fill="white"/>
<path d="M133.107 27.5708C133.209 27.5212 133.279 27.4497 133.308 27.3565C133.359 27.2017 133.49 27.0906 133.616 26.9755C133.623 26.9676 133.66 26.9795 133.682 26.9874C133.689 26.9894 133.699 27.0033 133.696 27.0112C133.691 27.0311 133.684 27.0509 133.672 27.0688C133.589 27.1958 133.509 27.3247 133.417 27.4458C133.361 27.5212 133.306 27.6045 133.189 27.6363L133.196 27.6422C133.167 27.6184 133.138 27.5926 133.109 27.5688C133.112 27.5688 133.107 27.5708 133.107 27.5708Z" fill="white"/>
<path d="M146.62 27.7376C146.554 27.7436 146.518 27.7872 146.474 27.817C146.397 27.8686 146.309 27.8983 146.215 27.9162C146.159 27.9261 146.13 27.8924 146.093 27.8686L146.081 27.8785C146.203 27.8567 146.266 27.7813 146.317 27.6979C146.36 27.6265 146.389 27.5471 146.431 27.4757C146.438 27.4638 146.472 27.4618 146.494 27.4539C146.554 27.5431 146.511 27.6602 146.613 27.7376C146.61 27.7356 146.62 27.7376 146.62 27.7376Z" fill="white"/>
<path d="M133.155 26.9917C133.23 27.0453 133.216 27.1108 133.182 27.1643C133.133 27.2457 133.065 27.3211 133.005 27.3965C133.002 27.4004 132.98 27.3985 132.971 27.3945C132.961 27.3905 132.944 27.3806 132.946 27.3727C132.951 27.333 132.946 27.2873 132.966 27.2536C133.022 27.1643 133.092 27.079 133.155 26.9917Z" fill="white"/>
<path d="M140.552 27.4538C140.54 27.3526 140.618 27.2831 140.691 27.2137C140.712 27.1938 140.756 27.1839 140.793 27.178C140.812 27.176 140.843 27.1879 140.856 27.2018C140.868 27.2137 140.875 27.2434 140.865 27.2553C140.79 27.3426 140.72 27.3843 140.545 27.4478L140.552 27.4538Z" fill="white"/>
<path d="M132.66 27.0353C132.677 27.1345 132.602 27.2119 132.553 27.2932C132.549 27.3031 132.512 27.3012 132.49 27.3012C132.486 27.3012 132.476 27.2853 132.476 27.2773C132.5 27.198 132.524 27.1166 132.551 27.0372C132.561 27.0075 132.617 26.9678 132.629 26.9797C132.643 26.9976 132.651 27.0174 132.66 27.0353Z" fill="white"/>
<path d="M152.275 27.204C152.371 27.2199 152.424 27.2635 152.427 27.3488C152.429 27.4659 152.391 27.5651 152.27 27.6365L152.28 27.6425C152.258 27.5592 152.318 27.4917 152.34 27.4163C152.364 27.3349 152.347 27.2595 152.277 27.196L152.275 27.204Z" fill="white"/>
<path d="M139.485 27.5786C139.494 27.4536 139.504 27.3286 139.516 27.2036C139.516 27.1956 139.526 27.1857 139.53 27.1778L139.528 27.1758C139.53 27.1857 139.53 27.1976 139.535 27.2055C139.629 27.3186 139.61 27.4298 139.53 27.5409C139.521 27.5548 139.494 27.5627 139.475 27.5726L139.485 27.5786Z" fill="white"/>
<path d="M147.644 26.7394C147.615 26.7593 147.578 26.7851 147.542 26.8069C147.534 26.8109 147.513 26.8069 147.508 26.8009C147.488 26.7791 147.462 26.7553 147.457 26.7295C147.452 26.6938 147.508 26.6462 147.547 26.6521C147.576 26.6561 147.602 26.6799 147.629 26.6978C147.639 26.7037 147.639 26.7176 147.644 26.7394Z" fill="white"/>
<path d="M135.533 27.2236C135.603 27.2077 135.673 27.1859 135.746 27.18C135.775 27.176 135.824 27.1958 135.841 27.2177C135.855 27.2375 135.848 27.2752 135.838 27.301C135.836 27.3109 135.795 27.3149 135.77 27.3129C135.746 27.3109 135.724 27.299 135.703 27.2891C135.647 27.2653 135.591 27.2434 135.533 27.2236C135.535 27.2216 135.533 27.2236 135.533 27.2236Z" fill="white"/>
<path d="M145.138 27.442C145.167 27.3468 145.188 27.2475 145.276 27.1721L145.273 27.1702C145.283 27.2079 145.3 27.2456 145.302 27.2853C145.307 27.3706 145.273 27.44 145.157 27.4579L145.138 27.442Z" fill="white"/>
<path d="M144.356 27.1719C144.366 27.2195 144.385 27.2691 144.385 27.3167C144.383 27.3921 144.339 27.4477 144.24 27.4616L144.221 27.4437C144.247 27.3465 144.271 27.2493 144.356 27.1719C144.356 27.1739 144.356 27.1719 144.356 27.1719Z" fill="white"/>
<path d="M146.586 27.1024C146.583 27.1123 146.586 27.1222 146.581 27.1302C146.549 27.1758 146.501 27.2095 146.44 27.2234C146.431 27.2254 146.416 27.2234 146.411 27.2175C146.404 27.2115 146.399 27.1976 146.402 27.1917C146.423 27.1421 146.457 27.1024 146.523 27.0845C146.535 27.0806 146.549 27.0806 146.559 27.0845C146.569 27.0845 146.576 27.0944 146.586 27.1024Z" fill="white"/>
<path d="M136.729 26.8029C136.721 26.8029 136.702 26.8069 136.697 26.8029C136.678 26.7791 136.649 26.7553 136.644 26.7295C136.637 26.6918 136.692 26.6482 136.736 26.6541C136.758 26.6581 136.785 26.668 136.794 26.6819C136.826 26.7275 136.794 26.7831 136.729 26.8029Z" fill="white"/>
<path d="M135.285 27.4241C135.426 27.4062 135.513 27.3427 135.533 27.2237V27.2217C135.533 27.2415 135.535 27.2614 135.533 27.2812C135.523 27.3804 135.477 27.4181 135.356 27.428C135.331 27.43 135.307 27.4261 135.285 27.4241C135.283 27.4241 135.285 27.4241 135.285 27.4241Z" fill="white"/>
<path d="M139.474 27.5725C139.494 27.6638 139.438 27.7293 139.368 27.7908L139.371 27.7888C139.337 27.6658 139.351 27.642 139.484 27.5765C139.484 27.5785 139.474 27.5725 139.474 27.5725Z" fill="white"/>
<path d="M146.092 27.8684C146.058 27.8704 146.02 27.8843 145.989 27.8744C145.926 27.8565 145.916 27.7911 145.965 27.7534C145.996 27.7295 146.044 27.7315 146.051 27.7613C146.063 27.801 146.071 27.8387 146.078 27.8784C146.08 27.8784 146.092 27.8684 146.092 27.8684Z" fill="white"/>
<path d="M144.236 27.4598C144.222 27.5173 144.157 27.5232 144.111 27.5471C144.106 27.549 144.089 27.5451 144.085 27.5411C144.08 27.5371 144.077 27.5232 144.08 27.5193C144.114 27.4796 144.15 27.4419 144.217 27.4419L144.236 27.4598Z" fill="white"/>
<path d="M145.156 27.4599C145.141 27.5154 145.076 27.5234 145.031 27.5472C145.026 27.5492 145.009 27.5452 145.004 27.5412C144.999 27.5373 144.997 27.5234 144.999 27.5194C145.031 27.4777 145.069 27.444 145.136 27.444C145.136 27.442 145.156 27.4599 145.156 27.4599Z" fill="white"/>
<path d="M152.269 27.6367C152.281 27.7339 152.279 27.7339 152.185 27.7538C152.163 27.7578 152.139 27.7558 152.117 27.7578L152.127 27.7677C152.161 27.7121 152.182 27.6466 152.279 27.6427L152.269 27.6367Z" fill="white"/>
<path d="M154.108 27.8924C154.034 27.8885 154.007 27.8468 154 27.7932C153.998 27.7714 154.053 27.7357 154.077 27.7456C154.096 27.7535 154.123 27.7714 154.123 27.7833C154.12 27.823 154.106 27.8607 154.096 27.8984C154.099 27.9004 154.108 27.8924 154.108 27.8924Z" fill="white"/>
<path d="M140.532 27.6425C140.513 27.6067 140.484 27.571 140.475 27.5333C140.463 27.4897 140.491 27.4579 140.554 27.454L140.547 27.448C140.54 27.5155 140.532 27.5809 140.525 27.6484L140.532 27.6425Z" fill="white"/>
<path d="M140.523 27.6483C140.627 27.6523 140.734 27.6562 140.839 27.6602V27.6622C140.817 27.6602 140.79 27.6483 140.773 27.6562C140.691 27.688 140.613 27.6681 140.535 27.6423C140.533 27.6423 140.523 27.6483 140.523 27.6483Z" fill="white"/>
<path d="M145.026 27.1778C145.108 27.1758 145.191 27.1739 145.273 27.1719L145.276 27.1739C145.191 27.1758 145.108 27.1778 145.021 27.1778H145.026Z" fill="white"/>
<path d="M144.109 27.1778C144.191 27.1758 144.274 27.1739 144.356 27.1719L144.359 27.1739C144.274 27.1758 144.191 27.1778 144.104 27.1778C144.102 27.1778 144.109 27.1778 144.109 27.1778Z" fill="white"/>
<path d="M133.172 27.7955C133.128 27.7518 133.123 27.6962 133.109 27.6447L133.111 27.6466C133.14 27.6447 133.169 27.6447 133.198 27.6427L133.191 27.6367C133.184 27.6883 133.176 27.7419 133.167 27.7935L133.172 27.7955Z" fill="white"/>
<path d="M139.303 27.1919C139.378 27.1879 139.453 27.1819 139.528 27.178L139.531 27.18C139.453 27.1839 139.376 27.1859 139.296 27.1879C139.293 27.1879 139.303 27.1919 139.303 27.1919Z" fill="white"/>
<path d="M140.195 27.1739C140.098 27.1382 140.091 27.1401 140.069 27.2274L140.062 27.2294C140.154 27.2374 140.163 27.2334 140.199 27.1699L140.195 27.1739Z" fill="white"/>
<path d="M151.011 27.2733C151.047 27.2436 151.093 27.2198 151.081 27.1702L151.076 27.1741C151.059 27.1821 151.035 27.188 151.028 27.1999C151.013 27.2257 151.011 27.2535 151.001 27.2813C151.001 27.2793 151.011 27.2733 151.011 27.2733Z" fill="white"/>
<path d="M152.12 27.2038C152.171 27.1621 152.224 27.182 152.275 27.2038L152.278 27.1959C152.224 27.1959 152.171 27.1959 152.117 27.1959L152.12 27.2038Z" fill="white"/>
<path d="M139.131 27.8012C139.211 27.7972 139.288 27.7952 139.368 27.7913L139.366 27.7932C139.288 27.7952 139.213 27.7952 139.135 27.7972C139.138 27.7952 139.131 27.8012 139.131 27.8012Z" fill="white"/>
<path d="M144.237 27.7911C144.194 27.7891 144.15 27.7852 144.106 27.7852C144.087 27.7852 144.065 27.7951 144.046 27.799L144.039 27.807C144.104 27.805 144.17 27.801 144.235 27.799L144.237 27.7911Z" fill="white"/>
<path d="M144.958 27.807C145.024 27.805 145.091 27.803 145.157 27.801L145.164 27.803C145.099 27.803 145.031 27.801 144.965 27.801L144.958 27.807Z" fill="white"/>
<path d="M136.227 27.92C136.265 27.9299 136.282 27.912 136.296 27.8843C136.304 27.8704 136.32 27.8585 136.333 27.8466L136.325 27.8386C136.299 27.8525 136.268 27.8644 136.246 27.8823C136.234 27.8922 136.229 27.912 136.222 27.9259C136.219 27.9239 136.227 27.92 136.227 27.92Z" fill="white"/>
<path d="M141.108 27.8683C141.181 27.9021 141.244 27.8505 141.314 27.8505L141.309 27.8425C141.241 27.8525 141.173 27.8624 141.105 27.8723C141.108 27.8723 141.108 27.8683 141.108 27.8683Z" fill="white"/>
<path d="M152.036 27.825C152.012 27.8805 151.94 27.8706 151.892 27.8944L151.894 27.8924C151.935 27.8547 151.988 27.8369 152.048 27.8309L152.036 27.825Z" fill="white"/>
<path d="M143.735 27.9023C143.75 27.9004 143.764 27.8984 143.779 27.8984C143.769 27.8984 143.757 27.9004 143.745 27.9023H143.735Z" fill="white"/>
<path d="M144.657 27.9004C144.672 27.9004 144.686 27.8984 144.701 27.8984C144.691 27.8984 144.679 27.8984 144.669 27.8984C144.667 27.8984 144.657 27.9004 144.657 27.9004Z" fill="white"/>
<path d="M151.892 27.8944C151.872 27.8924 151.846 27.8845 151.831 27.8924C151.795 27.9083 151.766 27.8944 151.734 27.8865L151.732 27.8924C151.787 27.8944 151.841 27.8944 151.892 27.8944Z" fill="white"/>
<path d="M137.066 27.267C137.056 27.263 137.046 27.2571 137.039 27.2571C137.032 27.2571 137.02 27.263 137.015 27.271C137.005 27.2908 137.017 27.3027 137.044 27.3007C137.051 27.3007 137.053 27.2868 137.058 27.2809L137.066 27.267Z" fill="white"/>
<path d="M137.481 27.3049C137.517 27.2851 137.568 27.2811 137.572 27.2355L137.56 27.2414C137.541 27.2355 137.517 27.2216 137.5 27.2256C137.457 27.2375 137.469 27.2672 137.481 27.295C137.481 27.297 137.481 27.3049 137.481 27.3049Z" fill="white"/>
<path d="M138.205 27.2634C138.169 27.2753 138.133 27.2892 138.097 27.3011L138.092 27.311C138.123 27.2912 138.179 27.319 138.196 27.2753C138.198 27.2753 138.205 27.2634 138.205 27.2634Z" fill="white"/>
<path d="M140.069 27.2253C140.045 27.2412 140.021 27.2531 140.043 27.2849C140.05 27.2968 140.043 27.3186 140.04 27.3345L140.05 27.3305C140.062 27.2968 140.1 27.267 140.062 27.2293C140.064 27.2273 140.069 27.2253 140.069 27.2253Z" fill="white"/>
<path d="M147.865 27.2671C147.823 27.277 147.782 27.2869 147.741 27.2969L147.733 27.3048C147.775 27.2969 147.816 27.2869 147.855 27.279L147.865 27.2671Z" fill="white"/>
<path d="M148.248 27.3348C148.257 27.3368 148.269 27.3428 148.277 27.3408C148.286 27.3388 148.296 27.3309 148.298 27.3229C148.303 27.2991 148.289 27.2892 148.262 27.2971C148.255 27.2991 148.255 27.313 148.25 27.3209L148.248 27.3348Z" fill="white"/>
<path d="M148.883 27.293C148.917 27.2851 148.951 27.2772 148.983 27.2692L148.993 27.2653C148.951 27.2553 148.92 27.2672 148.888 27.2891L148.883 27.293Z" fill="white"/>
<path d="M149.81 27.2512C149.735 27.2116 149.732 27.2135 149.728 27.285L149.723 27.287C149.766 27.2909 149.802 27.279 149.822 27.2433L149.81 27.2512Z" fill="white"/>
<path d="M150.344 27.3032C150.382 27.2853 150.44 27.321 150.464 27.2714L150.469 27.2595C150.428 27.2714 150.39 27.2833 150.349 27.2972C150.351 27.2952 150.344 27.3032 150.344 27.3032Z" fill="white"/>
<path d="M150.87 27.289C150.916 27.2831 150.964 27.2771 151.01 27.2732C151.01 27.2732 151 27.2791 151.003 27.2791C150.996 27.2712 150.988 27.2632 150.983 27.2553C150.974 27.2315 150.957 27.2295 150.928 27.2295C150.865 27.2255 150.892 27.2692 150.875 27.289C150.875 27.287 150.87 27.289 150.87 27.289Z" fill="white"/>
<path d="M152.998 27.2615C152.942 27.2714 152.93 27.3051 152.935 27.3448L152.937 27.3408C152.971 27.3508 153.01 27.3627 153.022 27.321C153.026 27.3071 153.002 27.2893 152.99 27.2734L152.998 27.2615Z" fill="white"/>
<path d="M153.602 27.2634C153.566 27.2733 153.529 27.2833 153.491 27.2932L153.483 27.2991C153.52 27.2892 153.556 27.2793 153.592 27.2694C153.592 27.2714 153.602 27.2634 153.602 27.2634Z" fill="white"/>
<path d="M154.408 27.2317C154.386 27.2694 154.364 27.3051 154.388 27.3468L154.391 27.3408C154.463 27.3091 154.463 27.3091 154.403 27.2376C154.4 27.2357 154.408 27.2317 154.408 27.2317Z" fill="white"/>
<path d="M137.386 27.3904C137.434 27.3765 137.471 27.3487 137.483 27.3051V27.2971C137.41 27.2991 137.381 27.3328 137.381 27.3884C137.377 27.3884 137.386 27.3904 137.386 27.3904Z" fill="white"/>
<path d="M138.097 27.301C138.082 27.3328 138.065 27.3625 138.051 27.3943L138.058 27.3923C138.154 27.3784 138.154 27.3744 138.092 27.3109C138.092 27.309 138.097 27.301 138.097 27.301Z" fill="white"/>
<path d="M139.897 27.3984C139.948 27.3746 139.998 27.3528 140.049 27.3289L140.039 27.3329C140.03 27.327 140.02 27.321 140.013 27.3131C139.984 27.2833 139.95 27.2912 139.916 27.3071C139.873 27.327 139.904 27.3587 139.9 27.3845L139.897 27.3984Z" fill="white"/>
<path d="M147.741 27.2971C147.733 27.3348 147.729 27.3725 147.721 27.4082L147.724 27.4023C147.748 27.3904 147.794 27.4142 147.797 27.3626C147.799 27.3209 147.758 27.3209 147.733 27.3031C147.733 27.3051 147.741 27.2971 147.741 27.2971Z" fill="white"/>
<path d="M148.252 27.3225C148.257 27.3432 148.268 27.347 148.284 27.3301C148.284 27.3301 148.275 27.3207 148.268 27.3169C148.262 27.3225 148.257 27.3282 148.25 27.3338C148.248 27.3338 148.252 27.3225 148.252 27.3225Z" fill="white"/>
<path d="M148.89 27.2871C148.878 27.3228 148.869 27.3585 148.857 27.3943C148.854 27.3943 148.866 27.3943 148.866 27.3943C148.91 27.3645 148.91 27.3308 148.886 27.2911C148.883 27.2931 148.89 27.2871 148.89 27.2871Z" fill="white"/>
<path d="M149.727 27.2852C149.72 27.3248 149.715 27.3625 149.708 27.4002L149.715 27.3943C149.732 27.3586 149.753 27.3248 149.725 27.2871C149.72 27.2871 149.727 27.2852 149.727 27.2852Z" fill="white"/>
<path d="M150.351 27.2949C150.344 27.3306 150.337 27.3644 150.329 27.4001V27.3941C150.424 27.3703 150.424 27.3664 150.346 27.3029C150.344 27.3029 150.351 27.2949 150.351 27.2949Z" fill="white"/>
<path d="M150.875 27.4101C150.923 27.3685 150.902 27.3288 150.87 27.2891L150.875 27.2871C150.837 27.3288 150.87 27.3704 150.875 27.4101C150.87 27.4121 150.875 27.4101 150.875 27.4101Z" fill="white"/>
<path d="M152.935 27.3445C152.886 27.3227 152.845 27.3525 152.802 27.3604L152.794 27.3683C152.838 27.3485 152.899 27.3842 152.937 27.3406C152.935 27.3406 152.935 27.3445 152.935 27.3445Z" fill="white"/>
<path d="M153.491 27.2935C153.483 27.3292 153.474 27.3649 153.466 27.4006V27.3947C153.554 27.3708 153.554 27.3689 153.483 27.3014L153.491 27.2935Z" fill="white"/>
<path d="M154.252 27.3685C154.274 27.3685 154.298 27.3626 154.315 27.3685C154.356 27.3824 154.37 27.3606 154.387 27.3408L154.385 27.3467C154.337 27.315 154.298 27.3408 154.26 27.3606C154.262 27.3606 154.252 27.3685 154.252 27.3685Z" fill="white"/>
<path d="M138.05 27.3941C137.995 27.402 137.961 27.4298 137.949 27.4734V27.4814C138.045 27.4695 138.045 27.4695 138.057 27.3921L138.05 27.3941Z" fill="white"/>
<path d="M139.9 27.3861C139.902 27.407 139.913 27.4108 139.929 27.3956C139.929 27.3956 139.92 27.3861 139.915 27.3823C139.909 27.388 139.904 27.3937 139.897 27.3994C139.897 27.3975 139.9 27.3861 139.9 27.3861Z" fill="white"/>
<path d="M147.576 27.4261C147.624 27.4182 147.684 27.4539 147.723 27.4043L147.72 27.4103C147.672 27.3805 147.626 27.3845 147.583 27.4202C147.585 27.4182 147.576 27.4261 147.576 27.4261Z" fill="white"/>
<path d="M148.755 27.4774C148.791 27.4496 148.827 27.4218 148.863 27.396H148.853C148.803 27.4039 148.772 27.4337 148.747 27.4694C148.75 27.4694 148.755 27.4774 148.755 27.4774Z" fill="white"/>
<path d="M149.553 27.4618C149.618 27.4599 149.661 27.4222 149.709 27.3944C149.709 27.3944 149.702 27.4003 149.705 27.4003C149.685 27.3904 149.666 27.3726 149.644 27.3726C149.616 27.3726 149.579 27.3785 149.555 27.3924C149.546 27.3984 149.555 27.4281 149.555 27.448L149.553 27.4618Z" fill="white"/>
<path d="M150.213 27.4918C150.283 27.4858 150.324 27.456 150.326 27.3945V27.4005C150.256 27.4025 150.227 27.4362 150.22 27.4898C150.22 27.4918 150.213 27.4918 150.213 27.4918Z" fill="white"/>
<path d="M150.732 27.3905C150.778 27.3984 150.824 27.4044 150.872 27.4123C150.872 27.4123 150.869 27.4143 150.872 27.4143C150.814 27.3984 150.775 27.4302 150.734 27.456L150.747 27.4599C150.747 27.4341 150.747 27.4103 150.747 27.3845L150.732 27.3905Z" fill="white"/>
<path d="M152.782 27.4675C152.806 27.4556 152.855 27.4814 152.857 27.4278C152.86 27.3842 152.818 27.3861 152.794 27.3683L152.802 27.3604C152.794 27.3981 152.787 27.4358 152.78 27.4735C152.78 27.4735 152.782 27.4675 152.782 27.4675Z" fill="white"/>
<path d="M153.357 27.4873C153.456 27.4814 153.463 27.4754 153.465 27.3921V27.398C153.398 27.402 153.364 27.4318 153.362 27.4873C153.364 27.4893 153.357 27.4873 153.357 27.4873Z" fill="white"/>
<path d="M154.233 27.4536C154.255 27.4497 154.286 27.4497 154.294 27.4378C154.315 27.404 154.284 27.3842 154.252 27.3663L154.26 27.3584C154.247 27.3921 154.235 27.4259 154.223 27.4596L154.233 27.4536Z" fill="white"/>
<path d="M136.69 27.4835C136.697 27.4891 136.701 27.4966 136.708 27.5023C136.731 27.4835 136.728 27.4759 136.699 27.4797C136.699 27.4778 136.69 27.4835 136.69 27.4835Z" fill="white"/>
<path d="M137.837 27.1698L137.82 27.1756L137.828 27.1641L137.837 27.1698Z" fill="white"/>
<path d="M142.826 27.5173C142.862 27.4935 142.898 27.4697 142.932 27.4459L142.919 27.4419C142.919 27.4677 142.922 27.4935 142.922 27.5193L142.927 27.5113C142.898 27.5113 142.869 27.5094 142.84 27.5094C142.842 27.5094 142.826 27.5173 142.826 27.5173Z" fill="white"/>
<path d="M140.203 27.1682C140.253 27.2277 140.253 27.2277 140.34 27.1881L140.35 27.19C140.299 27.1841 140.249 27.1801 140.196 27.1742L140.203 27.1682Z" fill="white"/>
<path d="M147.571 27.5293C147.593 27.5253 147.622 27.5253 147.639 27.5154C147.658 27.5035 147.622 27.4539 147.578 27.4261L147.585 27.4202C147.578 27.4599 147.573 27.4995 147.566 27.5372C147.566 27.5353 147.571 27.5293 147.571 27.5293Z" fill="white"/>
<path d="M149.558 27.4479C149.558 27.4688 149.569 27.4707 149.587 27.4574C149.587 27.4574 149.578 27.4479 149.574 27.4441C149.567 27.4498 149.562 27.4536 149.555 27.4593C149.553 27.4612 149.558 27.4479 149.558 27.4479Z" fill="white"/>
<path d="M152.641 27.4776C152.687 27.4736 152.738 27.5034 152.781 27.4676L152.779 27.4736C152.709 27.4359 152.709 27.4359 152.649 27.4756L152.641 27.4776Z" fill="white"/>
<path d="M154.222 27.4594C154.203 27.4495 154.181 27.4336 154.162 27.4336C154.133 27.4336 154.099 27.4415 154.078 27.4554C154.068 27.4614 154.078 27.4911 154.08 27.509L154.075 27.5209C154.143 27.5209 154.186 27.4872 154.229 27.4515C154.232 27.4534 154.222 27.4594 154.222 27.4594Z" fill="white"/>
<path d="M135.913 27.5088C135.918 27.5295 135.927 27.5314 135.945 27.5164C135.945 27.5164 135.936 27.5088 135.929 27.5032C135.922 27.5088 135.918 27.5145 135.911 27.5201C135.911 27.522 135.913 27.5088 135.913 27.5088Z" fill="white"/>
<path d="M136.7 27.4775C136.695 27.5172 136.69 27.5569 136.685 27.5966L136.69 27.5906C136.712 27.5847 136.751 27.5787 136.751 27.5728C136.751 27.547 136.758 27.5152 136.719 27.4994C136.709 27.4954 136.702 27.4875 136.692 27.4815C136.69 27.4835 136.7 27.4775 136.7 27.4775Z" fill="white"/>
<path d="M142.826 27.5727C142.855 27.5806 142.881 27.5727 142.884 27.549C142.884 27.5253 142.857 27.5154 142.828 27.5194L142.845 27.5115C142.845 27.5352 142.845 27.5608 142.845 27.5845L142.826 27.5727Z" fill="white"/>
<path d="M147.425 27.5393C147.474 27.5353 147.519 27.5314 147.567 27.5294L147.563 27.5353C147.553 27.5294 147.546 27.5195 147.536 27.5155C147.471 27.4818 147.471 27.4818 147.43 27.5373C147.433 27.5373 147.425 27.5393 147.425 27.5393Z" fill="white"/>
<path d="M152.648 27.4756C152.631 27.5093 152.615 27.543 152.598 27.5748H152.61C152.627 27.543 152.67 27.5192 152.641 27.4756C152.641 27.4776 152.648 27.4756 152.648 27.4756Z" fill="white"/>
<path d="M154.08 27.5115C154.084 27.5191 154.089 27.5248 154.093 27.5324C154.109 27.5115 154.102 27.5077 154.075 27.5229C154.077 27.5229 154.08 27.5115 154.08 27.5115Z" fill="white"/>
<path d="M133.109 27.6436C133.109 27.6199 133.109 27.5943 133.107 27.5706L133.111 27.5686C133.111 27.5943 133.109 27.6199 133.109 27.6436Z" fill="white"/>
<path d="M136.684 27.5968C136.674 27.5908 136.665 27.5829 136.655 27.5789C136.588 27.5472 136.588 27.5472 136.547 27.5987L136.54 27.6007C136.59 27.6027 136.641 27.6146 136.689 27.5908C136.689 27.5928 136.684 27.5968 136.684 27.5968Z" fill="white"/>
<path d="M138.597 27.5706C138.601 27.5913 138.612 27.5932 138.626 27.5781C138.626 27.5781 138.617 27.5706 138.61 27.5649C138.606 27.5706 138.599 27.5762 138.592 27.5819C138.592 27.5838 138.597 27.5706 138.597 27.5706Z" fill="white"/>
<path d="M148.105 27.1742L148.08 27.1844L148.098 27.1702L148.105 27.1742Z" fill="white"/>
<path d="M142.054 27.6085C142.061 27.6141 142.065 27.6216 142.072 27.6273C142.095 27.6085 142.092 27.6009 142.063 27.6028L142.054 27.6085Z" fill="white"/>
<path d="M145.288 27.6147C145.293 27.6188 145.3 27.6228 145.305 27.6269C145.321 27.6106 145.316 27.6045 145.295 27.6066L145.288 27.6147Z" fill="white"/>
<path d="M146.69 27.6323C146.7 27.6462 146.709 27.672 146.722 27.672C146.765 27.676 146.774 27.6482 146.777 27.6184L146.789 27.6244C146.755 27.6244 146.724 27.6244 146.69 27.6244C146.688 27.6224 146.69 27.6323 146.69 27.6323Z" fill="white"/>
<path d="M147.403 27.6443C147.43 27.6125 147.456 27.5808 147.425 27.5391C147.425 27.5391 147.432 27.5371 147.43 27.5371C147.379 27.5669 147.415 27.6145 147.391 27.6502L147.403 27.6443Z" fill="white"/>
<path d="M151.547 27.5949C151.501 27.5869 151.455 27.5611 151.414 27.5988L151.406 27.6028C151.455 27.5988 151.504 27.5968 151.555 27.5929L151.547 27.5949Z" fill="white"/>
<path d="M152.597 27.5749C152.568 27.569 152.549 27.5432 152.51 27.563C152.469 27.5829 152.491 27.6087 152.488 27.6325L152.479 27.6404C152.522 27.6186 152.565 27.5968 152.609 27.5769L152.597 27.5749Z" fill="white"/>
<path d="M154.74 27.6299L154.749 27.6184L154.733 27.6242L154.74 27.6299Z" fill="white"/>
<path d="M132.942 27.7227C132.92 27.713 132.946 27.7243 132.942 27.7227C132.939 27.7243 132.942 27.7227 132.942 27.7227Z" fill="white"/>
<path d="M148.485 27.2077C148.546 27.2375 148.585 27.1938 148.634 27.1799L148.638 27.1819C148.59 27.1859 148.539 27.1918 148.49 27.1958L148.485 27.2077Z" fill="white"/>
<path d="M136.544 27.5989C136.537 27.6366 136.53 27.6743 136.523 27.712C136.52 27.712 136.53 27.708 136.53 27.708C136.561 27.6743 136.573 27.6386 136.537 27.6009C136.539 27.6009 136.544 27.5989 136.544 27.5989Z" fill="white"/>
<path d="M150.014 27.2236C150.021 27.2236 150.029 27.2216 150.036 27.2216C150.026 27.2058 150.021 27.2098 150.024 27.2335C150.021 27.2315 150.014 27.2236 150.014 27.2236Z" fill="white"/>
<path d="M142.061 27.6047C142.056 27.6444 142.054 27.6841 142.049 27.7218L142.052 27.7159C142.073 27.7099 142.105 27.7099 142.112 27.698C142.122 27.6861 142.115 27.6603 142.105 27.6464C142.095 27.6305 142.071 27.6226 142.054 27.6107C142.054 27.6087 142.061 27.6047 142.061 27.6047Z" fill="white"/>
<path d="M143.383 27.6859C143.42 27.664 143.48 27.6958 143.509 27.6521V27.6601C143.463 27.6303 143.424 27.6581 143.386 27.676L143.383 27.6859Z" fill="white"/>
<path d="M144.33 27.7019C144.361 27.686 144.404 27.682 144.414 27.6423C144.414 27.6423 144.404 27.6423 144.407 27.6423C144.38 27.6622 144.351 27.68 144.322 27.6979L144.33 27.7019Z" fill="white"/>
<path d="M145.295 27.6067C145.283 27.6404 145.271 27.6742 145.256 27.7079L145.264 27.7059C145.351 27.6821 145.351 27.6821 145.29 27.6146C145.288 27.6146 145.295 27.6067 145.295 27.6067Z" fill="white"/>
<path d="M146.687 27.6226C146.644 27.6523 146.613 27.6861 146.617 27.7357H146.61C146.644 27.7317 146.678 27.7496 146.706 27.7138C146.735 27.6761 146.697 27.6583 146.687 27.6325C146.69 27.6325 146.687 27.6226 146.687 27.6226Z" fill="white"/>
<path d="M147.393 27.6503C147.371 27.6325 147.374 27.5968 147.321 27.6027C147.26 27.6087 147.292 27.6444 147.28 27.6662H147.273C147.316 27.6603 147.362 27.6523 147.405 27.6464C147.403 27.6444 147.393 27.6503 147.393 27.6503Z" fill="white"/>
<path d="M149.354 27.6802C149.359 27.6843 149.371 27.6924 149.371 27.6904C149.387 27.6741 149.383 27.6681 149.361 27.6721L149.354 27.6802Z" fill="white"/>
<path d="M151.411 27.6003C151.407 27.64 151.399 27.6797 151.394 27.7194L151.399 27.7134C151.465 27.6777 151.465 27.6757 151.404 27.6023C151.407 27.6023 151.411 27.6003 151.411 27.6003Z" fill="white"/>
<path d="M151.081 27.1702C151.13 27.2277 151.188 27.192 151.246 27.1801L151.251 27.1821C151.193 27.1801 151.135 27.1761 151.077 27.1741C151.077 27.1741 151.081 27.1702 151.081 27.1702Z" fill="white"/>
<path d="M152.486 27.6323C152.484 27.6382 152.481 27.6442 152.479 27.6501C152.486 27.6481 152.494 27.6461 152.501 27.6442C152.494 27.6422 152.486 27.6402 152.479 27.6402C152.476 27.6402 152.486 27.6323 152.486 27.6323Z" fill="white"/>
<path d="M154.733 27.6245C154.689 27.6582 154.672 27.6999 154.674 27.7475L154.67 27.7495C154.694 27.7098 154.716 27.6721 154.74 27.6325C154.74 27.6305 154.733 27.6245 154.733 27.6245Z" fill="white"/>
<path d="M132.786 27.7316C132.837 27.7296 132.891 27.7256 132.942 27.7236C132.942 27.7236 132.939 27.7256 132.942 27.7256C132.891 27.7256 132.842 27.7276 132.791 27.7276L132.786 27.7316Z" fill="white"/>
<path d="M136.411 27.7452C136.449 27.7333 136.49 27.7194 136.529 27.7075C136.529 27.7075 136.519 27.7114 136.522 27.7114C136.474 27.6856 136.435 27.6956 136.406 27.7372L136.411 27.7452Z" fill="white"/>
<path d="M141.918 27.7373C141.961 27.7293 142.007 27.7214 142.051 27.7155C142.051 27.7155 142.048 27.7214 142.048 27.7234C141.973 27.6837 141.973 27.6837 141.921 27.7293L141.918 27.7373Z" fill="white"/>
<path d="M143.306 27.7832C143.337 27.7812 143.368 27.811 143.4 27.7693C143.426 27.7316 143.392 27.7138 143.383 27.686C143.383 27.686 143.383 27.6761 143.383 27.6741C143.349 27.7098 143.301 27.7396 143.294 27.7892L143.306 27.7832Z" fill="white"/>
<path d="M144.322 27.6978C144.273 27.7156 144.242 27.7454 144.235 27.791C144.235 27.791 144.233 27.7989 144.233 27.8009C144.298 27.791 144.322 27.7533 144.329 27.7037C144.329 27.7017 144.322 27.6978 144.322 27.6978Z" fill="white"/>
<path d="M145.157 27.8033C145.246 27.7934 145.256 27.7834 145.261 27.7061L145.253 27.708C145.193 27.7199 145.159 27.7497 145.162 27.8033C145.164 27.8033 145.157 27.8033 145.157 27.8033Z" fill="white"/>
<path d="M153.241 27.1761L153.214 27.1839L153.234 27.1702L153.241 27.1761Z" fill="white"/>
<path d="M147.277 27.6659C147.214 27.6739 147.214 27.7116 147.219 27.7512L147.226 27.7572C147.246 27.7274 147.294 27.7096 147.27 27.6659C147.27 27.6639 147.277 27.6659 147.277 27.6659Z" fill="white"/>
<path d="M149.361 27.6721C149.322 27.7078 149.276 27.7416 149.272 27.7932L149.286 27.7892C149.325 27.7892 149.368 27.8269 149.402 27.7733C149.435 27.7197 149.375 27.7098 149.353 27.682C149.353 27.6801 149.361 27.6721 149.361 27.6721Z" fill="white"/>
<path d="M151.393 27.7197C151.384 27.7138 151.377 27.7059 151.367 27.7019C151.307 27.6741 151.307 27.6741 151.268 27.7257L151.263 27.7317C151.309 27.7257 151.355 27.7197 151.401 27.7138C151.398 27.7138 151.393 27.7197 151.393 27.7197Z" fill="white"/>
<path d="M137.057 27.278C137.053 27.2704 137.048 27.2628 137.044 27.2571C137.028 27.278 137.032 27.2818 137.064 27.2685C137.064 27.2666 137.057 27.278 137.057 27.278Z" fill="white"/>
<path d="M132.789 27.7278C132.789 27.7714 132.786 27.8131 132.786 27.8568C132.818 27.8409 132.844 27.823 132.818 27.7893C132.806 27.7714 132.796 27.7536 132.784 27.7337C132.786 27.7318 132.789 27.7278 132.789 27.7278Z" fill="white"/>
<path d="M133.167 27.7931C133.114 27.799 133.058 27.805 133.005 27.8109L133 27.8228C133.053 27.801 133.107 27.7752 133.172 27.7931C133.172 27.7951 133.167 27.7931 133.167 27.7931Z" fill="white"/>
<path d="M136.406 27.7378C136.379 27.7715 136.353 27.8053 136.326 27.839L136.333 27.8469C136.36 27.8152 136.386 27.7814 136.41 27.7477C136.41 27.7457 136.406 27.7378 136.406 27.7378Z" fill="white"/>
<path d="M138.308 27.7886C138.31 27.7962 138.313 27.8093 138.315 27.8093C138.34 27.8131 138.349 27.8018 138.335 27.783C138.333 27.7811 138.319 27.7849 138.31 27.7867L138.308 27.7886Z" fill="white"/>
<path d="M137.573 27.2354C137.571 27.2413 137.568 27.2472 137.563 27.2551C137.571 27.2531 137.576 27.2492 137.583 27.2472C137.576 27.2472 137.568 27.2452 137.561 27.2432C137.561 27.2413 137.573 27.2354 137.573 27.2354Z" fill="white"/>
<path d="M141.396 27.7476C141.367 27.7793 141.338 27.8111 141.309 27.8428L141.314 27.8507C141.384 27.8448 141.396 27.8031 141.401 27.7555C141.401 27.7535 141.396 27.7476 141.396 27.7476Z" fill="white"/>
<path d="M141.921 27.7295C141.894 27.7712 141.867 27.8128 141.841 27.8545L141.85 27.8466C141.923 27.8247 141.923 27.8247 141.918 27.7414C141.918 27.7374 141.921 27.7295 141.921 27.7295Z" fill="white"/>
<path d="M143.296 27.791C143.299 27.785 143.299 27.7791 143.301 27.7732C143.281 27.787 143.284 27.789 143.309 27.7811C143.306 27.7831 143.296 27.791 143.296 27.791Z" fill="white"/>
<path d="M138.199 27.2759C138.197 27.2698 138.197 27.2617 138.194 27.2556C138.172 27.2698 138.177 27.2739 138.207 27.2658C138.207 27.2637 138.199 27.2759 138.199 27.2759Z" fill="white"/>
<path d="M147.855 27.2787C147.853 27.2708 147.853 27.2649 147.85 27.2571C147.828 27.2708 147.83 27.2748 147.862 27.2689C147.865 27.2669 147.855 27.2787 147.855 27.2787Z" fill="white"/>
<path d="M147.117 27.8249C147.153 27.8011 147.189 27.7793 147.226 27.7555L147.218 27.7476C147.187 27.7714 147.158 27.7932 147.127 27.817C147.129 27.819 147.117 27.8249 147.117 27.8249Z" fill="white"/>
<path d="M149.272 27.7935C149.277 27.7874 149.279 27.7793 149.284 27.7732C149.277 27.7752 149.269 27.7773 149.262 27.7813C149.272 27.7834 149.279 27.7854 149.287 27.7874C149.287 27.7895 149.272 27.7935 149.272 27.7935Z" fill="white"/>
<path d="M151.268 27.7256C151.246 27.7653 151.225 27.8069 151.2 27.8466L151.21 27.8387C151.251 27.8129 151.278 27.7811 151.263 27.7335C151.263 27.7315 151.268 27.7256 151.268 27.7256Z" fill="white"/>
<path d="M152.117 27.7573C152.107 27.793 152.078 27.8129 152.037 27.8248L152.049 27.8307C152.059 27.797 152.085 27.7772 152.126 27.7672L152.117 27.7573Z" fill="white"/>
<path d="M153.694 27.8329C153.704 27.8349 153.714 27.8408 153.723 27.8388C153.733 27.8369 153.745 27.8309 153.745 27.825C153.752 27.8031 153.738 27.7912 153.711 27.7972C153.704 27.7992 153.702 27.8111 153.699 27.819L153.694 27.8329Z" fill="white"/>
<path d="M132.612 27.8865C132.67 27.8765 132.728 27.8666 132.786 27.8567C132.731 27.8626 132.672 27.8686 132.617 27.8745C132.617 27.8726 132.612 27.8865 132.612 27.8865Z" fill="white"/>
<path d="M133.005 27.811C133.009 27.8192 133.012 27.8253 133.016 27.8334C133.033 27.8131 133.028 27.811 133 27.8232C132.997 27.8253 133.005 27.811 133.005 27.811Z" fill="white"/>
<path d="M148.49 27.196C148.493 27.2021 148.498 27.2082 148.5 27.2164C148.518 27.1981 148.513 27.194 148.485 27.2082L148.49 27.196Z" fill="white"/>
<path d="M138.311 27.7874C138.289 27.8251 138.265 27.8628 138.243 27.9005C138.243 27.9005 138.25 27.9084 138.25 27.9104C138.269 27.8707 138.286 27.831 138.306 27.7913C138.308 27.7893 138.311 27.7874 138.311 27.7874Z" fill="white"/>
<path d="M139.138 27.7952C139.138 27.8031 139.136 27.809 139.136 27.8169C139.163 27.8129 139.16 27.807 139.133 27.8011C139.131 27.8011 139.138 27.7952 139.138 27.7952Z" fill="white"/>
<path d="M148.985 27.2692C148.99 27.2652 148.998 27.2633 149.003 27.2593C148.978 27.2475 148.975 27.2495 148.993 27.2652C148.995 27.2652 148.985 27.2692 148.985 27.2692Z" fill="white"/>
<path d="M141.84 27.8522C141.84 27.8465 141.843 27.8407 141.843 27.835C141.826 27.8503 141.828 27.8522 141.85 27.8426C141.85 27.8445 141.84 27.8522 141.84 27.8522Z" fill="white"/>
<path d="M144.046 27.801C144.046 27.8089 144.046 27.8168 144.046 27.8246C144.071 27.8148 144.069 27.8089 144.036 27.8069L144.046 27.801Z" fill="white"/>
<path d="M144.965 27.801C144.965 27.8086 144.965 27.8162 144.965 27.8238C144.992 27.8143 144.99 27.8086 144.956 27.8067C144.958 27.8067 144.965 27.801 144.965 27.801Z" fill="white"/>
<path d="M147.13 27.8188C147.11 27.8327 147.112 27.8386 147.14 27.8327C147.135 27.8287 147.127 27.8267 147.12 27.8248C147.117 27.8248 147.13 27.8188 147.13 27.8188Z" fill="white"/>
<path d="M149.063 27.9001C149.068 27.8962 149.073 27.8922 149.078 27.8883C149.053 27.8804 149.051 27.8824 149.07 27.8942C149.073 27.8942 149.063 27.9001 149.063 27.9001Z" fill="white"/>
<path d="M151.201 27.8466C151.198 27.8407 151.196 27.8348 151.196 27.8289C151.186 27.8486 151.191 27.8506 151.213 27.8368C151.211 27.8387 151.201 27.8466 151.201 27.8466Z" fill="white"/>
<path d="M149.82 27.2434C149.82 27.2493 149.823 27.2553 149.823 27.2612C149.837 27.2434 149.832 27.2414 149.808 27.2513C149.81 27.2513 149.82 27.2434 149.82 27.2434Z" fill="white"/>
<path d="M153.699 27.8188C153.704 27.8247 153.708 27.8326 153.713 27.8385C153.727 27.8169 153.723 27.8149 153.694 27.8306C153.694 27.8326 153.699 27.8188 153.699 27.8188Z" fill="white"/>
<path d="M132.617 27.8726C132.622 27.8807 132.624 27.8868 132.629 27.8949C132.646 27.8746 132.639 27.8726 132.612 27.8848C132.612 27.8868 132.617 27.8726 132.617 27.8726Z" fill="white"/>
<path d="M136.074 27.9C136.124 27.906 136.175 27.9119 136.225 27.9199L136.218 27.9258C136.168 27.8544 136.165 27.8544 136.081 27.904C136.081 27.902 136.074 27.9 136.074 27.9Z" fill="white"/>
<path d="M141.656 27.8626L141.639 27.8765L141.649 27.8547L141.656 27.8626Z" fill="white"/>
<path d="M142.879 27.9258L142.896 27.9163L142.888 27.9316L142.879 27.9258Z" fill="white"/>
<path d="M150.466 27.2711C150.461 27.2652 150.458 27.2574 150.453 27.2515C150.436 27.2711 150.441 27.2731 150.47 27.2593L150.466 27.2711Z" fill="white"/>
<path d="M152.991 27.2731C152.989 27.2652 152.986 27.2593 152.984 27.2515C152.964 27.2692 152.969 27.2711 152.998 27.2613L152.991 27.2731Z" fill="white"/>
<path d="M146.943 27.8766C146.936 27.8766 146.928 27.8785 146.921 27.8785C146.936 27.8904 146.938 27.8864 146.931 27.8667C146.933 27.8667 146.943 27.8766 146.943 27.8766Z" fill="white"/>
<path d="M150.992 27.8763L150.977 27.8862C150.977 27.8862 150.995 27.8723 150.997 27.8704C150.999 27.8704 150.992 27.8763 150.992 27.8763Z" fill="white"/>
<path d="M153.593 27.2715C153.595 27.2655 153.6 27.2616 153.603 27.2556C153.575 27.2576 153.575 27.2616 153.603 27.2655C153.603 27.2636 153.593 27.2715 153.593 27.2715Z" fill="white"/>
<path d="M77.2923 12.3777C77.2996 12.4015 77.3141 12.4213 77.3093 12.4392C77.2244 12.6793 77.137 12.9174 77.0497 13.1575C77.0424 13.1773 77.0279 13.1972 77.0109 13.2111C76.9939 13.225 76.9696 13.2468 76.9502 13.2448C76.7367 13.225 76.516 13.2349 76.3097 13.1674C76.2806 13.1575 76.2637 13.1119 76.2855 13.092C76.2928 13.0841 76.3 13.0742 76.3097 13.0682C76.6033 12.8519 76.8969 12.6356 77.1928 12.4213C77.2171 12.4015 77.2583 12.3916 77.2923 12.3777Z" fill="white"/>
</g>
<defs>
<clipPath id="clip0_1_103">
<rect width="163.032" height="38" fill="white"/>
</clipPath>
</defs>
</svg>
